%TF.GenerationSoftware,KiCad,Pcbnew,9.0.7*%
%TF.CreationDate,2026-04-16T22:55:16+03:00*%
%TF.ProjectId,Project_Acoustic_Detector,50726f6a-6563-4745-9f41-636f75737469,rev?*%
%TF.SameCoordinates,Original*%
%TF.FileFunction,Copper,L1,Top*%
%TF.FilePolarity,Positive*%
%FSLAX46Y46*%
G04 Gerber Fmt 4.6, Leading zero omitted, Abs format (unit mm)*
G04 Created by KiCad (PCBNEW 9.0.7) date 2026-04-16 22:55:16*
%MOMM*%
%LPD*%
G01*
G04 APERTURE LIST*
G04 Aperture macros list*
%AMRoundRect*
0 Rectangle with rounded corners*
0 $1 Rounding radius*
0 $2 $3 $4 $5 $6 $7 $8 $9 X,Y pos of 4 corners*
0 Add a 4 corners polygon primitive as box body*
4,1,4,$2,$3,$4,$5,$6,$7,$8,$9,$2,$3,0*
0 Add four circle primitives for the rounded corners*
1,1,$1+$1,$2,$3*
1,1,$1+$1,$4,$5*
1,1,$1+$1,$6,$7*
1,1,$1+$1,$8,$9*
0 Add four rect primitives between the rounded corners*
20,1,$1+$1,$2,$3,$4,$5,0*
20,1,$1+$1,$4,$5,$6,$7,0*
20,1,$1+$1,$6,$7,$8,$9,0*
20,1,$1+$1,$8,$9,$2,$3,0*%
G04 Aperture macros list end*
%TA.AperFunction,HeatsinkPad*%
%ADD10C,0.600000*%
%TD*%
%TA.AperFunction,SMDPad,CuDef*%
%ADD11R,1.500000X0.900000*%
%TD*%
%TA.AperFunction,SMDPad,CuDef*%
%ADD12R,0.900000X1.500000*%
%TD*%
%TA.AperFunction,HeatsinkPad*%
%ADD13R,3.900000X3.900000*%
%TD*%
%TA.AperFunction,ComponentPad*%
%ADD14R,1.700000X1.700000*%
%TD*%
%TA.AperFunction,ComponentPad*%
%ADD15C,1.700000*%
%TD*%
%TA.AperFunction,SMDPad,CuDef*%
%ADD16RoundRect,0.250000X-0.545000X-0.445000X0.545000X-0.445000X0.545000X0.445000X-0.545000X0.445000X0*%
%TD*%
%TA.AperFunction,SMDPad,CuDef*%
%ADD17RoundRect,0.250000X0.400000X-0.525000X0.400000X0.525000X-0.400000X0.525000X-0.400000X-0.525000X0*%
%TD*%
%TA.AperFunction,SMDPad,CuDef*%
%ADD18RoundRect,0.250000X0.400000X0.625000X-0.400000X0.625000X-0.400000X-0.625000X0.400000X-0.625000X0*%
%TD*%
%TA.AperFunction,SMDPad,CuDef*%
%ADD19RoundRect,0.250000X0.362500X0.700000X-0.362500X0.700000X-0.362500X-0.700000X0.362500X-0.700000X0*%
%TD*%
%TA.AperFunction,SMDPad,CuDef*%
%ADD20RoundRect,0.250001X0.462499X0.624999X-0.462499X0.624999X-0.462499X-0.624999X0.462499X-0.624999X0*%
%TD*%
%TA.AperFunction,SMDPad,CuDef*%
%ADD21RoundRect,0.250001X0.624999X-0.462499X0.624999X0.462499X-0.624999X0.462499X-0.624999X-0.462499X0*%
%TD*%
%TA.AperFunction,SMDPad,CuDef*%
%ADD22RoundRect,0.250000X-0.400000X-0.625000X0.400000X-0.625000X0.400000X0.625000X-0.400000X0.625000X0*%
%TD*%
%TA.AperFunction,SMDPad,CuDef*%
%ADD23RoundRect,0.250000X-0.625000X0.400000X-0.625000X-0.400000X0.625000X-0.400000X0.625000X0.400000X0*%
%TD*%
%TA.AperFunction,SMDPad,CuDef*%
%ADD24RoundRect,0.375000X0.375000X-0.625000X0.375000X0.625000X-0.375000X0.625000X-0.375000X-0.625000X0*%
%TD*%
%TA.AperFunction,SMDPad,CuDef*%
%ADD25RoundRect,0.500000X1.400000X-0.500000X1.400000X0.500000X-1.400000X0.500000X-1.400000X-0.500000X0*%
%TD*%
%TA.AperFunction,SMDPad,CuDef*%
%ADD26RoundRect,0.250000X0.445000X-0.545000X0.445000X0.545000X-0.445000X0.545000X-0.445000X-0.545000X0*%
%TD*%
%TA.AperFunction,SMDPad,CuDef*%
%ADD27RoundRect,0.250000X-0.445000X0.545000X-0.445000X-0.545000X0.445000X-0.545000X0.445000X0.545000X0*%
%TD*%
%TA.AperFunction,SMDPad,CuDef*%
%ADD28RoundRect,0.250000X0.545000X0.445000X-0.545000X0.445000X-0.545000X-0.445000X0.545000X-0.445000X0*%
%TD*%
%TA.AperFunction,SMDPad,CuDef*%
%ADD29RoundRect,0.250000X0.650000X-0.412500X0.650000X0.412500X-0.650000X0.412500X-0.650000X-0.412500X0*%
%TD*%
%TA.AperFunction,SMDPad,CuDef*%
%ADD30RoundRect,0.250000X0.412500X0.650000X-0.412500X0.650000X-0.412500X-0.650000X0.412500X-0.650000X0*%
%TD*%
%TA.AperFunction,SMDPad,CuDef*%
%ADD31RoundRect,0.250000X-0.650000X0.412500X-0.650000X-0.412500X0.650000X-0.412500X0.650000X0.412500X0*%
%TD*%
%TA.AperFunction,SMDPad,CuDef*%
%ADD32R,0.800000X1.400000*%
%TD*%
%TA.AperFunction,SMDPad,CuDef*%
%ADD33R,1.500000X1.500000*%
%TD*%
%TA.AperFunction,SMDPad,CuDef*%
%ADD34R,1.300000X1.500000*%
%TD*%
%TA.AperFunction,SMDPad,CuDef*%
%ADD35R,0.800000X1.500000*%
%TD*%
%TA.AperFunction,SMDPad,CuDef*%
%ADD36R,1.000000X1.550000*%
%TD*%
%TA.AperFunction,SMDPad,CuDef*%
%ADD37R,1.450000X1.000000*%
%TD*%
%TA.AperFunction,SMDPad,CuDef*%
%ADD38R,0.700000X1.750000*%
%TD*%
%TA.AperFunction,ComponentPad*%
%ADD39C,0.650000*%
%TD*%
%TA.AperFunction,ComponentPad*%
%ADD40O,0.900000X2.400000*%
%TD*%
%TA.AperFunction,ComponentPad*%
%ADD41O,0.900000X1.700000*%
%TD*%
%TA.AperFunction,ViaPad*%
%ADD42C,0.600000*%
%TD*%
%TA.AperFunction,ViaPad*%
%ADD43C,3.500000*%
%TD*%
%TA.AperFunction,Conductor*%
%ADD44C,0.152400*%
%TD*%
%TA.AperFunction,Conductor*%
%ADD45C,0.508000*%
%TD*%
%TA.AperFunction,Conductor*%
%ADD46C,0.254000*%
%TD*%
%TA.AperFunction,Profile*%
%ADD47C,0.050000*%
%TD*%
G04 APERTURE END LIST*
D10*
%TO.P,U1,41,GND*%
%TO.N,GND*%
X143777500Y-85670000D03*
X143777500Y-84270000D03*
X144477500Y-84970000D03*
X144477500Y-83570000D03*
X143777500Y-82870000D03*
X143077500Y-84970000D03*
X142377500Y-85670000D03*
X141677500Y-83570000D03*
X142377500Y-84270000D03*
X143077500Y-83570000D03*
X141677500Y-84970000D03*
X142377500Y-82870000D03*
D11*
%TO.P,U1,1,GND*%
X135827500Y-76550000D03*
%TO.P,U1,2,3V3*%
%TO.N,+3.3V*%
X135827500Y-77820000D03*
%TO.P,U1,3,EN*%
%TO.N,/EN*%
X135827500Y-79090000D03*
%TO.P,U1,4,IO4*%
%TO.N,unconnected-(U1-IO4-Pad4)*%
X135827500Y-80360000D03*
%TO.P,U1,5,IO5*%
%TO.N,/I2S_SCK*%
X135827500Y-81630000D03*
%TO.P,U1,6,IO6*%
%TO.N,/I2S_WS*%
X135827500Y-82900000D03*
%TO.P,U1,7,IO7*%
%TO.N,/I2S_SD1*%
X135827500Y-84170000D03*
%TO.P,U1,8,IO15*%
%TO.N,unconnected-(U1-IO15-Pad8)*%
X135827500Y-85440000D03*
%TO.P,U1,9,IO16*%
%TO.N,unconnected-(U1-IO16-Pad9)*%
X135827500Y-86710000D03*
%TO.P,U1,10,IO17*%
%TO.N,/Indicator*%
X135827500Y-87980000D03*
%TO.P,U1,11,IO18*%
%TO.N,/SD_DET*%
X135827500Y-89250000D03*
%TO.P,U1,12,IO8*%
%TO.N,unconnected-(U1-IO8-Pad12)*%
X135827500Y-90520000D03*
%TO.P,U1,13,USB_D-*%
%TO.N,/USB_D-*%
X135827500Y-91790000D03*
%TO.P,U1,14,USB_D+*%
%TO.N,/USB_D+*%
X135827500Y-93060000D03*
D12*
%TO.P,U1,15,IO3*%
%TO.N,unconnected-(U1-IO3-Pad15)*%
X137592500Y-94310000D03*
%TO.P,U1,16,IO46*%
%TO.N,unconnected-(U1-IO46-Pad16)*%
X138862500Y-94310000D03*
%TO.P,U1,17,IO9*%
%TO.N,unconnected-(U1-IO9-Pad17)*%
X140132500Y-94310000D03*
%TO.P,U1,18,IO10*%
%TO.N,/SD_CS*%
X141402500Y-94310000D03*
%TO.P,U1,19,IO11*%
%TO.N,/SD_MOSI*%
X142672500Y-94310000D03*
%TO.P,U1,20,IO12*%
%TO.N,/SD_CLK*%
X143942500Y-94310000D03*
%TO.P,U1,21,IO13*%
%TO.N,/SD_MISO*%
X145212500Y-94310000D03*
%TO.P,U1,22,IO14*%
%TO.N,/I2S_SD2*%
X146482500Y-94310000D03*
%TO.P,U1,23,IO21*%
%TO.N,unconnected-(U1-IO21-Pad23)*%
X147752500Y-94310000D03*
%TO.P,U1,24,IO47*%
%TO.N,unconnected-(U1-IO47-Pad24)*%
X149022500Y-94310000D03*
%TO.P,U1,25,IO48*%
%TO.N,unconnected-(U1-IO48-Pad25)*%
X150292500Y-94310000D03*
%TO.P,U1,26,IO45*%
%TO.N,unconnected-(U1-IO45-Pad26)*%
X151562500Y-94310000D03*
D11*
%TO.P,U1,27,IO0*%
%TO.N,/BOOT0*%
X153327500Y-93060000D03*
%TO.P,U1,28,IO35*%
%TO.N,unconnected-(U1-IO35-Pad28)*%
X153327500Y-91790000D03*
%TO.P,U1,29,IO36*%
%TO.N,unconnected-(U1-IO36-Pad29)*%
X153327500Y-90520000D03*
%TO.P,U1,30,IO37*%
%TO.N,unconnected-(U1-IO37-Pad30)*%
X153327500Y-89250000D03*
%TO.P,U1,31,IO38*%
%TO.N,unconnected-(U1-IO38-Pad31)*%
X153327500Y-87980000D03*
%TO.P,U1,32,IO39*%
%TO.N,unconnected-(U1-IO39-Pad32)*%
X153327500Y-86710000D03*
%TO.P,U1,33,IO40*%
%TO.N,unconnected-(U1-IO40-Pad33)*%
X153327500Y-85440000D03*
%TO.P,U1,34,IO41*%
%TO.N,unconnected-(U1-IO41-Pad34)*%
X153327500Y-84170000D03*
%TO.P,U1,35,IO42*%
%TO.N,unconnected-(U1-IO42-Pad35)*%
X153327500Y-82900000D03*
%TO.P,U1,36,RXD0*%
%TO.N,/UART_RXD*%
X153327500Y-81630000D03*
%TO.P,U1,37,TXD0*%
%TO.N,/UART_TXD*%
X153327500Y-80360000D03*
%TO.P,U1,38,IO2*%
%TO.N,unconnected-(U1-IO2-Pad38)*%
X153327500Y-79090000D03*
%TO.P,U1,39,IO1*%
%TO.N,unconnected-(U1-IO1-Pad39)*%
X153327500Y-77820000D03*
%TO.P,U1,40,GND*%
%TO.N,GND*%
X153327500Y-76550000D03*
D13*
%TO.P,U1,41,GND*%
X143077500Y-84270000D03*
%TD*%
D14*
%TO.P,J8,1,Pin_1*%
%TO.N,GND*%
X125000000Y-99500000D03*
D15*
%TO.P,J8,2,Pin_2*%
%TO.N,+3.3V_Audio*%
X125000000Y-96960000D03*
%TO.P,J8,3,Pin_3*%
%TO.N,/I2S_SD1*%
X125000000Y-94420000D03*
%TO.P,J8,4,Pin_4*%
%TO.N,/I2S_WS*%
X125000000Y-91880000D03*
%TO.P,J8,5,Pin_5*%
%TO.N,/I2S_SCK*%
X125000000Y-89340000D03*
%TD*%
D16*
%TO.P,C14,2*%
%TO.N,GND*%
X160440000Y-105500000D03*
%TO.P,C14,1*%
%TO.N,+3.3V*%
X157560000Y-105500000D03*
%TD*%
D17*
%TO.P,SW1,2,2*%
%TO.N,/EN*%
X127250000Y-76520000D03*
X127250000Y-84480000D03*
%TO.P,SW1,1,1*%
%TO.N,GND*%
X122750000Y-76520000D03*
X122750000Y-84480000D03*
%TD*%
D15*
%TO.P,J5,5,Pin_5*%
%TO.N,/I2S_SCK*%
X168000000Y-104960000D03*
%TO.P,J5,4,Pin_4*%
%TO.N,/I2S_WS*%
X168000000Y-107500000D03*
%TO.P,J5,3,Pin_3*%
%TO.N,/I2S_SD2*%
X168000000Y-110040000D03*
%TO.P,J5,2,Pin_2*%
%TO.N,+3.3V_Audio*%
X168000000Y-112580000D03*
D14*
%TO.P,J5,1,Pin_1*%
%TO.N,GND*%
X168000000Y-115120000D03*
%TD*%
D18*
%TO.P,R2,1*%
%TO.N,+5V*%
X139350000Y-103400000D03*
%TO.P,R2,2*%
%TO.N,Net-(D1-A)*%
X136250000Y-103400000D03*
%TD*%
D19*
%TO.P,FB1,1*%
%TO.N,+3.3V*%
X126662500Y-109000000D03*
%TO.P,FB1,2*%
%TO.N,+3.3V_Audio*%
X123337500Y-109000000D03*
%TD*%
D20*
%TO.P,D1,1,K*%
%TO.N,GND*%
X139287500Y-100800000D03*
%TO.P,D1,2,A*%
%TO.N,Net-(D1-A)*%
X136312500Y-100800000D03*
%TD*%
D14*
%TO.P,J1,1,Pin_1*%
%TO.N,GND*%
X159000000Y-77500000D03*
D15*
%TO.P,J1,2,Pin_2*%
%TO.N,/UART_TXD*%
X159000000Y-80040000D03*
%TO.P,J1,3,Pin_3*%
%TO.N,/UART_RXD*%
X159000000Y-82580000D03*
%TO.P,J1,4,Pin_4*%
%TO.N,+3.3V*%
X159000000Y-85120000D03*
%TD*%
D21*
%TO.P,D2,2,A*%
%TO.N,+3.3V*%
X166300000Y-89200000D03*
%TO.P,D2,1,K*%
%TO.N,Net-(D2-K)*%
X166300000Y-92175000D03*
%TD*%
D18*
%TO.P,R10,1*%
%TO.N,/CC1_Line*%
X125150000Y-115200000D03*
%TO.P,R10,2*%
%TO.N,GND*%
X122050000Y-115200000D03*
%TD*%
D22*
%TO.P,R1,1*%
%TO.N,+3.3V*%
X130000000Y-82000000D03*
%TO.P,R1,2*%
%TO.N,/EN*%
X133100000Y-82000000D03*
%TD*%
D23*
%TO.P,R3,2*%
%TO.N,Net-(D2-K)*%
X163800000Y-92250000D03*
%TO.P,R3,1*%
%TO.N,/Indicator*%
X163800000Y-89150000D03*
%TD*%
D22*
%TO.P,R7,1*%
%TO.N,Net-(J6-D--PadA7)*%
X137850000Y-118000000D03*
%TO.P,R7,2*%
%TO.N,/USB_D-*%
X140950000Y-118000000D03*
%TD*%
%TO.P,R8,1*%
%TO.N,Net-(J6-D+-PadA6)*%
X137850000Y-115600000D03*
%TO.P,R8,2*%
%TO.N,/USB_D+*%
X140950000Y-115600000D03*
%TD*%
D23*
%TO.P,R9,1*%
%TO.N,+3.3V*%
X156800000Y-88987500D03*
%TO.P,R9,2*%
%TO.N,/BOOT0*%
X156800000Y-92087500D03*
%TD*%
%TO.P,R12,1*%
%TO.N,+3.3V*%
X151300000Y-102675000D03*
%TO.P,R12,2*%
%TO.N,/SD_CS*%
X151300000Y-105775000D03*
%TD*%
D17*
%TO.P,SW2,2,2*%
%TO.N,/BOOT0*%
X167500000Y-77520000D03*
X167500000Y-85480000D03*
%TO.P,SW2,1,1*%
%TO.N,GND*%
X163000000Y-77520000D03*
X163000000Y-85480000D03*
%TD*%
D18*
%TO.P,R11,1*%
%TO.N,/CC2_Line*%
X125150000Y-117700000D03*
%TO.P,R11,2*%
%TO.N,GND*%
X122050000Y-117700000D03*
%TD*%
D24*
%TO.P,U2,1,GND*%
%TO.N,GND*%
X129200000Y-109150000D03*
%TO.P,U2,2,VO*%
%TO.N,+3.3V*%
X131500000Y-109150000D03*
D25*
X131500000Y-102850000D03*
D24*
%TO.P,U2,3,VI*%
%TO.N,+5V*%
X133800000Y-109150000D03*
%TD*%
D26*
%TO.P,C1,1*%
%TO.N,+3.3V*%
X130300000Y-79440000D03*
%TO.P,C1,2*%
%TO.N,GND*%
X130300000Y-76560000D03*
%TD*%
D27*
%TO.P,C8,1*%
%TO.N,+5V*%
X139000000Y-106120000D03*
%TO.P,C8,2*%
%TO.N,GND*%
X139000000Y-109000000D03*
%TD*%
D28*
%TO.P,C10,1*%
%TO.N,+3.3V*%
X132940000Y-97500000D03*
%TO.P,C10,2*%
%TO.N,GND*%
X130060000Y-97500000D03*
%TD*%
D26*
%TO.P,C12,1*%
%TO.N,+3.3V_Audio*%
X124000000Y-105940000D03*
%TO.P,C12,2*%
%TO.N,GND*%
X124000000Y-103060000D03*
%TD*%
D29*
%TO.P,C4,1*%
%TO.N,/BOOT0*%
X160300000Y-92162500D03*
%TO.P,C4,2*%
%TO.N,GND*%
X160300000Y-89037500D03*
%TD*%
D30*
%TO.P,C3,1*%
%TO.N,/EN*%
X133062500Y-85000000D03*
%TO.P,C3,2*%
%TO.N,GND*%
X129937500Y-85000000D03*
%TD*%
D31*
%TO.P,C9,1*%
%TO.N,+5V*%
X136500000Y-105937500D03*
%TO.P,C9,2*%
%TO.N,GND*%
X136500000Y-109062500D03*
%TD*%
D30*
%TO.P,C11,1*%
%TO.N,+3.3V*%
X133062500Y-100000000D03*
%TO.P,C11,2*%
%TO.N,GND*%
X129937500Y-100000000D03*
%TD*%
D31*
%TO.P,C13,1*%
%TO.N,GND*%
X126500000Y-102937500D03*
%TO.P,C13,2*%
%TO.N,+3.3V_Audio*%
X126500000Y-106062500D03*
%TD*%
D15*
%TO.P,J9,5,Pin_5*%
%TO.N,/I2S_SCK*%
X147000000Y-99500000D03*
%TO.P,J9,4,Pin_4*%
%TO.N,/I2S_WS*%
X147000000Y-102040000D03*
%TO.P,J9,3,Pin_3*%
%TO.N,/I2S_SD1*%
X147000000Y-104580000D03*
%TO.P,J9,2,Pin_2*%
%TO.N,+3.3V_Audio*%
X147000000Y-107120000D03*
D14*
%TO.P,J9,1,Pin_1*%
%TO.N,GND*%
X147000000Y-109660000D03*
%TD*%
D32*
%TO.P,J7,11,SHIELD*%
%TO.N,GND*%
X152000000Y-116650000D03*
D33*
X152350000Y-108400000D03*
D34*
X163700000Y-108400000D03*
D35*
X163950000Y-116000000D03*
D36*
%TO.P,J7,10,DET_A*%
%TO.N,/SD_DET*%
X152400000Y-119075000D03*
D37*
%TO.P,J7,9,DET_B*%
%TO.N,GND*%
X163625000Y-117500000D03*
D38*
%TO.P,J7,8,DAT1*%
%TO.N,unconnected-(J7-DAT1-Pad8)*%
X162500000Y-108275000D03*
%TO.P,J7,7,DAT0*%
%TO.N,/SD_MISO*%
X161400000Y-108275000D03*
%TO.P,J7,6,VSS*%
%TO.N,GND*%
X160300000Y-108275000D03*
%TO.P,J7,5,CLK*%
%TO.N,/SD_CLK*%
X159200000Y-108275000D03*
%TO.P,J7,4,VDD*%
%TO.N,+3.3V*%
X158100000Y-108275000D03*
%TO.P,J7,3,CMD*%
%TO.N,/SD_MOSI*%
X157000000Y-108275000D03*
%TO.P,J7,2,DAT3/CD*%
%TO.N,/SD_CS*%
X155900000Y-108275000D03*
%TO.P,J7,1,DAT2*%
%TO.N,unconnected-(J7-DAT2-Pad1)*%
X154800000Y-108275000D03*
%TD*%
D29*
%TO.P,C2,2*%
%TO.N,GND*%
X132800000Y-76437500D03*
%TO.P,C2,1*%
%TO.N,+3.3V*%
X132800000Y-79562500D03*
%TD*%
D39*
%TO.P,J6,A1,GND*%
%TO.N,GND*%
X128525000Y-113475000D03*
%TO.P,J6,A4,VBUS*%
%TO.N,+5V*%
X129375000Y-113475000D03*
%TO.P,J6,A5,CC1*%
%TO.N,/CC1_Line*%
X130225000Y-113475000D03*
%TO.P,J6,A6,D+*%
%TO.N,Net-(J6-D+-PadA6)*%
X131075000Y-113475000D03*
%TO.P,J6,A7,D-*%
%TO.N,Net-(J6-D--PadA7)*%
X131925000Y-113475000D03*
%TO.P,J6,A8,SBU1*%
%TO.N,unconnected-(J6-SBU1-PadA8)*%
X132775000Y-113475000D03*
%TO.P,J6,A9,VBUS*%
%TO.N,+5V*%
X133625000Y-113475000D03*
%TO.P,J6,A12,GND*%
%TO.N,GND*%
X134475000Y-113475000D03*
%TO.P,J6,B1,GND*%
X134475000Y-114825000D03*
%TO.P,J6,B4,VBUS*%
%TO.N,+5V*%
X133625000Y-114825000D03*
%TO.P,J6,B5,CC2*%
%TO.N,/CC2_Line*%
X132775000Y-114825000D03*
%TO.P,J6,B6,D+*%
%TO.N,Net-(J6-D+-PadA6)*%
X131925000Y-114825000D03*
%TO.P,J6,B7,D-*%
%TO.N,Net-(J6-D--PadA7)*%
X131075000Y-114825000D03*
%TO.P,J6,B8,SBU2*%
%TO.N,unconnected-(J6-SBU2-PadB8)*%
X130225000Y-114825000D03*
%TO.P,J6,B9,VBUS*%
%TO.N,+5V*%
X129375000Y-114825000D03*
%TO.P,J6,B12,GND*%
%TO.N,GND*%
X128525000Y-114825000D03*
D40*
%TO.P,J6,S1,SHIELD*%
X127175000Y-114455000D03*
D41*
X127175000Y-117835000D03*
D40*
X135825000Y-114455000D03*
D41*
X135825000Y-117835000D03*
%TD*%
D42*
%TO.N,GND*%
X161400000Y-83500000D03*
X160400000Y-86500000D03*
X152200000Y-111200000D03*
X150100000Y-111200000D03*
X137200000Y-76500000D03*
X141800000Y-102200000D03*
X138000000Y-100800000D03*
X128800000Y-76600000D03*
X128500000Y-78900000D03*
%TO.N,*%
X166600000Y-90800000D03*
X165700000Y-90800000D03*
X164200000Y-90900000D03*
X163300000Y-90900000D03*
X157900000Y-93400000D03*
X145900000Y-98300000D03*
X133800000Y-88400000D03*
X133800000Y-89800000D03*
X133800000Y-91800000D03*
X133800000Y-94100000D03*
X133700000Y-95600000D03*
X132800000Y-106900000D03*
X133400000Y-105000000D03*
X132700000Y-105600000D03*
X133900000Y-104300000D03*
X134400000Y-103000000D03*
%TO.N,/Indicator*%
X162000000Y-89900000D03*
X162000000Y-91700000D03*
%TO.N,+3.3V*%
X137300000Y-77800000D03*
X153300000Y-103600000D03*
%TO.N,/I2S_SD2*%
X167100000Y-100900000D03*
%TO.N,+3.3V*%
X131400000Y-87200000D03*
X132300000Y-90600000D03*
%TO.N,Net-(J6-D+-PadA6)*%
X137600000Y-113300000D03*
%TO.N,Net-(J6-D--PadA7)*%
X136985837Y-116816809D03*
%TO.N,/CC2_Line*%
X126700000Y-116400000D03*
%TO.N,/CC1_Line*%
X125200000Y-113400000D03*
D43*
%TO.N,*%
X121800000Y-96900000D03*
X121800000Y-96900000D03*
X148500000Y-118000000D03*
X148500000Y-118000000D03*
X167500000Y-97500000D03*
X167500000Y-97500000D03*
%TD*%
D44*
%TO.N,/UART_TXD*%
X157440000Y-80360000D02*
X157760000Y-80040000D01*
X157760000Y-80040000D02*
X159000000Y-80040000D01*
X153327500Y-80360000D02*
X157440000Y-80360000D01*
%TO.N,/UART_RXD*%
X159000000Y-82580000D02*
X158050000Y-81630000D01*
X158050000Y-81630000D02*
X153327500Y-81630000D01*
%TO.N,GND*%
X137150000Y-76550000D02*
X137200000Y-76500000D01*
X135827500Y-76550000D02*
X137150000Y-76550000D01*
%TO.N,Net-(J6-D--PadA7)*%
X137000000Y-118000000D02*
X137950000Y-118000000D01*
X136700000Y-117700000D02*
X137000000Y-118000000D01*
X136700000Y-117100000D02*
X136700000Y-117700000D01*
X137000000Y-116800000D02*
X136700000Y-117100000D01*
%TO.N,GND*%
X139287500Y-100800000D02*
X138000000Y-100800000D01*
X131562500Y-76437500D02*
X131440000Y-76560000D01*
X131440000Y-76560000D02*
X130300000Y-76560000D01*
X132800000Y-76437500D02*
X131562500Y-76437500D01*
X160300000Y-106800000D02*
X160300000Y-108275000D01*
X160440000Y-106660000D02*
X160300000Y-106800000D01*
X160440000Y-105500000D02*
X160440000Y-106660000D01*
X128000000Y-114000000D02*
X128525000Y-113475000D01*
X128000000Y-114300000D02*
X128000000Y-114000000D01*
X128525000Y-114825000D02*
X128000000Y-114300000D01*
X128525000Y-114825000D02*
X130000000Y-116300000D01*
X130000000Y-116300000D02*
X130700000Y-116300000D01*
X127200000Y-112150000D02*
X127200000Y-111700000D01*
X128525000Y-113475000D02*
X127200000Y-112150000D01*
X135000000Y-114000000D02*
X135000000Y-116200000D01*
X134475000Y-113475000D02*
X135000000Y-114000000D01*
X134475000Y-113325000D02*
X134475000Y-113475000D01*
X133300000Y-115999999D02*
X133300000Y-116000000D01*
X134460956Y-114839043D02*
X133300000Y-115999999D01*
D45*
X134475000Y-113475000D02*
X134475000Y-115078087D01*
%TO.N,+5V*%
X133625000Y-114825000D02*
X133625000Y-113475000D01*
%TO.N,GND*%
X134475000Y-114825000D02*
X134475000Y-113475000D01*
D44*
%TO.N,/BOOT0*%
X160300000Y-91300000D02*
X160300000Y-92162500D01*
X161441857Y-90158143D02*
X160300000Y-91300000D01*
X161760915Y-90477200D02*
X161441857Y-90158143D01*
X162239085Y-90477200D02*
X161760915Y-90477200D01*
X165449700Y-90189700D02*
X165360000Y-90100000D01*
X167500000Y-89840000D02*
X167150300Y-90189700D01*
X162616285Y-90100000D02*
X162239085Y-90477200D01*
X165360000Y-90100000D02*
X162616285Y-90100000D01*
X167500000Y-85480000D02*
X167500000Y-89840000D01*
X167150300Y-90189700D02*
X165449700Y-90189700D01*
%TO.N,/Indicator*%
X152500000Y-94000000D02*
X161400000Y-94000000D01*
X162000000Y-93400000D02*
X162000000Y-91700000D01*
X161400000Y-94000000D02*
X162000000Y-93400000D01*
X152300300Y-93800300D02*
X152500000Y-94000000D01*
X152300300Y-93000300D02*
X152300300Y-93800300D01*
X152100000Y-92800000D02*
X152300300Y-93000300D01*
X137218700Y-92218700D02*
X137800000Y-92800000D01*
X137800000Y-92800000D02*
X152100000Y-92800000D01*
X137218700Y-89239017D02*
X137218700Y-92218700D01*
X135827500Y-88522800D02*
X136854700Y-88522800D01*
X136854700Y-88522800D02*
X136854700Y-88896600D01*
X136854700Y-88896600D02*
X136876284Y-88896600D01*
X136876284Y-88896600D02*
X137218700Y-89239017D01*
X135827500Y-87980000D02*
X135827500Y-88522800D01*
%TO.N,/SD_DET*%
X136729900Y-89250000D02*
X135827500Y-89250000D01*
X136865300Y-89385400D02*
X136729900Y-89250000D01*
X136865300Y-95337200D02*
X136865300Y-89385400D01*
X136928100Y-95400000D02*
X136865300Y-95337200D01*
X141000000Y-95400000D02*
X136928100Y-95400000D01*
X144900000Y-99300000D02*
X141000000Y-95400000D01*
X146100000Y-100693886D02*
X144900000Y-99493885D01*
X146100000Y-101345898D02*
X146100000Y-100693886D01*
X144900000Y-99493885D02*
X144900000Y-99300000D01*
X145872800Y-101573098D02*
X146100000Y-101345898D01*
X145872800Y-102506902D02*
X145872800Y-101573098D01*
X146100000Y-102734102D02*
X145872800Y-102506902D01*
X146100000Y-103885898D02*
X146100000Y-102734102D01*
X145872800Y-105046902D02*
X145872800Y-104113098D01*
X146533098Y-105707200D02*
X145872800Y-105046902D01*
X147181302Y-105707200D02*
X146533098Y-105707200D01*
X151100000Y-118600000D02*
X151100000Y-109625898D01*
X145872800Y-104113098D02*
X146100000Y-103885898D01*
X151575000Y-119075000D02*
X151100000Y-118600000D01*
X151100000Y-109625898D02*
X147181302Y-105707200D01*
X152400000Y-119075000D02*
X151575000Y-119075000D01*
%TO.N,/I2S_SD1*%
X134925100Y-84170000D02*
X135827500Y-84170000D01*
X134800300Y-84294800D02*
X134925100Y-84170000D01*
X134709000Y-84294800D02*
X134800300Y-84294800D01*
X127646600Y-90053400D02*
X130823667Y-90053400D01*
X126127200Y-91572800D02*
X127646600Y-90053400D01*
X134709000Y-86168066D02*
X134709000Y-84294800D01*
X126127200Y-92346902D02*
X126127200Y-91572800D01*
X125466902Y-93007200D02*
X126127200Y-92346902D01*
X125000000Y-93007200D02*
X125466902Y-93007200D01*
X130823667Y-90053400D02*
X134709000Y-86168066D01*
X125000000Y-94420000D02*
X125000000Y-93007200D01*
%TO.N,/I2S_WS*%
X130677283Y-89700000D02*
X134355600Y-86021683D01*
X125000000Y-91000000D02*
X126300000Y-89700000D01*
X126300000Y-89700000D02*
X130677283Y-89700000D01*
X134355600Y-83155816D02*
X134611416Y-82900000D01*
X125000000Y-91880000D02*
X125000000Y-91000000D01*
X134355600Y-86021683D02*
X134355600Y-83155816D01*
X134611416Y-82900000D02*
X135827500Y-82900000D01*
%TO.N,/BOOT0*%
X167500000Y-85480000D02*
X167500000Y-77520000D01*
%TO.N,/Indicator*%
X162750000Y-89150000D02*
X163800000Y-89150000D01*
X162000000Y-89900000D02*
X162750000Y-89150000D01*
%TO.N,Net-(D2-K)*%
X166225000Y-92250000D02*
X166300000Y-92175000D01*
X163800000Y-92250000D02*
X166225000Y-92250000D01*
%TO.N,/BOOT0*%
X160225000Y-92087500D02*
X160300000Y-92162500D01*
X156800000Y-92087500D02*
X160225000Y-92087500D01*
X156800000Y-92800000D02*
X156800000Y-92087500D01*
X156540000Y-93060000D02*
X156800000Y-92800000D01*
X153327500Y-93060000D02*
X156540000Y-93060000D01*
%TO.N,+3.3V*%
X166300000Y-87800000D02*
X166300000Y-89200000D01*
X165800000Y-87300000D02*
X166300000Y-87800000D01*
X162100000Y-87300000D02*
X165800000Y-87300000D01*
X161700000Y-86900000D02*
X162100000Y-87300000D01*
X161700000Y-85800000D02*
X161700000Y-86900000D01*
X161020000Y-85120000D02*
X161700000Y-85800000D01*
X159000000Y-85120000D02*
X161020000Y-85120000D01*
X156800000Y-87320000D02*
X156800000Y-88987500D01*
X159000000Y-85120000D02*
X156800000Y-87320000D01*
X137280000Y-77820000D02*
X137300000Y-77800000D01*
D46*
X135827500Y-77820000D02*
X137280000Y-77820000D01*
D44*
%TO.N,/EN*%
X137410000Y-79090000D02*
X135827500Y-79090000D01*
X137900000Y-78600000D02*
X137410000Y-79090000D01*
X137900000Y-76000000D02*
X137900000Y-78600000D01*
X134622800Y-75577200D02*
X137477200Y-75577200D01*
X134400000Y-75800000D02*
X134622800Y-75577200D01*
X134400000Y-77100000D02*
X134400000Y-75800000D01*
X133646600Y-77853400D02*
X134400000Y-77100000D01*
X128583400Y-77853400D02*
X133646600Y-77853400D01*
X127250000Y-76520000D02*
X128583400Y-77853400D01*
X137477200Y-75577200D02*
X137900000Y-76000000D01*
%TO.N,+3.3V*%
X152900000Y-102900000D02*
X152675000Y-102675000D01*
X152900000Y-103200000D02*
X152900000Y-102900000D01*
X153300000Y-103600000D02*
X152900000Y-103200000D01*
X152675000Y-102675000D02*
X151300000Y-102675000D01*
%TO.N,/I2S_SD2*%
X146482500Y-94794400D02*
X146482500Y-94310000D01*
X147288100Y-95600000D02*
X146482500Y-94794400D01*
X149400000Y-95600000D02*
X147288100Y-95600000D01*
X150400000Y-96600000D02*
X149400000Y-95600000D01*
X150400000Y-97000000D02*
X150400000Y-96600000D01*
X154300000Y-100900000D02*
X150400000Y-97000000D01*
X167100000Y-100900000D02*
X154300000Y-100900000D01*
%TO.N,+3.3V*%
X154900000Y-105000000D02*
X155800000Y-105900000D01*
X153800000Y-105000000D02*
X154900000Y-105000000D01*
X153200000Y-104400000D02*
X153800000Y-105000000D01*
X155800000Y-105900000D02*
X157160000Y-105900000D01*
X157160000Y-105900000D02*
X157560000Y-105500000D01*
X151300000Y-103700000D02*
X152000000Y-104400000D01*
X151300000Y-102675000D02*
X151300000Y-103700000D01*
X152000000Y-104400000D02*
X153200000Y-104400000D01*
%TO.N,/SD_MISO*%
X145212500Y-95312500D02*
X145212500Y-94310000D01*
X145900000Y-96000000D02*
X145212500Y-95312500D01*
X146199568Y-96000000D02*
X145900000Y-96000000D01*
X151399784Y-101200216D02*
X146199568Y-96000000D01*
X152600216Y-101200216D02*
X151399784Y-101200216D01*
X155400000Y-104000000D02*
X152600216Y-101200216D01*
X158500000Y-104000000D02*
X155400000Y-104000000D01*
X158800000Y-104300000D02*
X158500000Y-104000000D01*
X160982500Y-104300000D02*
X158800000Y-104300000D01*
X161512200Y-104829700D02*
X160982500Y-104300000D01*
X161512200Y-108162800D02*
X161512200Y-104829700D01*
X161400000Y-108275000D02*
X161512200Y-108162800D01*
%TO.N,/SD_CLK*%
X143942500Y-95542500D02*
X143942500Y-94310000D01*
X144200000Y-95800000D02*
X143942500Y-95542500D01*
X144853400Y-95800000D02*
X144200000Y-95800000D01*
X146100000Y-97046600D02*
X144853400Y-95800000D01*
X146746383Y-97046600D02*
X146100000Y-97046600D01*
X155200000Y-104400000D02*
X152400000Y-101600000D01*
X158202500Y-104400000D02*
X155200000Y-104400000D01*
X159200000Y-105397500D02*
X158202500Y-104400000D01*
X151299784Y-101600000D02*
X146746383Y-97046600D01*
X159200000Y-108275000D02*
X159200000Y-105397500D01*
X152400000Y-101600000D02*
X151299784Y-101600000D01*
%TO.N,+3.3V*%
X158100000Y-107100000D02*
X158100000Y-108275000D01*
X157560000Y-106560000D02*
X158100000Y-107100000D01*
X157560000Y-105500000D02*
X157560000Y-106560000D01*
%TO.N,/SD_MOSI*%
X142672500Y-95272500D02*
X142672500Y-94310000D01*
X144800000Y-97400000D02*
X142672500Y-95272500D01*
X146600000Y-97400000D02*
X144800000Y-97400000D01*
X148500000Y-99300000D02*
X146600000Y-97400000D01*
X148500000Y-102400000D02*
X148500000Y-99300000D01*
X150947800Y-104847800D02*
X148500000Y-102400000D01*
X152150300Y-104847800D02*
X150947800Y-104847800D01*
X152452200Y-105149700D02*
X152150300Y-104847800D01*
X152521600Y-105421600D02*
X152452200Y-105352200D01*
X154071383Y-105421600D02*
X152521600Y-105421600D01*
X155349784Y-106700000D02*
X154071383Y-105421600D01*
X152452200Y-105352200D02*
X152452200Y-105149700D01*
X156527200Y-107122800D02*
X156104400Y-106700000D01*
X156527200Y-107802200D02*
X156527200Y-107122800D01*
X156104400Y-106700000D02*
X155349784Y-106700000D01*
X157000000Y-108275000D02*
X156527200Y-107802200D01*
%TO.N,/SD_CS*%
X141402500Y-95212400D02*
X141402500Y-94310000D01*
X145253400Y-99063300D02*
X141402500Y-95212400D01*
X145253400Y-99347502D02*
X145253400Y-99063300D01*
X147466902Y-100912800D02*
X146533098Y-100912800D01*
X148127200Y-101573098D02*
X147466902Y-100912800D01*
X146533098Y-100627200D02*
X145253400Y-99347502D01*
X148117051Y-102517051D02*
X148127200Y-102506902D01*
X148127200Y-102506902D02*
X148127200Y-101573098D01*
X151300000Y-105700000D02*
X148117051Y-102517051D01*
X146533098Y-100912800D02*
X146533098Y-100627200D01*
X151300000Y-105775000D02*
X151300000Y-105700000D01*
X155900000Y-107750000D02*
X153925000Y-105775000D01*
X153925000Y-105775000D02*
X151300000Y-105775000D01*
X155900000Y-108275000D02*
X155900000Y-107750000D01*
%TO.N,/USB_D+*%
X134853400Y-94034100D02*
X135827500Y-93060000D01*
X134853400Y-97553616D02*
X134853400Y-94034100D01*
X139946383Y-98746600D02*
X136046384Y-98746600D01*
X140799892Y-99600109D02*
X139946383Y-98746600D01*
X136046384Y-98746600D02*
X134853400Y-97553616D01*
X142653400Y-106053616D02*
X140799892Y-104200108D01*
X142653400Y-110546600D02*
X142653400Y-106053616D01*
X140950000Y-112250000D02*
X142653400Y-110546600D01*
X140799892Y-104200108D02*
X140799892Y-99600109D01*
X140950000Y-115600000D02*
X140950000Y-112250000D01*
%TO.N,/USB_D-*%
X134925100Y-91790000D02*
X135827500Y-91790000D01*
X134500000Y-92215100D02*
X134925100Y-91790000D01*
X134500000Y-97700000D02*
X134500000Y-92215100D01*
X135900000Y-99100000D02*
X134500000Y-97700000D01*
X139800000Y-99100000D02*
X135900000Y-99100000D01*
X140400000Y-99700000D02*
X139800000Y-99100000D01*
X140400000Y-104300000D02*
X140400000Y-99700000D01*
X139300000Y-113400000D02*
X142300000Y-110400000D01*
X139300000Y-117800000D02*
X139300000Y-113400000D01*
X142300000Y-106200000D02*
X140400000Y-104300000D01*
X142300000Y-110400000D02*
X142300000Y-106200000D01*
X139500000Y-118000000D02*
X139300000Y-117800000D01*
X140950000Y-118000000D02*
X139500000Y-118000000D01*
D45*
%TO.N,+3.3V*%
X131400000Y-83400000D02*
X130000000Y-82000000D01*
X131400000Y-87200000D02*
X131400000Y-83400000D01*
X132900000Y-91200000D02*
X132300000Y-90600000D01*
X132940000Y-91240000D02*
X132900000Y-91200000D01*
X132940000Y-97500000D02*
X132940000Y-91240000D01*
D44*
%TO.N,/I2S_SCK*%
X135270000Y-81630000D02*
X135827500Y-81630000D01*
X134000000Y-82900000D02*
X135270000Y-81630000D01*
X134000000Y-83300000D02*
X134000000Y-82900000D01*
X134002200Y-83302200D02*
X134000000Y-83300000D01*
X134002200Y-85875300D02*
X134002200Y-83302200D01*
X130537500Y-89340000D02*
X134002200Y-85875300D01*
X125000000Y-89340000D02*
X130537500Y-89340000D01*
D45*
%TO.N,+3.3V_Audio*%
X122000000Y-107662500D02*
X122000000Y-99960000D01*
X122000000Y-99960000D02*
X125000000Y-96960000D01*
X123337500Y-109000000D02*
X122000000Y-107662500D01*
X126377500Y-105940000D02*
X126500000Y-106062500D01*
X124000000Y-105940000D02*
X126377500Y-105940000D01*
X124000000Y-107300000D02*
X124000000Y-105940000D01*
X123337500Y-107962500D02*
X124000000Y-107300000D01*
X123337500Y-109000000D02*
X123337500Y-107962500D01*
D44*
%TO.N,/EN*%
X133100000Y-84962500D02*
X133062500Y-85000000D01*
X133100000Y-82000000D02*
X133100000Y-84962500D01*
X134300000Y-82000000D02*
X133100000Y-82000000D01*
X134700000Y-79300000D02*
X134700000Y-81600000D01*
X134910000Y-79090000D02*
X134700000Y-79300000D01*
X135827500Y-79090000D02*
X134910000Y-79090000D01*
X134700000Y-81600000D02*
X134300000Y-82000000D01*
X127250000Y-76520000D02*
X127250000Y-84480000D01*
%TO.N,+3.3V*%
X134300000Y-78000000D02*
X134480000Y-77820000D01*
X134480000Y-77820000D02*
X135827500Y-77820000D01*
X134037500Y-79562500D02*
X134300000Y-79300000D01*
X132800000Y-79562500D02*
X134037500Y-79562500D01*
X134300000Y-79300000D02*
X134300000Y-78000000D01*
X130300000Y-79440000D02*
X132677500Y-79440000D01*
X132677500Y-79440000D02*
X132800000Y-79562500D01*
X130000000Y-80600000D02*
X130000000Y-82000000D01*
X130300000Y-80300000D02*
X130000000Y-80600000D01*
X130300000Y-79440000D02*
X130300000Y-80300000D01*
%TO.N,Net-(J6-D+-PadA6)*%
X137600000Y-113300000D02*
X137850000Y-113550000D01*
X137850000Y-113550000D02*
X137850000Y-115600000D01*
%TO.N,Net-(J6-D--PadA7)*%
X131925000Y-113975000D02*
X131925000Y-113475000D01*
X131300000Y-114100000D02*
X131800000Y-114100000D01*
X131075000Y-114325000D02*
X131300000Y-114100000D01*
X131075000Y-114825000D02*
X131075000Y-114325000D01*
X131800000Y-114100000D02*
X131925000Y-113975000D01*
%TO.N,/CC2_Line*%
X126100000Y-117600000D02*
X126000000Y-117700000D01*
X126000000Y-117700000D02*
X125150000Y-117700000D01*
X126100000Y-117000000D02*
X126100000Y-117600000D01*
X126700000Y-116400000D02*
X126100000Y-117000000D01*
%TO.N,/CC1_Line*%
X125200000Y-113400000D02*
X125150000Y-113450000D01*
X125150000Y-113450000D02*
X125150000Y-115200000D01*
D45*
%TO.N,+5V*%
X133625000Y-112025000D02*
X133625000Y-112575000D01*
X133000000Y-111400000D02*
X133625000Y-112025000D01*
X129600000Y-111400000D02*
X133000000Y-111400000D01*
X129375000Y-111625000D02*
X129600000Y-111400000D01*
X129375000Y-113475000D02*
X129375000Y-111625000D01*
D44*
%TO.N,Net-(J6-D+-PadA6)*%
X131925000Y-114825000D02*
X131925000Y-114875000D01*
D45*
%TO.N,GND*%
X128525000Y-116125000D02*
X130400000Y-118000000D01*
X130400000Y-118000000D02*
X132400000Y-118000000D01*
X132400000Y-118000000D02*
X134475000Y-115925000D01*
X134475000Y-115925000D02*
X134475000Y-114825000D01*
X128525000Y-114825000D02*
X128525000Y-116125000D01*
%TO.N,Net-(D1-A)*%
X136250000Y-100862500D02*
X136312500Y-100800000D01*
X136250000Y-103400000D02*
X136250000Y-100862500D01*
%TO.N,+5V*%
X139000000Y-105000000D02*
X139000000Y-106120000D01*
X139350000Y-104650000D02*
X139000000Y-105000000D01*
X139350000Y-103400000D02*
X139350000Y-104650000D01*
%TO.N,+3.3V*%
X128800000Y-103800000D02*
X129750000Y-102850000D01*
X128800000Y-106600000D02*
X128800000Y-103800000D01*
X128000000Y-107400000D02*
X128800000Y-106600000D01*
X127200000Y-107400000D02*
X128000000Y-107400000D01*
X126662500Y-107937500D02*
X127200000Y-107400000D01*
X126662500Y-109000000D02*
X126662500Y-107937500D01*
X129750000Y-102850000D02*
X131500000Y-102850000D01*
X133062500Y-97622500D02*
X132940000Y-97500000D01*
X133062500Y-100000000D02*
X133062500Y-97622500D01*
X132000000Y-100000000D02*
X133062500Y-100000000D01*
X131500000Y-100500000D02*
X132000000Y-100000000D01*
X131500000Y-102850000D02*
X131500000Y-100500000D01*
X131500000Y-109150000D02*
X131500000Y-102850000D01*
%TO.N,GND*%
X129200000Y-109800000D02*
X129200000Y-109150000D01*
X130005000Y-110605000D02*
X129200000Y-109800000D01*
X136195000Y-110605000D02*
X130005000Y-110605000D01*
X136500000Y-109062500D02*
X136500000Y-110300000D01*
X136500000Y-110300000D02*
X136195000Y-110605000D01*
X136562500Y-109000000D02*
X136500000Y-109062500D01*
X139000000Y-109000000D02*
X136562500Y-109000000D01*
X128525000Y-109825000D02*
X129200000Y-109150000D01*
X128525000Y-113475000D02*
X128525000Y-109825000D01*
%TO.N,+5V*%
X129375000Y-114825000D02*
X129375000Y-113475000D01*
X133975000Y-112225000D02*
X133625000Y-112575000D01*
X133625000Y-112575000D02*
X133625000Y-113475000D01*
X141600000Y-106800000D02*
X140920000Y-106120000D01*
X140920000Y-106120000D02*
X139000000Y-106120000D01*
X141600000Y-110200000D02*
X141600000Y-106800000D01*
X140400000Y-111400000D02*
X141600000Y-110200000D01*
X133975000Y-112225000D02*
X134800000Y-111400000D01*
X134800000Y-111400000D02*
X140400000Y-111400000D01*
X138817500Y-105937500D02*
X139000000Y-106120000D01*
X136500000Y-105937500D02*
X138817500Y-105937500D01*
X134062500Y-105937500D02*
X136500000Y-105937500D01*
X133800000Y-106200000D02*
X134062500Y-105937500D01*
X133800000Y-109150000D02*
X133800000Y-106200000D01*
%TD*%
%TA.AperFunction,Conductor*%
%TO.N,GND*%
G36*
X136231639Y-94030184D02*
G01*
X136277394Y-94082988D01*
X136288600Y-94134499D01*
X136288600Y-95261276D01*
X136288600Y-95413124D01*
X136322955Y-95541341D01*
X136327902Y-95559800D01*
X136327902Y-95559801D01*
X136403822Y-95691298D01*
X136403824Y-95691300D01*
X136403825Y-95691302D01*
X136466625Y-95754102D01*
X136573998Y-95861475D01*
X136705502Y-95937399D01*
X136852176Y-95976700D01*
X140709761Y-95976700D01*
X140776800Y-95996385D01*
X140797442Y-96013019D01*
X144288846Y-99504423D01*
X144320382Y-99562177D01*
X144321197Y-99561959D01*
X144322096Y-99565317D01*
X144322331Y-99565746D01*
X144322553Y-99567022D01*
X144323300Y-99569809D01*
X144361397Y-99711991D01*
X144362602Y-99716485D01*
X144362602Y-99716486D01*
X144438522Y-99847983D01*
X144438527Y-99847989D01*
X145486981Y-100896443D01*
X145501684Y-100923370D01*
X145518277Y-100949189D01*
X145519168Y-100955389D01*
X145520466Y-100957766D01*
X145523300Y-100984124D01*
X145523300Y-101055659D01*
X145503615Y-101122698D01*
X145486981Y-101143340D01*
X145411327Y-101218993D01*
X145411322Y-101218999D01*
X145335402Y-101350496D01*
X145335402Y-101350497D01*
X145335401Y-101350499D01*
X145335401Y-101350500D01*
X145296100Y-101497174D01*
X145296100Y-102430978D01*
X145296100Y-102582826D01*
X145334193Y-102724992D01*
X145335402Y-102729502D01*
X145335402Y-102729503D01*
X145411322Y-102861000D01*
X145411327Y-102861006D01*
X145486981Y-102936660D01*
X145520466Y-102997983D01*
X145523300Y-103024341D01*
X145523300Y-103595659D01*
X145503615Y-103662698D01*
X145486981Y-103683340D01*
X145411327Y-103758993D01*
X145411322Y-103758999D01*
X145335402Y-103890496D01*
X145335402Y-103890497D01*
X145335401Y-103890499D01*
X145335401Y-103890500D01*
X145296100Y-104037174D01*
X145296100Y-104970978D01*
X145296100Y-105122826D01*
X145331694Y-105255666D01*
X145335402Y-105269502D01*
X145335402Y-105269503D01*
X145411322Y-105401000D01*
X145411327Y-105401006D01*
X146022530Y-106012209D01*
X146056015Y-106073532D01*
X146051031Y-106143224D01*
X146022532Y-106187570D01*
X145969892Y-106240211D01*
X145844951Y-106412179D01*
X145748444Y-106601585D01*
X145682753Y-106803760D01*
X145656452Y-106969821D01*
X145649500Y-107013713D01*
X145649500Y-107226287D01*
X145652493Y-107245183D01*
X145679468Y-107415500D01*
X145682754Y-107436243D01*
X145746483Y-107632381D01*
X145748444Y-107638414D01*
X145844951Y-107827820D01*
X145969890Y-107999786D01*
X146083818Y-108113714D01*
X146117303Y-108175037D01*
X146112319Y-108244729D01*
X146070447Y-108300662D01*
X146039471Y-108317577D01*
X145907912Y-108366646D01*
X145907906Y-108366649D01*
X145792812Y-108452809D01*
X145792809Y-108452812D01*
X145706649Y-108567906D01*
X145706645Y-108567913D01*
X145656403Y-108702620D01*
X145656401Y-108702627D01*
X145650000Y-108762155D01*
X145650000Y-109410000D01*
X146566988Y-109410000D01*
X146534075Y-109467007D01*
X146500000Y-109594174D01*
X146500000Y-109725826D01*
X146534075Y-109852993D01*
X146566988Y-109910000D01*
X145650000Y-109910000D01*
X145650000Y-110557844D01*
X145656401Y-110617372D01*
X145656403Y-110617379D01*
X145706645Y-110752086D01*
X145706649Y-110752093D01*
X145792809Y-110867187D01*
X145792812Y-110867190D01*
X145907906Y-110953350D01*
X145907913Y-110953354D01*
X146042620Y-111003596D01*
X146042627Y-111003598D01*
X146102155Y-111009999D01*
X146102172Y-111010000D01*
X146750000Y-111010000D01*
X146750000Y-110093012D01*
X146807007Y-110125925D01*
X146934174Y-110160000D01*
X147065826Y-110160000D01*
X147192993Y-110125925D01*
X147250000Y-110093012D01*
X147250000Y-111010000D01*
X147897828Y-111010000D01*
X147897844Y-111009999D01*
X147957372Y-111003598D01*
X147957379Y-111003596D01*
X148092086Y-110953354D01*
X148092093Y-110953350D01*
X148207187Y-110867190D01*
X148207190Y-110867187D01*
X148293350Y-110752093D01*
X148293354Y-110752086D01*
X148343596Y-110617379D01*
X148343598Y-110617372D01*
X148349999Y-110557844D01*
X148350000Y-110557827D01*
X148350000Y-109910000D01*
X147433012Y-109910000D01*
X147465925Y-109852993D01*
X147500000Y-109725826D01*
X147500000Y-109594174D01*
X147465925Y-109467007D01*
X147433012Y-109410000D01*
X148350000Y-109410000D01*
X148350000Y-108762172D01*
X148349999Y-108762155D01*
X148343598Y-108702627D01*
X148343596Y-108702620D01*
X148293354Y-108567913D01*
X148293350Y-108567906D01*
X148207190Y-108452812D01*
X148207187Y-108452809D01*
X148092093Y-108366649D01*
X148092088Y-108366646D01*
X147960528Y-108317577D01*
X147904595Y-108275705D01*
X147880178Y-108210241D01*
X147895030Y-108141968D01*
X147916175Y-108113720D01*
X148030104Y-107999792D01*
X148050380Y-107971885D01*
X148100696Y-107902630D01*
X148155051Y-107827816D01*
X148189391Y-107760418D01*
X148237365Y-107709623D01*
X148305185Y-107692827D01*
X148371321Y-107715364D01*
X148387557Y-107729032D01*
X150486981Y-109828456D01*
X150520466Y-109889779D01*
X150523300Y-109916137D01*
X150523300Y-116574672D01*
X150503615Y-116641711D01*
X150450811Y-116687466D01*
X150381653Y-116697410D01*
X150318097Y-116668385D01*
X150300924Y-116650158D01*
X150195647Y-116512959D01*
X150195641Y-116512952D01*
X149987047Y-116304358D01*
X149987040Y-116304352D01*
X149752993Y-116124761D01*
X149497510Y-115977258D01*
X149497500Y-115977254D01*
X149224961Y-115864364D01*
X149224954Y-115864362D01*
X149224952Y-115864361D01*
X148939993Y-115788007D01*
X148865586Y-115778211D01*
X148647513Y-115749500D01*
X148647506Y-115749500D01*
X148352494Y-115749500D01*
X148352486Y-115749500D01*
X148074085Y-115786153D01*
X148060007Y-115788007D01*
X147856187Y-115842620D01*
X147775048Y-115864361D01*
X147775038Y-115864364D01*
X147502499Y-115977254D01*
X147502489Y-115977258D01*
X147247006Y-116124761D01*
X147012959Y-116304352D01*
X147012952Y-116304358D01*
X146804358Y-116512952D01*
X146804352Y-116512959D01*
X146624761Y-116747006D01*
X146477258Y-117002489D01*
X146477254Y-117002499D01*
X146364364Y-117275038D01*
X146364361Y-117275048D01*
X146288008Y-117560004D01*
X146288006Y-117560015D01*
X146249500Y-117852486D01*
X146249500Y-118147513D01*
X146273338Y-118328571D01*
X146288007Y-118439993D01*
X146364361Y-118724951D01*
X146364364Y-118724961D01*
X146477254Y-118997500D01*
X146477258Y-118997510D01*
X146624761Y-119252993D01*
X146804352Y-119487040D01*
X146804358Y-119487047D01*
X147012952Y-119695641D01*
X147012959Y-119695647D01*
X147247006Y-119875238D01*
X147502489Y-120022741D01*
X147502490Y-120022741D01*
X147502493Y-120022743D01*
X147775048Y-120135639D01*
X148060007Y-120211993D01*
X148352494Y-120250500D01*
X148352501Y-120250500D01*
X148647499Y-120250500D01*
X148647506Y-120250500D01*
X148939993Y-120211993D01*
X149224952Y-120135639D01*
X149497507Y-120022743D01*
X149752994Y-119875238D01*
X149987042Y-119695646D01*
X150195646Y-119487042D01*
X150375238Y-119252994D01*
X150500211Y-119036532D01*
X150550775Y-118988320D01*
X150619382Y-118975096D01*
X150684247Y-119001064D01*
X150695277Y-119010854D01*
X151113525Y-119429102D01*
X151220898Y-119536475D01*
X151337500Y-119603795D01*
X151385716Y-119654362D01*
X151399500Y-119711181D01*
X151399500Y-119897869D01*
X151399501Y-119897876D01*
X151405908Y-119957483D01*
X151456202Y-120092328D01*
X151456206Y-120092335D01*
X151542452Y-120207544D01*
X151542455Y-120207547D01*
X151634208Y-120276234D01*
X151676079Y-120332168D01*
X151681063Y-120401859D01*
X151647577Y-120463182D01*
X151586254Y-120496666D01*
X151559897Y-120499500D01*
X120124500Y-120499500D01*
X120057461Y-120479815D01*
X120011706Y-120427011D01*
X120000500Y-120375500D01*
X120000500Y-118374986D01*
X120900001Y-118374986D01*
X120910494Y-118477697D01*
X120965641Y-118644119D01*
X120965643Y-118644124D01*
X121057684Y-118793345D01*
X121181654Y-118917315D01*
X121330875Y-119009356D01*
X121330880Y-119009358D01*
X121497302Y-119064505D01*
X121497309Y-119064506D01*
X121600019Y-119074999D01*
X121799999Y-119074999D01*
X122300000Y-119074999D01*
X122499972Y-119074999D01*
X122499986Y-119074998D01*
X122602697Y-119064505D01*
X122769119Y-119009358D01*
X122769124Y-119009356D01*
X122918345Y-118917315D01*
X123042315Y-118793345D01*
X123134356Y-118644124D01*
X123134358Y-118644119D01*
X123189505Y-118477697D01*
X123189506Y-118477690D01*
X123199999Y-118374986D01*
X123200000Y-118374973D01*
X123200000Y-117950000D01*
X122300000Y-117950000D01*
X122300000Y-119074999D01*
X121799999Y-119074999D01*
X121800000Y-119074998D01*
X121800000Y-117950000D01*
X120900001Y-117950000D01*
X120900001Y-118374986D01*
X120000500Y-118374986D01*
X120000500Y-117025013D01*
X120900000Y-117025013D01*
X120900000Y-117450000D01*
X121800000Y-117450000D01*
X122300000Y-117450000D01*
X123199999Y-117450000D01*
X123199999Y-117025028D01*
X123199998Y-117025013D01*
X123189505Y-116922302D01*
X123134358Y-116755880D01*
X123134356Y-116755875D01*
X123042315Y-116606654D01*
X122973342Y-116537681D01*
X122939857Y-116476358D01*
X122944841Y-116406666D01*
X122973342Y-116362319D01*
X123042315Y-116293345D01*
X123134356Y-116144124D01*
X123134358Y-116144119D01*
X123189505Y-115977697D01*
X123189506Y-115977690D01*
X123199999Y-115874986D01*
X123200000Y-115874973D01*
X123200000Y-115450000D01*
X122300000Y-115450000D01*
X122300000Y-117450000D01*
X121800000Y-117450000D01*
X121800000Y-115450000D01*
X120900001Y-115450000D01*
X120900001Y-115874986D01*
X120910494Y-115977697D01*
X120965641Y-116144119D01*
X120965643Y-116144124D01*
X121057684Y-116293345D01*
X121126658Y-116362319D01*
X121160143Y-116423642D01*
X121155159Y-116493334D01*
X121126658Y-116537681D01*
X121057684Y-116606654D01*
X120965643Y-116755875D01*
X120965641Y-116755880D01*
X120910494Y-116922302D01*
X120910493Y-116922309D01*
X120900000Y-117025013D01*
X120000500Y-117025013D01*
X120000500Y-114525013D01*
X120900000Y-114525013D01*
X120900000Y-114950000D01*
X121800000Y-114950000D01*
X122300000Y-114950000D01*
X123199999Y-114950000D01*
X123199999Y-114525028D01*
X123199998Y-114525013D01*
X123189505Y-114422302D01*
X123134358Y-114255880D01*
X123134356Y-114255875D01*
X123042315Y-114106654D01*
X122918345Y-113982684D01*
X122769124Y-113890643D01*
X122769119Y-113890641D01*
X122602697Y-113835494D01*
X122602690Y-113835493D01*
X122499986Y-113825000D01*
X122300000Y-113825000D01*
X122300000Y-114950000D01*
X121800000Y-114950000D01*
X121800000Y-113825000D01*
X121600029Y-113825000D01*
X121600012Y-113825001D01*
X121497302Y-113835494D01*
X121330880Y-113890641D01*
X121330875Y-113890643D01*
X121181654Y-113982684D01*
X121057684Y-114106654D01*
X120965643Y-114255875D01*
X120965641Y-114255880D01*
X120910494Y-114422302D01*
X120910493Y-114422309D01*
X120900000Y-114525013D01*
X120000500Y-114525013D01*
X120000500Y-98582551D01*
X120020185Y-98515512D01*
X120072989Y-98469757D01*
X120142147Y-98459813D01*
X120205703Y-98488838D01*
X120212181Y-98494870D01*
X120312952Y-98595641D01*
X120312959Y-98595647D01*
X120547006Y-98775238D01*
X120802489Y-98922741D01*
X120802490Y-98922741D01*
X120802493Y-98922743D01*
X120957737Y-98987047D01*
X121063558Y-99030880D01*
X121075048Y-99035639D01*
X121360007Y-99111993D01*
X121482710Y-99128147D01*
X121546607Y-99156413D01*
X121585078Y-99214738D01*
X121585909Y-99284603D01*
X121554207Y-99338767D01*
X121413941Y-99479033D01*
X121331372Y-99602607D01*
X121331366Y-99602618D01*
X121274496Y-99739916D01*
X121274493Y-99739926D01*
X121245499Y-99885685D01*
X121245499Y-100040425D01*
X121245500Y-100040446D01*
X121245500Y-107583052D01*
X121245499Y-107583078D01*
X121245499Y-107588188D01*
X121245499Y-107736812D01*
X121245499Y-107736814D01*
X121245498Y-107736814D01*
X121274493Y-107882573D01*
X121274496Y-107882583D01*
X121331366Y-108019881D01*
X121331372Y-108019892D01*
X121413942Y-108143468D01*
X121413943Y-108143469D01*
X122188181Y-108917705D01*
X122221666Y-108979028D01*
X122224500Y-109005386D01*
X122224500Y-109750001D01*
X122224501Y-109750019D01*
X122235000Y-109852796D01*
X122235001Y-109852799D01*
X122288201Y-110013343D01*
X122290186Y-110019334D01*
X122382288Y-110168656D01*
X122506344Y-110292712D01*
X122655666Y-110384814D01*
X122822203Y-110439999D01*
X122924991Y-110450500D01*
X123750008Y-110450499D01*
X123750016Y-110450498D01*
X123750019Y-110450498D01*
X123806302Y-110444748D01*
X123852797Y-110439999D01*
X124019334Y-110384814D01*
X124168656Y-110292712D01*
X124292712Y-110168656D01*
X124384814Y-110019334D01*
X124439999Y-109852797D01*
X124450500Y-109750009D01*
X124450499Y-108249992D01*
X124449422Y-108239453D01*
X124439999Y-108147203D01*
X124439998Y-108147200D01*
X124409256Y-108054426D01*
X124408720Y-108038859D01*
X124403278Y-108024268D01*
X124407544Y-108004657D01*
X124406854Y-107984598D01*
X124415024Y-107970272D01*
X124418130Y-107955995D01*
X124439278Y-107927744D01*
X124480963Y-107886060D01*
X124480966Y-107886059D01*
X124586059Y-107780966D01*
X124668629Y-107657390D01*
X124725505Y-107520080D01*
X124754500Y-107374312D01*
X124754500Y-107245086D01*
X124774185Y-107178047D01*
X124813402Y-107139548D01*
X124913656Y-107077712D01*
X125037712Y-106953656D01*
X125045043Y-106941769D01*
X125096986Y-106895044D01*
X125165948Y-106883819D01*
X125230032Y-106911659D01*
X125256117Y-106941759D01*
X125257284Y-106943651D01*
X125257288Y-106943656D01*
X125381344Y-107067712D01*
X125530666Y-107159814D01*
X125697203Y-107214999D01*
X125799991Y-107225500D01*
X126008113Y-107225499D01*
X126075151Y-107245183D01*
X126120906Y-107297987D01*
X126130850Y-107367145D01*
X126109477Y-107420922D01*
X126103332Y-107429642D01*
X126076441Y-107456534D01*
X125993870Y-107580111D01*
X125988961Y-107591960D01*
X125981033Y-107603213D01*
X125964019Y-107616730D01*
X125950382Y-107633651D01*
X125944765Y-107637328D01*
X125831347Y-107707285D01*
X125831343Y-107707288D01*
X125707289Y-107831342D01*
X125615187Y-107980663D01*
X125615185Y-107980668D01*
X125602191Y-108019881D01*
X125560001Y-108147203D01*
X125560001Y-108147204D01*
X125560000Y-108147204D01*
X125549500Y-108249983D01*
X125549500Y-109750001D01*
X125549501Y-109750018D01*
X125560000Y-109852796D01*
X125560001Y-109852799D01*
X125613201Y-110013343D01*
X125615186Y-110019334D01*
X125707288Y-110168656D01*
X125831344Y-110292712D01*
X125980666Y-110384814D01*
X126147203Y-110439999D01*
X126249991Y-110450500D01*
X127075008Y-110450499D01*
X127075016Y-110450498D01*
X127075019Y-110450498D01*
X127131302Y-110444748D01*
X127177797Y-110439999D01*
X127344334Y-110384814D01*
X127493656Y-110292712D01*
X127617712Y-110168656D01*
X127709814Y-110019334D01*
X127731815Y-109952936D01*
X127771587Y-109895492D01*
X127836103Y-109868669D01*
X127904879Y-109880984D01*
X127956079Y-109928526D01*
X127969856Y-109962014D01*
X127998831Y-110078523D01*
X128083390Y-110249022D01*
X128083392Y-110249025D01*
X128202632Y-110397366D01*
X128202633Y-110397367D01*
X128350974Y-110516607D01*
X128350977Y-110516609D01*
X128521476Y-110601168D01*
X128706175Y-110647102D01*
X128748903Y-110650000D01*
X128983612Y-110650000D01*
X129050651Y-110669685D01*
X129096406Y-110722489D01*
X129106350Y-110791647D01*
X129077325Y-110855203D01*
X129071293Y-110861681D01*
X128788943Y-111144030D01*
X128788942Y-111144031D01*
X128706372Y-111267607D01*
X128706366Y-111267618D01*
X128649496Y-111404916D01*
X128649493Y-111404926D01*
X128620499Y-111550685D01*
X128620499Y-111705425D01*
X128620500Y-111705446D01*
X128620500Y-112526000D01*
X128600815Y-112593039D01*
X128548011Y-112638794D01*
X128496500Y-112650000D01*
X128443740Y-112650000D01*
X128284363Y-112681701D01*
X128284354Y-112681704D01*
X128143571Y-112740018D01*
X128543737Y-113140183D01*
X128577222Y-113201506D01*
X128577673Y-113252055D01*
X128572475Y-113278186D01*
X128564782Y-113275000D01*
X128485218Y-113275000D01*
X128411709Y-113305448D01*
X128355448Y-113361709D01*
X128325000Y-113435218D01*
X128325000Y-113514782D01*
X128355448Y-113588291D01*
X128411709Y-113644552D01*
X128485218Y-113675000D01*
X128564782Y-113675000D01*
X128572475Y-113671813D01*
X128577673Y-113697944D01*
X128571446Y-113767535D01*
X128543737Y-113809816D01*
X128203554Y-114149999D01*
X128203554Y-114150000D01*
X128543737Y-114490183D01*
X128546946Y-114496060D01*
X128552455Y-114499869D01*
X128563480Y-114526339D01*
X128577222Y-114551506D01*
X128577376Y-114559704D01*
X128579319Y-114564368D01*
X128578023Y-114594033D01*
X128578129Y-114599642D01*
X128577907Y-114600886D01*
X128572476Y-114628187D01*
X128564782Y-114625000D01*
X128485218Y-114625000D01*
X128411709Y-114655448D01*
X128355448Y-114711709D01*
X128325000Y-114785218D01*
X128325000Y-114864782D01*
X128355448Y-114938291D01*
X128363979Y-114946822D01*
X128304889Y-114942597D01*
X128260542Y-114914096D01*
X127760617Y-114414171D01*
X127727132Y-114352848D01*
X127732116Y-114283156D01*
X127760617Y-114238809D01*
X127849426Y-114150000D01*
X127760617Y-114061191D01*
X127727132Y-113999868D01*
X127732116Y-113930176D01*
X127760617Y-113885829D01*
X128171446Y-113475000D01*
X127760616Y-113064170D01*
X127727131Y-113002847D01*
X127728335Y-112986008D01*
X127727440Y-112986097D01*
X127721691Y-112927733D01*
X127624991Y-112863119D01*
X127452103Y-112791507D01*
X127452100Y-112791506D01*
X127425000Y-112786115D01*
X127425000Y-113538011D01*
X127415060Y-113520795D01*
X127359205Y-113464940D01*
X127290796Y-113425444D01*
X127214496Y-113405000D01*
X127135504Y-113405000D01*
X127059204Y-113425444D01*
X126990795Y-113464940D01*
X126934940Y-113520795D01*
X126925000Y-113538011D01*
X126925000Y-112786116D01*
X126924999Y-112786115D01*
X126897899Y-112791506D01*
X126897896Y-112791507D01*
X126725008Y-112863119D01*
X126724999Y-112863124D01*
X126569410Y-112967086D01*
X126569406Y-112967089D01*
X126437089Y-113099406D01*
X126437086Y-113099410D01*
X126333124Y-113254999D01*
X126333119Y-113255008D01*
X126261508Y-113427894D01*
X126261506Y-113427900D01*
X126246296Y-113504365D01*
X126225000Y-113620473D01*
X126225000Y-113889318D01*
X126222477Y-113897908D01*
X126223766Y-113906768D01*
X126212786Y-113930911D01*
X126205315Y-113956357D01*
X126198549Y-113962219D01*
X126194843Y-113970370D01*
X126172551Y-113984746D01*
X126152511Y-114002112D01*
X126143650Y-114003385D01*
X126136126Y-114008239D01*
X126109603Y-114008281D01*
X126083353Y-114012056D01*
X126073364Y-114008339D01*
X126066256Y-114008351D01*
X126047828Y-113998838D01*
X126034128Y-113993741D01*
X126022951Y-113986583D01*
X126018656Y-113982288D01*
X125953173Y-113941898D01*
X125952272Y-113941321D01*
X125930003Y-113915705D01*
X125907322Y-113890488D01*
X125907146Y-113889412D01*
X125906433Y-113888591D01*
X125901551Y-113855025D01*
X125896101Y-113821526D01*
X125896498Y-113820275D01*
X125896378Y-113819448D01*
X125897650Y-113816650D01*
X125907685Y-113785065D01*
X125907063Y-113784808D01*
X125965158Y-113644552D01*
X125969737Y-113633497D01*
X125976142Y-113601293D01*
X125979201Y-113585920D01*
X125979204Y-113585901D01*
X126000500Y-113478842D01*
X126000500Y-113321158D01*
X126000500Y-113321155D01*
X126000499Y-113321153D01*
X125993868Y-113287816D01*
X125969737Y-113166503D01*
X125944917Y-113106581D01*
X125909397Y-113020827D01*
X125909390Y-113020814D01*
X125821789Y-112889711D01*
X125821786Y-112889707D01*
X125710292Y-112778213D01*
X125710288Y-112778210D01*
X125579185Y-112690609D01*
X125579172Y-112690602D01*
X125433501Y-112630264D01*
X125433489Y-112630261D01*
X125278845Y-112599500D01*
X125278842Y-112599500D01*
X125121158Y-112599500D01*
X125121155Y-112599500D01*
X124966510Y-112630261D01*
X124966498Y-112630264D01*
X124820827Y-112690602D01*
X124820814Y-112690609D01*
X124689711Y-112778210D01*
X124689707Y-112778213D01*
X124578213Y-112889707D01*
X124578210Y-112889711D01*
X124490609Y-113020814D01*
X124490602Y-113020827D01*
X124430264Y-113166498D01*
X124430261Y-113166510D01*
X124399500Y-113321153D01*
X124399500Y-113478846D01*
X124430261Y-113633489D01*
X124430264Y-113633501D01*
X124474622Y-113740592D01*
X124482091Y-113810062D01*
X124450815Y-113872540D01*
X124425158Y-113893583D01*
X124281342Y-113982289D01*
X124157289Y-114106342D01*
X124065187Y-114255663D01*
X124065185Y-114255668D01*
X124054035Y-114289318D01*
X124010001Y-114422203D01*
X124010001Y-114422204D01*
X124010000Y-114422204D01*
X123999500Y-114524983D01*
X123999500Y-115875001D01*
X123999501Y-115875018D01*
X124010000Y-115977796D01*
X124010001Y-115977799D01*
X124058409Y-116123882D01*
X124065186Y-116144334D01*
X124157096Y-116293345D01*
X124157289Y-116293657D01*
X124225951Y-116362319D01*
X124259436Y-116423642D01*
X124254452Y-116493334D01*
X124225951Y-116537681D01*
X124157289Y-116606342D01*
X124065187Y-116755663D01*
X124065185Y-116755668D01*
X124050495Y-116800000D01*
X124010001Y-116922203D01*
X124010001Y-116922204D01*
X124010000Y-116922204D01*
X123999500Y-117024983D01*
X123999500Y-118375001D01*
X123999501Y-118375018D01*
X124010000Y-118477796D01*
X124010001Y-118477799D01*
X124065185Y-118644331D01*
X124065187Y-118644336D01*
X124084106Y-118675008D01*
X124157288Y-118793656D01*
X124281344Y-118917712D01*
X124430666Y-119009814D01*
X124597203Y-119064999D01*
X124699991Y-119075500D01*
X125600008Y-119075499D01*
X125600016Y-119075498D01*
X125600019Y-119075498D01*
X125656302Y-119069748D01*
X125702797Y-119064999D01*
X125869334Y-119009814D01*
X126018656Y-118917712D01*
X126142712Y-118793656D01*
X126167594Y-118753314D01*
X126219541Y-118706590D01*
X126288504Y-118695367D01*
X126352586Y-118723210D01*
X126376235Y-118749520D01*
X126437086Y-118840589D01*
X126437089Y-118840593D01*
X126569406Y-118972910D01*
X126569410Y-118972913D01*
X126724999Y-119076875D01*
X126725012Y-119076882D01*
X126897889Y-119148489D01*
X126897896Y-119148491D01*
X126925000Y-119153882D01*
X126925000Y-118401988D01*
X126934940Y-118419205D01*
X126990795Y-118475060D01*
X127059204Y-118514556D01*
X127135504Y-118535000D01*
X127214496Y-118535000D01*
X127290796Y-118514556D01*
X127359205Y-118475060D01*
X127415060Y-118419205D01*
X127425000Y-118401988D01*
X127425000Y-119153881D01*
X127452103Y-119148491D01*
X127452110Y-119148489D01*
X127624987Y-119076882D01*
X127625000Y-119076875D01*
X127780589Y-118972913D01*
X127780593Y-118972910D01*
X127912910Y-118840593D01*
X127912913Y-118840589D01*
X128016875Y-118685000D01*
X128016880Y-118684991D01*
X128088491Y-118512105D01*
X128088493Y-118512097D01*
X128124999Y-118328571D01*
X128125000Y-118328569D01*
X128125000Y-118085000D01*
X127475000Y-118085000D01*
X127475000Y-117585000D01*
X128125000Y-117585000D01*
X128125000Y-117341430D01*
X128124999Y-117341428D01*
X128088493Y-117157902D01*
X128088491Y-117157894D01*
X128016880Y-116985008D01*
X128016875Y-116984999D01*
X127912913Y-116829410D01*
X127912910Y-116829406D01*
X127780593Y-116697089D01*
X127780589Y-116697086D01*
X127625000Y-116593124D01*
X127624994Y-116593121D01*
X127577046Y-116573260D01*
X127522643Y-116529418D01*
X127500579Y-116463124D01*
X127500500Y-116458699D01*
X127500500Y-116321155D01*
X127479425Y-116215208D01*
X127485652Y-116145616D01*
X127528515Y-116090439D01*
X127553591Y-116076454D01*
X127624993Y-116046879D01*
X127625000Y-116046875D01*
X127780589Y-115942913D01*
X127780593Y-115942910D01*
X127912910Y-115810593D01*
X127912913Y-115810589D01*
X128016875Y-115655000D01*
X128016877Y-115654995D01*
X128021570Y-115643667D01*
X128065410Y-115589262D01*
X128131703Y-115567195D01*
X128183586Y-115576555D01*
X128284355Y-115618295D01*
X128284363Y-115618297D01*
X128443740Y-115649999D01*
X128443744Y-115650000D01*
X128606256Y-115650000D01*
X128606259Y-115649999D01*
X128765636Y-115618297D01*
X128765644Y-115618295D01*
X128901895Y-115561859D01*
X128971365Y-115554390D01*
X128996800Y-115561858D01*
X129134211Y-115618776D01*
X129134215Y-115618776D01*
X129134216Y-115618777D01*
X129293692Y-115650500D01*
X129293695Y-115650500D01*
X129456307Y-115650500D01*
X129563598Y-115629157D01*
X129615789Y-115618776D01*
X129752547Y-115562128D01*
X129822017Y-115554660D01*
X129847452Y-115562128D01*
X129984211Y-115618776D01*
X129984215Y-115618776D01*
X129984216Y-115618777D01*
X130143692Y-115650500D01*
X130143695Y-115650500D01*
X130306307Y-115650500D01*
X130413598Y-115629157D01*
X130465789Y-115618776D01*
X130602547Y-115562128D01*
X130672017Y-115554660D01*
X130697452Y-115562128D01*
X130834211Y-115618776D01*
X130834215Y-115618776D01*
X130834216Y-115618777D01*
X130993692Y-115650500D01*
X130993695Y-115650500D01*
X131156307Y-115650500D01*
X131263598Y-115629157D01*
X131315789Y-115618776D01*
X131452547Y-115562128D01*
X131522017Y-115554660D01*
X131547452Y-115562128D01*
X131684211Y-115618776D01*
X131684215Y-115618776D01*
X131684216Y-115618777D01*
X131843692Y-115650500D01*
X131843695Y-115650500D01*
X132006307Y-115650500D01*
X132113598Y-115629157D01*
X132165789Y-115618776D01*
X132302547Y-115562128D01*
X132372017Y-115554660D01*
X132397452Y-115562128D01*
X132534211Y-115618776D01*
X132534215Y-115618776D01*
X132534216Y-115618777D01*
X132693692Y-115650500D01*
X132693695Y-115650500D01*
X132856307Y-115650500D01*
X132963598Y-115629157D01*
X133015789Y-115618776D01*
X133152547Y-115562128D01*
X133222017Y-115554660D01*
X133247452Y-115562128D01*
X133384211Y-115618776D01*
X133384215Y-115618776D01*
X133384216Y-115618777D01*
X133543692Y-115650500D01*
X133543695Y-115650500D01*
X133706307Y-115650500D01*
X133813598Y-115629157D01*
X133865789Y-115618776D01*
X134003199Y-115561858D01*
X134072669Y-115554390D01*
X134098105Y-115561859D01*
X134234355Y-115618295D01*
X134234363Y-115618297D01*
X134393740Y-115649999D01*
X134393744Y-115650000D01*
X134556256Y-115650000D01*
X134556259Y-115649999D01*
X134715636Y-115618297D01*
X134715640Y-115618296D01*
X134816412Y-115576555D01*
X134885882Y-115569086D01*
X134948361Y-115600360D01*
X134978426Y-115643661D01*
X134983118Y-115654988D01*
X134983124Y-115655000D01*
X135087086Y-115810589D01*
X135087089Y-115810593D01*
X135219406Y-115942910D01*
X135219410Y-115942913D01*
X135374999Y-116046875D01*
X135375012Y-116046882D01*
X135547889Y-116118489D01*
X135547896Y-116118491D01*
X135575000Y-116123882D01*
X135575000Y-115371988D01*
X135584940Y-115389205D01*
X135640795Y-115445060D01*
X135709204Y-115484556D01*
X135785504Y-115505000D01*
X135864496Y-115505000D01*
X135940796Y-115484556D01*
X136009205Y-115445060D01*
X136065060Y-115389205D01*
X136075000Y-115371988D01*
X136075000Y-116123881D01*
X136102103Y-116118491D01*
X136102110Y-116118489D01*
X136274987Y-116046882D01*
X136274998Y-116046876D01*
X136279020Y-116044189D01*
X136345696Y-116023306D01*
X136413078Y-116041786D01*
X136459771Y-116093762D01*
X136470952Y-116162731D01*
X136443071Y-116226797D01*
X136435600Y-116234967D01*
X136364047Y-116306520D01*
X136276446Y-116437623D01*
X136276438Y-116437637D01*
X136268706Y-116456305D01*
X136224863Y-116510707D01*
X136158568Y-116532769D01*
X136106694Y-116523409D01*
X136102103Y-116521507D01*
X136102100Y-116521506D01*
X136075000Y-116516115D01*
X136075000Y-117268011D01*
X136065060Y-117250795D01*
X136009205Y-117194940D01*
X135940796Y-117155444D01*
X135864496Y-117135000D01*
X135785504Y-117135000D01*
X135709204Y-117155444D01*
X135640795Y-117194940D01*
X135584940Y-117250795D01*
X135575000Y-117268011D01*
X135575000Y-116516116D01*
X135574999Y-116516115D01*
X135547899Y-116521506D01*
X135547896Y-116521507D01*
X135375008Y-116593119D01*
X135374999Y-116593124D01*
X135219410Y-116697086D01*
X135219406Y-116697089D01*
X135087089Y-116829406D01*
X135087086Y-116829410D01*
X134983124Y-116984999D01*
X134983119Y-116985008D01*
X134911508Y-117157894D01*
X134911506Y-117157902D01*
X134875000Y-117341428D01*
X134875000Y-117585000D01*
X135525000Y-117585000D01*
X135525000Y-118085000D01*
X134875000Y-118085000D01*
X134875000Y-118328571D01*
X134911506Y-118512097D01*
X134911508Y-118512105D01*
X134983119Y-118684991D01*
X134983124Y-118685000D01*
X135087086Y-118840589D01*
X135087089Y-118840593D01*
X135219406Y-118972910D01*
X135219410Y-118972913D01*
X135374999Y-119076875D01*
X135375012Y-119076882D01*
X135547889Y-119148489D01*
X135547896Y-119148491D01*
X135575000Y-119153882D01*
X135575000Y-118401988D01*
X135584940Y-118419205D01*
X135640795Y-118475060D01*
X135709204Y-118514556D01*
X135785504Y-118535000D01*
X135864496Y-118535000D01*
X135940796Y-118514556D01*
X136009205Y-118475060D01*
X136065060Y-118419205D01*
X136075000Y-118401988D01*
X136075000Y-119153881D01*
X136102103Y-119148491D01*
X136102110Y-119148489D01*
X136274987Y-119076882D01*
X136275000Y-119076875D01*
X136430588Y-118972914D01*
X136546867Y-118856635D01*
X136608190Y-118823150D01*
X136677882Y-118828134D01*
X136733816Y-118870005D01*
X136752254Y-118905310D01*
X136765183Y-118944327D01*
X136765187Y-118944336D01*
X136782814Y-118972914D01*
X136857288Y-119093656D01*
X136981344Y-119217712D01*
X137130666Y-119309814D01*
X137297203Y-119364999D01*
X137399991Y-119375500D01*
X138300008Y-119375499D01*
X138300016Y-119375498D01*
X138300019Y-119375498D01*
X138356302Y-119369748D01*
X138402797Y-119364999D01*
X138569334Y-119309814D01*
X138718656Y-119217712D01*
X138842712Y-119093656D01*
X138934814Y-118944334D01*
X138989999Y-118777797D01*
X139000500Y-118675009D01*
X139000499Y-118592301D01*
X139020183Y-118525265D01*
X139072986Y-118479509D01*
X139142145Y-118469565D01*
X139186497Y-118484915D01*
X139277402Y-118537399D01*
X139424076Y-118576700D01*
X139677480Y-118576700D01*
X139744519Y-118596385D01*
X139790274Y-118649189D01*
X139800838Y-118688099D01*
X139810000Y-118777796D01*
X139810001Y-118777799D01*
X139865185Y-118944331D01*
X139865187Y-118944336D01*
X139882814Y-118972914D01*
X139957288Y-119093656D01*
X140081344Y-119217712D01*
X140230666Y-119309814D01*
X140397203Y-119364999D01*
X140499991Y-119375500D01*
X141400008Y-119375499D01*
X141400016Y-119375498D01*
X141400019Y-119375498D01*
X141456302Y-119369748D01*
X141502797Y-119364999D01*
X141669334Y-119309814D01*
X141818656Y-119217712D01*
X141942712Y-119093656D01*
X142034814Y-118944334D01*
X142089999Y-118777797D01*
X142100500Y-118675009D01*
X142100499Y-117324992D01*
X142092838Y-117250000D01*
X142089999Y-117222203D01*
X142089998Y-117222200D01*
X142072613Y-117169737D01*
X142034814Y-117055666D01*
X141942712Y-116906344D01*
X141924049Y-116887681D01*
X141890564Y-116826358D01*
X141895548Y-116756666D01*
X141924049Y-116712319D01*
X141942712Y-116693656D01*
X142034814Y-116544334D01*
X142089999Y-116377797D01*
X142100500Y-116275009D01*
X142100499Y-114924992D01*
X142097211Y-114892809D01*
X142089999Y-114822203D01*
X142089998Y-114822200D01*
X142084844Y-114806645D01*
X142034814Y-114655666D01*
X141942712Y-114506344D01*
X141818656Y-114382288D01*
X141669334Y-114290186D01*
X141611695Y-114271086D01*
X141554250Y-114231312D01*
X141527428Y-114166796D01*
X141526700Y-114153380D01*
X141526700Y-112540239D01*
X141546385Y-112473200D01*
X141563019Y-112452558D01*
X142316265Y-111699312D01*
X143114875Y-110900702D01*
X143190799Y-110769198D01*
X143230100Y-110622524D01*
X143230100Y-110470676D01*
X143230100Y-105977692D01*
X143190799Y-105831018D01*
X143114875Y-105699514D01*
X143007502Y-105592141D01*
X141412911Y-103997550D01*
X141379426Y-103936227D01*
X141376592Y-103909869D01*
X141376592Y-99524187D01*
X141376592Y-99524185D01*
X141337291Y-99377511D01*
X141326470Y-99358769D01*
X141261369Y-99246010D01*
X141261364Y-99246004D01*
X140300487Y-98285127D01*
X140300481Y-98285122D01*
X140168983Y-98209202D01*
X140168982Y-98209201D01*
X140168981Y-98209201D01*
X140022307Y-98169900D01*
X140022306Y-98169900D01*
X136336623Y-98169900D01*
X136269584Y-98150215D01*
X136248942Y-98133581D01*
X135466419Y-97351058D01*
X135432934Y-97289735D01*
X135430100Y-97263377D01*
X135430100Y-94324338D01*
X135449785Y-94257299D01*
X135466415Y-94236661D01*
X135656258Y-94046817D01*
X135717581Y-94013333D01*
X135743939Y-94010499D01*
X136164600Y-94010499D01*
X136231639Y-94030184D01*
G37*
%TD.AperFunction*%
%TA.AperFunction,Conductor*%
G36*
X152238479Y-75520185D02*
G01*
X152284234Y-75572989D01*
X152294178Y-75642147D01*
X152265153Y-75705703D01*
X152245752Y-75723766D01*
X152220309Y-75742812D01*
X152134149Y-75857906D01*
X152134145Y-75857913D01*
X152083903Y-75992620D01*
X152083901Y-75992627D01*
X152077500Y-76052155D01*
X152077500Y-76300000D01*
X154577500Y-76300000D01*
X154577500Y-76052172D01*
X154577499Y-76052155D01*
X154571098Y-75992627D01*
X154571096Y-75992620D01*
X154520854Y-75857913D01*
X154520850Y-75857906D01*
X154434690Y-75742812D01*
X154409248Y-75723766D01*
X154367378Y-75667832D01*
X154362394Y-75598140D01*
X154395880Y-75536818D01*
X154457203Y-75503333D01*
X154483560Y-75500500D01*
X169375500Y-75500500D01*
X169442539Y-75520185D01*
X169488294Y-75572989D01*
X169499500Y-75624500D01*
X169499500Y-96043655D01*
X169479815Y-96110694D01*
X169427011Y-96156449D01*
X169357853Y-96166393D01*
X169294297Y-96137368D01*
X169277124Y-96119142D01*
X169247249Y-96080208D01*
X169195646Y-96012958D01*
X169195644Y-96012956D01*
X169195641Y-96012952D01*
X168987047Y-95804358D01*
X168987040Y-95804352D01*
X168752993Y-95624761D01*
X168497510Y-95477258D01*
X168497500Y-95477254D01*
X168224961Y-95364364D01*
X168224954Y-95364362D01*
X168224952Y-95364361D01*
X167939993Y-95288007D01*
X167891113Y-95281571D01*
X167647513Y-95249500D01*
X167647506Y-95249500D01*
X167352494Y-95249500D01*
X167352486Y-95249500D01*
X167074085Y-95286153D01*
X167060007Y-95288007D01*
X167006549Y-95302331D01*
X166775048Y-95364361D01*
X166775038Y-95364364D01*
X166502499Y-95477254D01*
X166502489Y-95477258D01*
X166247006Y-95624761D01*
X166012959Y-95804352D01*
X166012952Y-95804358D01*
X165804358Y-96012952D01*
X165804352Y-96012959D01*
X165624761Y-96247006D01*
X165477258Y-96502489D01*
X165477254Y-96502499D01*
X165364364Y-96775038D01*
X165364361Y-96775048D01*
X165302739Y-97005028D01*
X165288008Y-97060004D01*
X165288006Y-97060015D01*
X165249500Y-97352486D01*
X165249500Y-97647513D01*
X165274814Y-97839784D01*
X165288007Y-97939993D01*
X165359456Y-98206646D01*
X165364361Y-98224951D01*
X165364364Y-98224961D01*
X165477254Y-98497500D01*
X165477258Y-98497510D01*
X165624761Y-98752993D01*
X165804352Y-98987040D01*
X165804358Y-98987047D01*
X166012952Y-99195641D01*
X166012959Y-99195647D01*
X166247006Y-99375238D01*
X166502489Y-99522741D01*
X166502490Y-99522741D01*
X166502493Y-99522743D01*
X166694020Y-99602076D01*
X166740418Y-99621295D01*
X166775048Y-99635639D01*
X167060007Y-99711993D01*
X167338415Y-99748646D01*
X167349341Y-99750085D01*
X167352494Y-99750500D01*
X167352501Y-99750500D01*
X167647499Y-99750500D01*
X167647506Y-99750500D01*
X167939993Y-99711993D01*
X168224952Y-99635639D01*
X168497507Y-99522743D01*
X168752994Y-99375238D01*
X168987042Y-99195646D01*
X169195646Y-98987042D01*
X169277124Y-98880857D01*
X169333552Y-98839655D01*
X169403298Y-98835500D01*
X169464218Y-98869712D01*
X169496971Y-98931429D01*
X169499500Y-98956344D01*
X169499500Y-104421773D01*
X169479815Y-104488812D01*
X169427011Y-104534567D01*
X169357853Y-104544511D01*
X169294297Y-104515486D01*
X169257570Y-104460094D01*
X169251557Y-104441588D01*
X169155051Y-104252184D01*
X169155049Y-104252181D01*
X169155048Y-104252179D01*
X169030109Y-104080213D01*
X168879786Y-103929890D01*
X168707820Y-103804951D01*
X168518414Y-103708444D01*
X168518413Y-103708443D01*
X168518412Y-103708443D01*
X168316243Y-103642754D01*
X168316241Y-103642753D01*
X168316240Y-103642753D01*
X168154957Y-103617208D01*
X168106287Y-103609500D01*
X167893713Y-103609500D01*
X167845042Y-103617208D01*
X167683760Y-103642753D01*
X167481585Y-103708444D01*
X167292179Y-103804951D01*
X167120213Y-103929890D01*
X166969890Y-104080213D01*
X166844951Y-104252179D01*
X166748444Y-104441585D01*
X166682753Y-104643760D01*
X166653214Y-104830263D01*
X166649500Y-104853713D01*
X166649500Y-105066287D01*
X166656319Y-105109343D01*
X166677362Y-105242203D01*
X166682754Y-105276243D01*
X166734075Y-105434193D01*
X166748444Y-105478414D01*
X166844951Y-105667820D01*
X166969890Y-105839786D01*
X167120213Y-105990109D01*
X167292182Y-106115050D01*
X167300946Y-106119516D01*
X167351742Y-106167491D01*
X167368536Y-106235312D01*
X167345998Y-106301447D01*
X167300946Y-106340484D01*
X167292182Y-106344949D01*
X167120213Y-106469890D01*
X166969890Y-106620213D01*
X166844951Y-106792179D01*
X166748444Y-106981585D01*
X166748443Y-106981587D01*
X166748443Y-106981588D01*
X166738005Y-107013713D01*
X166682753Y-107183760D01*
X166657875Y-107340836D01*
X166649500Y-107393713D01*
X166649500Y-107606287D01*
X166656424Y-107650000D01*
X166677550Y-107783390D01*
X166682754Y-107816243D01*
X166742390Y-107999784D01*
X166748444Y-108018414D01*
X166844951Y-108207820D01*
X166969890Y-108379786D01*
X167120213Y-108530109D01*
X167292182Y-108655050D01*
X167300946Y-108659516D01*
X167351742Y-108707491D01*
X167368536Y-108775312D01*
X167345998Y-108841447D01*
X167300946Y-108880484D01*
X167292182Y-108884949D01*
X167120213Y-109009890D01*
X166969890Y-109160213D01*
X166844951Y-109332179D01*
X166748444Y-109521585D01*
X166682753Y-109723760D01*
X166649500Y-109933713D01*
X166649500Y-110146286D01*
X166673053Y-110294998D01*
X166682754Y-110356243D01*
X166748258Y-110557844D01*
X166748444Y-110558414D01*
X166844951Y-110747820D01*
X166969890Y-110919786D01*
X167120213Y-111070109D01*
X167292182Y-111195050D01*
X167300946Y-111199516D01*
X167351742Y-111247491D01*
X167368536Y-111315312D01*
X167345998Y-111381447D01*
X167300946Y-111420484D01*
X167292182Y-111424949D01*
X167120213Y-111549890D01*
X166969890Y-111700213D01*
X166844951Y-111872179D01*
X166748444Y-112061585D01*
X166682753Y-112263760D01*
X166662935Y-112388886D01*
X166649500Y-112473713D01*
X166649500Y-112686287D01*
X166657670Y-112737871D01*
X166681718Y-112889707D01*
X166682754Y-112896243D01*
X166738077Y-113066510D01*
X166748444Y-113098414D01*
X166844951Y-113287820D01*
X166969890Y-113459786D01*
X167083818Y-113573714D01*
X167117303Y-113635037D01*
X167112319Y-113704729D01*
X167070447Y-113760662D01*
X167039471Y-113777577D01*
X166907912Y-113826646D01*
X166907906Y-113826649D01*
X166792812Y-113912809D01*
X166792809Y-113912812D01*
X166706649Y-114027906D01*
X166706645Y-114027913D01*
X166656403Y-114162620D01*
X166656401Y-114162627D01*
X166650000Y-114222155D01*
X166650000Y-114870000D01*
X167566988Y-114870000D01*
X167534075Y-114927007D01*
X167500000Y-115054174D01*
X167500000Y-115185826D01*
X167534075Y-115312993D01*
X167566988Y-115370000D01*
X166650000Y-115370000D01*
X166650000Y-116017844D01*
X166656401Y-116077372D01*
X166656403Y-116077379D01*
X166706645Y-116212086D01*
X166706649Y-116212093D01*
X166792809Y-116327187D01*
X166792812Y-116327190D01*
X166907906Y-116413350D01*
X166907913Y-116413354D01*
X167042620Y-116463596D01*
X167042627Y-116463598D01*
X167102155Y-116469999D01*
X167102172Y-116470000D01*
X167750000Y-116470000D01*
X167750000Y-115553012D01*
X167807007Y-115585925D01*
X167934174Y-115620000D01*
X168065826Y-115620000D01*
X168192993Y-115585925D01*
X168250000Y-115553012D01*
X168250000Y-116470000D01*
X168897828Y-116470000D01*
X168897844Y-116469999D01*
X168957372Y-116463598D01*
X168957379Y-116463596D01*
X169092086Y-116413354D01*
X169092093Y-116413350D01*
X169207187Y-116327190D01*
X169207190Y-116327187D01*
X169276234Y-116234958D01*
X169332168Y-116193087D01*
X169401859Y-116188103D01*
X169463182Y-116221589D01*
X169496666Y-116282912D01*
X169499500Y-116309269D01*
X169499500Y-120375500D01*
X169479815Y-120442539D01*
X169427011Y-120488294D01*
X169375500Y-120499500D01*
X153240103Y-120499500D01*
X153173064Y-120479815D01*
X153127309Y-120427011D01*
X153117365Y-120357853D01*
X153146390Y-120294297D01*
X153165792Y-120276234D01*
X153225240Y-120231730D01*
X153257546Y-120207546D01*
X153343796Y-120092331D01*
X153394091Y-119957483D01*
X153400500Y-119897873D01*
X153400500Y-119350000D01*
X157450000Y-119350000D01*
X159950000Y-119350000D01*
X159950000Y-118047844D01*
X162400000Y-118047844D01*
X162406401Y-118107372D01*
X162406403Y-118107379D01*
X162456645Y-118242086D01*
X162456649Y-118242093D01*
X162542809Y-118357187D01*
X162542812Y-118357190D01*
X162657906Y-118443350D01*
X162657913Y-118443354D01*
X162792620Y-118493596D01*
X162792627Y-118493598D01*
X162852155Y-118499999D01*
X162852172Y-118500000D01*
X163375000Y-118500000D01*
X163875000Y-118500000D01*
X164397828Y-118500000D01*
X164397844Y-118499999D01*
X164457372Y-118493598D01*
X164457379Y-118493596D01*
X164592086Y-118443354D01*
X164592093Y-118443350D01*
X164707187Y-118357190D01*
X164707190Y-118357187D01*
X164793350Y-118242093D01*
X164793354Y-118242086D01*
X164843596Y-118107379D01*
X164843598Y-118107372D01*
X164849999Y-118047844D01*
X164850000Y-118047827D01*
X164850000Y-117750000D01*
X163875000Y-117750000D01*
X163875000Y-118500000D01*
X163375000Y-118500000D01*
X163375000Y-117750000D01*
X162400000Y-117750000D01*
X162400000Y-118047844D01*
X159950000Y-118047844D01*
X159950000Y-117500000D01*
X157450000Y-117500000D01*
X157450000Y-119350000D01*
X153400500Y-119350000D01*
X153400499Y-118252128D01*
X153394091Y-118192517D01*
X153343796Y-118057669D01*
X153343795Y-118057668D01*
X153343793Y-118057664D01*
X153257547Y-117942455D01*
X153257544Y-117942452D01*
X153142335Y-117856206D01*
X153142328Y-117856202D01*
X153007482Y-117805908D01*
X153007483Y-117805908D01*
X152947883Y-117799501D01*
X152947881Y-117799500D01*
X152947873Y-117799500D01*
X152947865Y-117799500D01*
X152935808Y-117799500D01*
X152868769Y-117779815D01*
X152823014Y-117727011D01*
X152813070Y-117657853D01*
X152819431Y-117632694D01*
X152897597Y-117420180D01*
X152899999Y-117397844D01*
X152900000Y-117397827D01*
X152900000Y-116952155D01*
X162400000Y-116952155D01*
X162400000Y-117250000D01*
X164850000Y-117250000D01*
X164850000Y-116952172D01*
X164849999Y-116952158D01*
X164843128Y-116888257D01*
X164843128Y-116861743D01*
X164849999Y-116797841D01*
X164850000Y-116797827D01*
X164850000Y-116250000D01*
X163050000Y-116250000D01*
X163050000Y-116376000D01*
X163030315Y-116443039D01*
X162977511Y-116488794D01*
X162926000Y-116500000D01*
X162852155Y-116500000D01*
X162792627Y-116506401D01*
X162792620Y-116506403D01*
X162657913Y-116556645D01*
X162657906Y-116556649D01*
X162542812Y-116642809D01*
X162542809Y-116642812D01*
X162456649Y-116757906D01*
X162456645Y-116757913D01*
X162406403Y-116892620D01*
X162406401Y-116892627D01*
X162400000Y-116952155D01*
X152900000Y-116952155D01*
X152900000Y-116900000D01*
X152124000Y-116900000D01*
X152056961Y-116880315D01*
X152011206Y-116827511D01*
X152000000Y-116776000D01*
X152000000Y-116650000D01*
X151874000Y-116650000D01*
X151806961Y-116630315D01*
X151761206Y-116577511D01*
X151750000Y-116526000D01*
X151750000Y-116400000D01*
X152250000Y-116400000D01*
X152900000Y-116400000D01*
X152900000Y-115902172D01*
X152899999Y-115902155D01*
X152893598Y-115842627D01*
X152893596Y-115842620D01*
X152843354Y-115707913D01*
X152843350Y-115707906D01*
X152757190Y-115592812D01*
X152757187Y-115592809D01*
X152642093Y-115506649D01*
X152642086Y-115506645D01*
X152507379Y-115456403D01*
X152507372Y-115456401D01*
X152447844Y-115450000D01*
X152250000Y-115450000D01*
X152250000Y-116400000D01*
X151750000Y-116400000D01*
X151750000Y-115450330D01*
X151713417Y-115414078D01*
X151702583Y-115394450D01*
X151687906Y-115377511D01*
X151684439Y-115361575D01*
X151679655Y-115352907D01*
X151680337Y-115342719D01*
X151676700Y-115326000D01*
X151676700Y-115150000D01*
X154400000Y-115150000D01*
X162926000Y-115150000D01*
X162993039Y-115169685D01*
X163038794Y-115222489D01*
X163050000Y-115274000D01*
X163050000Y-115750000D01*
X163700000Y-115750000D01*
X164200000Y-115750000D01*
X164850000Y-115750000D01*
X164850000Y-115202172D01*
X164849999Y-115202155D01*
X164843598Y-115142627D01*
X164843596Y-115142620D01*
X164793354Y-115007913D01*
X164793350Y-115007906D01*
X164707190Y-114892812D01*
X164707187Y-114892809D01*
X164592093Y-114806649D01*
X164592086Y-114806645D01*
X164457379Y-114756403D01*
X164457372Y-114756401D01*
X164397844Y-114750000D01*
X164200000Y-114750000D01*
X164200000Y-115750000D01*
X163700000Y-115750000D01*
X163700000Y-114750000D01*
X163502155Y-114750000D01*
X163442627Y-114756401D01*
X163442620Y-114756403D01*
X163307913Y-114806645D01*
X163307906Y-114806649D01*
X163192812Y-114892809D01*
X163123266Y-114985710D01*
X163067332Y-115027580D01*
X162997640Y-115032564D01*
X162936318Y-114999078D01*
X162902833Y-114937754D01*
X162900000Y-114911398D01*
X162900000Y-113150000D01*
X154400000Y-113150000D01*
X154400000Y-115150000D01*
X151676700Y-115150000D01*
X151676700Y-109774000D01*
X151696385Y-109706961D01*
X151749189Y-109661206D01*
X151800700Y-109650000D01*
X152100000Y-109650000D01*
X152600000Y-109650000D01*
X153147828Y-109650000D01*
X153147844Y-109649999D01*
X153207372Y-109643598D01*
X153207379Y-109643596D01*
X153342086Y-109593354D01*
X153342093Y-109593350D01*
X153457187Y-109507190D01*
X153457190Y-109507187D01*
X153543350Y-109392093D01*
X153543354Y-109392086D01*
X153593596Y-109257379D01*
X153593598Y-109257372D01*
X153599999Y-109197844D01*
X153600000Y-109197827D01*
X153600000Y-108650000D01*
X152600000Y-108650000D01*
X152600000Y-109650000D01*
X152100000Y-109650000D01*
X152100000Y-108650000D01*
X151093748Y-108650000D01*
X151046195Y-108675965D01*
X150976503Y-108670979D01*
X150932158Y-108642479D01*
X147977468Y-105687789D01*
X147943983Y-105626466D01*
X147948967Y-105556774D01*
X147977467Y-105512427D01*
X148030104Y-105459792D01*
X148030107Y-105459787D01*
X148030109Y-105459786D01*
X148155048Y-105287820D01*
X148155047Y-105287820D01*
X148155051Y-105287816D01*
X148251557Y-105098412D01*
X148317246Y-104896243D01*
X148350500Y-104686287D01*
X148350500Y-104473713D01*
X148317246Y-104263757D01*
X148251557Y-104061588D01*
X148155051Y-103872184D01*
X148155049Y-103872181D01*
X148155048Y-103872179D01*
X148030109Y-103700213D01*
X147879786Y-103549890D01*
X147707820Y-103424951D01*
X147707115Y-103424591D01*
X147699054Y-103420485D01*
X147648259Y-103372512D01*
X147631463Y-103304692D01*
X147653999Y-103238556D01*
X147699054Y-103199515D01*
X147707816Y-103195051D01*
X147779478Y-103142984D01*
X147845284Y-103119505D01*
X147913338Y-103135330D01*
X147940045Y-103155622D01*
X149899974Y-105115551D01*
X149933459Y-105176874D01*
X149935651Y-105215834D01*
X149924500Y-105324981D01*
X149924500Y-106225001D01*
X149924501Y-106225019D01*
X149935000Y-106327796D01*
X149935001Y-106327799D01*
X149982086Y-106469890D01*
X149990186Y-106494334D01*
X150082288Y-106643656D01*
X150206344Y-106767712D01*
X150355666Y-106859814D01*
X150522203Y-106914999D01*
X150624991Y-106925500D01*
X151424412Y-106925499D01*
X151491450Y-106945183D01*
X151537205Y-106997987D01*
X151547149Y-107067146D01*
X151518124Y-107130702D01*
X151467745Y-107165681D01*
X151357911Y-107206646D01*
X151357906Y-107206649D01*
X151242812Y-107292809D01*
X151242809Y-107292812D01*
X151156649Y-107407906D01*
X151156645Y-107407913D01*
X151106403Y-107542620D01*
X151106401Y-107542627D01*
X151100000Y-107602155D01*
X151100000Y-108150000D01*
X152100000Y-108150000D01*
X152600000Y-108150000D01*
X153600000Y-108150000D01*
X153600000Y-107602172D01*
X153599999Y-107602155D01*
X153593598Y-107542627D01*
X153593596Y-107542620D01*
X153543354Y-107407913D01*
X153543350Y-107407906D01*
X153457190Y-107292812D01*
X153457187Y-107292809D01*
X153342093Y-107206649D01*
X153342086Y-107206645D01*
X153207379Y-107156403D01*
X153207372Y-107156401D01*
X153147844Y-107150000D01*
X152600000Y-107150000D01*
X152600000Y-108150000D01*
X152100000Y-108150000D01*
X152100000Y-107156630D01*
X152057545Y-107121169D01*
X152042253Y-107098296D01*
X152024242Y-107077511D01*
X152023114Y-107069671D01*
X152018711Y-107063085D01*
X152018212Y-107035577D01*
X152014298Y-107008353D01*
X152017588Y-107001147D01*
X152017445Y-106993227D01*
X152031894Y-106969821D01*
X152043323Y-106944797D01*
X152050160Y-106940235D01*
X152054149Y-106933774D01*
X152074312Y-106924120D01*
X152098032Y-106908294D01*
X152138017Y-106895044D01*
X152244334Y-106859814D01*
X152393656Y-106767712D01*
X152517712Y-106643656D01*
X152609814Y-106494334D01*
X152628913Y-106436695D01*
X152668686Y-106379251D01*
X152733202Y-106352428D01*
X152746619Y-106351700D01*
X153634761Y-106351700D01*
X153701800Y-106371385D01*
X153722442Y-106388019D01*
X154153922Y-106819499D01*
X154187407Y-106880822D01*
X154182423Y-106950514D01*
X154140554Y-107006445D01*
X154092454Y-107042453D01*
X154092452Y-107042455D01*
X154006206Y-107157664D01*
X154006202Y-107157671D01*
X153955908Y-107292517D01*
X153949501Y-107352116D01*
X153949500Y-107352135D01*
X153949500Y-109197870D01*
X153949501Y-109197876D01*
X153955908Y-109257483D01*
X154006202Y-109392328D01*
X154006206Y-109392335D01*
X154092452Y-109507544D01*
X154092455Y-109507547D01*
X154207664Y-109593793D01*
X154207671Y-109593797D01*
X154342517Y-109644091D01*
X154342516Y-109644091D01*
X154349444Y-109644835D01*
X154402127Y-109650500D01*
X155197872Y-109650499D01*
X155257483Y-109644091D01*
X155306665Y-109625746D01*
X155376355Y-109620761D01*
X155393333Y-109625747D01*
X155442508Y-109644088D01*
X155442511Y-109644088D01*
X155442517Y-109644091D01*
X155502127Y-109650500D01*
X156297872Y-109650499D01*
X156357483Y-109644091D01*
X156406665Y-109625746D01*
X156476355Y-109620761D01*
X156493333Y-109625747D01*
X156542508Y-109644088D01*
X156542511Y-109644088D01*
X156542517Y-109644091D01*
X156602127Y-109650500D01*
X157397872Y-109650499D01*
X157457483Y-109644091D01*
X157506665Y-109625746D01*
X157576355Y-109620761D01*
X157593333Y-109625747D01*
X157642508Y-109644088D01*
X157642511Y-109644088D01*
X157642517Y-109644091D01*
X157702127Y-109650500D01*
X158497872Y-109650499D01*
X158557483Y-109644091D01*
X158606665Y-109625746D01*
X158676355Y-109620761D01*
X158693333Y-109625747D01*
X158742508Y-109644088D01*
X158742511Y-109644088D01*
X158742517Y-109644091D01*
X158802127Y-109650500D01*
X159597872Y-109650499D01*
X159657483Y-109644091D01*
X159707382Y-109625479D01*
X159777069Y-109620494D01*
X159794048Y-109625479D01*
X159842628Y-109643598D01*
X159842627Y-109643598D01*
X159902155Y-109649999D01*
X159902172Y-109650000D01*
X160050000Y-109650000D01*
X160050000Y-109209167D01*
X160050427Y-109201188D01*
X160050322Y-109201183D01*
X160050497Y-109197898D01*
X160050500Y-109197873D01*
X160050499Y-107352128D01*
X160050498Y-107352116D01*
X160050321Y-107348804D01*
X160050426Y-107348798D01*
X160050000Y-107340836D01*
X160050000Y-106894446D01*
X160023195Y-106845357D01*
X160028179Y-106775665D01*
X160070051Y-106719732D01*
X160135515Y-106695315D01*
X160144361Y-106694999D01*
X160189999Y-106694999D01*
X160190000Y-106694998D01*
X160190000Y-105624000D01*
X160209685Y-105556961D01*
X160262489Y-105511206D01*
X160314000Y-105500000D01*
X160566000Y-105500000D01*
X160633039Y-105519685D01*
X160678794Y-105572489D01*
X160690000Y-105624000D01*
X160690000Y-106700552D01*
X160716805Y-106749642D01*
X160711821Y-106819334D01*
X160669949Y-106875267D01*
X160604485Y-106899684D01*
X160595639Y-106900000D01*
X160550000Y-106900000D01*
X160550000Y-107340826D01*
X160549572Y-107348798D01*
X160549678Y-107348804D01*
X160549501Y-107352116D01*
X160549500Y-107352127D01*
X160549501Y-109197872D01*
X160549501Y-109197880D01*
X160549679Y-109201180D01*
X160549572Y-109201185D01*
X160550000Y-109209156D01*
X160550000Y-109650000D01*
X160697828Y-109650000D01*
X160697844Y-109649999D01*
X160757372Y-109643598D01*
X160757375Y-109643597D01*
X160805949Y-109625480D01*
X160875640Y-109620494D01*
X160892610Y-109625477D01*
X160942517Y-109644091D01*
X161002127Y-109650500D01*
X161797872Y-109650499D01*
X161857483Y-109644091D01*
X161906665Y-109625746D01*
X161976355Y-109620761D01*
X161993333Y-109625747D01*
X162042508Y-109644088D01*
X162042511Y-109644088D01*
X162042517Y-109644091D01*
X162102127Y-109650500D01*
X162897872Y-109650499D01*
X162906711Y-109649548D01*
X162939094Y-109646068D01*
X162965606Y-109646068D01*
X163002166Y-109649999D01*
X163002182Y-109650000D01*
X163450000Y-109650000D01*
X163950000Y-109650000D01*
X164397828Y-109650000D01*
X164397844Y-109649999D01*
X164457372Y-109643598D01*
X164457379Y-109643596D01*
X164592086Y-109593354D01*
X164592093Y-109593350D01*
X164707187Y-109507190D01*
X164707190Y-109507187D01*
X164793350Y-109392093D01*
X164793354Y-109392086D01*
X164843596Y-109257379D01*
X164843598Y-109257372D01*
X164849999Y-109197844D01*
X164850000Y-109197827D01*
X164850000Y-108650000D01*
X163950000Y-108650000D01*
X163950000Y-109650000D01*
X163450000Y-109650000D01*
X163450000Y-108150000D01*
X163950000Y-108150000D01*
X164850000Y-108150000D01*
X164850000Y-107602172D01*
X164849999Y-107602155D01*
X164843598Y-107542627D01*
X164843596Y-107542620D01*
X164793354Y-107407913D01*
X164793350Y-107407906D01*
X164707190Y-107292812D01*
X164707187Y-107292809D01*
X164592093Y-107206649D01*
X164592086Y-107206645D01*
X164457379Y-107156403D01*
X164457372Y-107156401D01*
X164397844Y-107150000D01*
X163950000Y-107150000D01*
X163950000Y-108150000D01*
X163450000Y-108150000D01*
X163450000Y-107188769D01*
X163311855Y-107143947D01*
X163298546Y-107134854D01*
X163283085Y-107130315D01*
X163258783Y-107107690D01*
X163254163Y-107104534D01*
X163253363Y-107102644D01*
X163250859Y-107100313D01*
X163207546Y-107042454D01*
X163161993Y-107008353D01*
X163092335Y-106956206D01*
X163092328Y-106956202D01*
X162957482Y-106905908D01*
X162957483Y-106905908D01*
X162897883Y-106899501D01*
X162897881Y-106899500D01*
X162897873Y-106899500D01*
X162897865Y-106899500D01*
X162212900Y-106899500D01*
X162145861Y-106879815D01*
X162100106Y-106827011D01*
X162088900Y-106775500D01*
X162088900Y-104753778D01*
X162088900Y-104753776D01*
X162049599Y-104607102D01*
X162048169Y-104604626D01*
X161973677Y-104475601D01*
X161973672Y-104475595D01*
X161336604Y-103838527D01*
X161336598Y-103838522D01*
X161205100Y-103762602D01*
X161205099Y-103762601D01*
X161205098Y-103762601D01*
X161058424Y-103723300D01*
X161058423Y-103723300D01*
X159090239Y-103723300D01*
X159023200Y-103703615D01*
X159002558Y-103686981D01*
X158854104Y-103538527D01*
X158854098Y-103538522D01*
X158722600Y-103462602D01*
X158722599Y-103462601D01*
X158722598Y-103462601D01*
X158575924Y-103423300D01*
X158575923Y-103423300D01*
X155690239Y-103423300D01*
X155623200Y-103403615D01*
X155602558Y-103386981D01*
X152954320Y-100738743D01*
X152954314Y-100738738D01*
X152822816Y-100662818D01*
X152822815Y-100662817D01*
X152822814Y-100662817D01*
X152676140Y-100623516D01*
X152676139Y-100623516D01*
X151690023Y-100623516D01*
X151622984Y-100603831D01*
X151602342Y-100587197D01*
X147403526Y-96388381D01*
X147370041Y-96327058D01*
X147375025Y-96257366D01*
X147416897Y-96201433D01*
X147482361Y-96177016D01*
X147491207Y-96176700D01*
X149109761Y-96176700D01*
X149176800Y-96196385D01*
X149197442Y-96213019D01*
X149786981Y-96802558D01*
X149820466Y-96863881D01*
X149823300Y-96890239D01*
X149823300Y-97075923D01*
X149862602Y-97222600D01*
X149862602Y-97222601D01*
X149938522Y-97354098D01*
X149938524Y-97354100D01*
X149938525Y-97354102D01*
X153838525Y-101254102D01*
X153945898Y-101361475D01*
X153945899Y-101361476D01*
X153945901Y-101361477D01*
X153998800Y-101392018D01*
X154077402Y-101437399D01*
X154224076Y-101476700D01*
X166493259Y-101476700D01*
X166560298Y-101496385D01*
X166580940Y-101513019D01*
X166589707Y-101521786D01*
X166589711Y-101521789D01*
X166720814Y-101609390D01*
X166720827Y-101609397D01*
X166866498Y-101669735D01*
X166866503Y-101669737D01*
X167021153Y-101700499D01*
X167021156Y-101700500D01*
X167021158Y-101700500D01*
X167178844Y-101700500D01*
X167178845Y-101700499D01*
X167333497Y-101669737D01*
X167479179Y-101609394D01*
X167610289Y-101521789D01*
X167721789Y-101410289D01*
X167809394Y-101279179D01*
X167869737Y-101133497D01*
X167900500Y-100978842D01*
X167900500Y-100821158D01*
X167900500Y-100821155D01*
X167900499Y-100821153D01*
X167894969Y-100793350D01*
X167869737Y-100666503D01*
X167868210Y-100662817D01*
X167809397Y-100520827D01*
X167809390Y-100520814D01*
X167721789Y-100389711D01*
X167721786Y-100389707D01*
X167610292Y-100278213D01*
X167610288Y-100278210D01*
X167479185Y-100190609D01*
X167479172Y-100190602D01*
X167333501Y-100130264D01*
X167333489Y-100130261D01*
X167178845Y-100099500D01*
X167178842Y-100099500D01*
X167021158Y-100099500D01*
X167021155Y-100099500D01*
X166866510Y-100130261D01*
X166866498Y-100130264D01*
X166720827Y-100190602D01*
X166720814Y-100190609D01*
X166589711Y-100278210D01*
X166589707Y-100278213D01*
X166580940Y-100286981D01*
X166519617Y-100320466D01*
X166493259Y-100323300D01*
X154590239Y-100323300D01*
X154523200Y-100303615D01*
X154502558Y-100286981D01*
X151013019Y-96797442D01*
X150979534Y-96736119D01*
X150976700Y-96709761D01*
X150976700Y-96524078D01*
X150976700Y-96524076D01*
X150937399Y-96377402D01*
X150934144Y-96371765D01*
X150861477Y-96245901D01*
X150861472Y-96245895D01*
X150387757Y-95772180D01*
X150354272Y-95710857D01*
X150359256Y-95641165D01*
X150401128Y-95585232D01*
X150466592Y-95560815D01*
X150475438Y-95560499D01*
X150790371Y-95560499D01*
X150790372Y-95560499D01*
X150849983Y-95554091D01*
X150884167Y-95541340D01*
X150953858Y-95536357D01*
X150970827Y-95541338D01*
X151005017Y-95554091D01*
X151064627Y-95560500D01*
X152060372Y-95560499D01*
X152119983Y-95554091D01*
X152254831Y-95503796D01*
X152370046Y-95417546D01*
X152456296Y-95302331D01*
X152506591Y-95167483D01*
X152513000Y-95107873D01*
X152513000Y-94700700D01*
X152532685Y-94633661D01*
X152585489Y-94587906D01*
X152637000Y-94576700D01*
X161475922Y-94576700D01*
X161475924Y-94576700D01*
X161622598Y-94537399D01*
X161754102Y-94461475D01*
X162461475Y-93754102D01*
X162537399Y-93622598D01*
X162576700Y-93475924D01*
X162576700Y-93384921D01*
X162596385Y-93317882D01*
X162649189Y-93272127D01*
X162718347Y-93262183D01*
X162765794Y-93279381D01*
X162855666Y-93334814D01*
X163022203Y-93389999D01*
X163124991Y-93400500D01*
X164475008Y-93400499D01*
X164577797Y-93389999D01*
X164744334Y-93334814D01*
X164893656Y-93242712D01*
X164968572Y-93167795D01*
X165029891Y-93134313D01*
X165099583Y-93139297D01*
X165143931Y-93167797D01*
X165206345Y-93230211D01*
X165206347Y-93230212D01*
X165206348Y-93230213D01*
X165355662Y-93322312D01*
X165355664Y-93322313D01*
X165355666Y-93322314D01*
X165522203Y-93377499D01*
X165624992Y-93388000D01*
X165624997Y-93388000D01*
X166975003Y-93388000D01*
X166975008Y-93388000D01*
X167077797Y-93377499D01*
X167244334Y-93322314D01*
X167393655Y-93230211D01*
X167517711Y-93106155D01*
X167609814Y-92956834D01*
X167664999Y-92790297D01*
X167675500Y-92687508D01*
X167675500Y-91662492D01*
X167664999Y-91559703D01*
X167609814Y-91393166D01*
X167590336Y-91361588D01*
X167517713Y-91243848D01*
X167517710Y-91243844D01*
X167406255Y-91132389D01*
X167372770Y-91071066D01*
X167372319Y-91020516D01*
X167375866Y-91002687D01*
X167383420Y-90964709D01*
X167400500Y-90878844D01*
X167400500Y-90782754D01*
X167420185Y-90715715D01*
X167462501Y-90675366D01*
X167504402Y-90651175D01*
X167961475Y-90194102D01*
X168037399Y-90062598D01*
X168076700Y-89915925D01*
X168076700Y-89764076D01*
X168076700Y-86826618D01*
X168096385Y-86759579D01*
X168149189Y-86713824D01*
X168161688Y-86708915D01*
X168219334Y-86689814D01*
X168368656Y-86597712D01*
X168492712Y-86473656D01*
X168584814Y-86324334D01*
X168639999Y-86157797D01*
X168650500Y-86055009D01*
X168650499Y-84904992D01*
X168645245Y-84853563D01*
X168639999Y-84802203D01*
X168639998Y-84802200D01*
X168632192Y-84778642D01*
X168584814Y-84635666D01*
X168492712Y-84486344D01*
X168368656Y-84362288D01*
X168219334Y-84270186D01*
X168161695Y-84251086D01*
X168104250Y-84211312D01*
X168077428Y-84146796D01*
X168076700Y-84133380D01*
X168076700Y-78866618D01*
X168096385Y-78799579D01*
X168149189Y-78753824D01*
X168161688Y-78748915D01*
X168219334Y-78729814D01*
X168368656Y-78637712D01*
X168492712Y-78513656D01*
X168584814Y-78364334D01*
X168639999Y-78197797D01*
X168650500Y-78095009D01*
X168650499Y-76944992D01*
X168639999Y-76842203D01*
X168584814Y-76675666D01*
X168492712Y-76526344D01*
X168368656Y-76402288D01*
X168275888Y-76345069D01*
X168219336Y-76310187D01*
X168219331Y-76310185D01*
X168216890Y-76309376D01*
X168052797Y-76255001D01*
X168052795Y-76255000D01*
X167950010Y-76244500D01*
X167049998Y-76244500D01*
X167049980Y-76244501D01*
X166947203Y-76255000D01*
X166947200Y-76255001D01*
X166780668Y-76310185D01*
X166780663Y-76310187D01*
X166631342Y-76402289D01*
X166507289Y-76526342D01*
X166415187Y-76675663D01*
X166415185Y-76675668D01*
X166411058Y-76688123D01*
X166360001Y-76842203D01*
X166360001Y-76842204D01*
X166360000Y-76842204D01*
X166349500Y-76944983D01*
X166349500Y-78095001D01*
X166349501Y-78095018D01*
X166360000Y-78197796D01*
X166360001Y-78197799D01*
X166415185Y-78364331D01*
X166415187Y-78364336D01*
X166435855Y-78397844D01*
X166507288Y-78513656D01*
X166631344Y-78637712D01*
X166780666Y-78729814D01*
X166838303Y-78748913D01*
X166895748Y-78788683D01*
X166922572Y-78853199D01*
X166923300Y-78866618D01*
X166923300Y-84133380D01*
X166903615Y-84200419D01*
X166850811Y-84246174D01*
X166838305Y-84251086D01*
X166780666Y-84270186D01*
X166631342Y-84362289D01*
X166507289Y-84486342D01*
X166415187Y-84635663D01*
X166415185Y-84635668D01*
X166404510Y-84667883D01*
X166360001Y-84802203D01*
X166360001Y-84802204D01*
X166360000Y-84802204D01*
X166349500Y-84904983D01*
X166349500Y-86055001D01*
X166349501Y-86055018D01*
X166360000Y-86157796D01*
X166360001Y-86157799D01*
X166415185Y-86324331D01*
X166415187Y-86324336D01*
X166421369Y-86334358D01*
X166507288Y-86473656D01*
X166631344Y-86597712D01*
X166780666Y-86689814D01*
X166838303Y-86708913D01*
X166895748Y-86748683D01*
X166922572Y-86813199D01*
X166923300Y-86826618D01*
X166923300Y-87308361D01*
X166903615Y-87375400D01*
X166850811Y-87421155D01*
X166781653Y-87431099D01*
X166718097Y-87402074D01*
X166711619Y-87396042D01*
X166154104Y-86838527D01*
X166154098Y-86838522D01*
X166022600Y-86762602D01*
X166022599Y-86762601D01*
X166022598Y-86762601D01*
X165875924Y-86723300D01*
X165875923Y-86723300D01*
X164041723Y-86723300D01*
X163974684Y-86703615D01*
X163928929Y-86650811D01*
X163918985Y-86581653D01*
X163948010Y-86518097D01*
X163954042Y-86511619D01*
X163992315Y-86473345D01*
X164084356Y-86324124D01*
X164084358Y-86324119D01*
X164139505Y-86157697D01*
X164139506Y-86157690D01*
X164149999Y-86054986D01*
X164150000Y-86054973D01*
X164150000Y-85730000D01*
X163124000Y-85730000D01*
X163056961Y-85710315D01*
X163011206Y-85657511D01*
X163000000Y-85606000D01*
X163000000Y-85480000D01*
X162874000Y-85480000D01*
X162806961Y-85460315D01*
X162761206Y-85407511D01*
X162750000Y-85356000D01*
X162750000Y-85230000D01*
X163250000Y-85230000D01*
X164149999Y-85230000D01*
X164149999Y-84905028D01*
X164149998Y-84905013D01*
X164139505Y-84802302D01*
X164084358Y-84635880D01*
X164084356Y-84635875D01*
X163992315Y-84486654D01*
X163868345Y-84362684D01*
X163719124Y-84270643D01*
X163719119Y-84270641D01*
X163552697Y-84215494D01*
X163552690Y-84215493D01*
X163449986Y-84205000D01*
X163250000Y-84205000D01*
X163250000Y-85230000D01*
X162750000Y-85230000D01*
X162750000Y-84205000D01*
X162550029Y-84205000D01*
X162550012Y-84205001D01*
X162447302Y-84215494D01*
X162280880Y-84270641D01*
X162280875Y-84270643D01*
X162131654Y-84362684D01*
X162007684Y-84486654D01*
X161915643Y-84635875D01*
X161915641Y-84635880D01*
X161860494Y-84802302D01*
X161860493Y-84802309D01*
X161855257Y-84853563D01*
X161828861Y-84918255D01*
X161771680Y-84958406D01*
X161701869Y-84961269D01*
X161644218Y-84928641D01*
X161374104Y-84658527D01*
X161374098Y-84658522D01*
X161242600Y-84582602D01*
X161242599Y-84582601D01*
X161242598Y-84582601D01*
X161095924Y-84543300D01*
X161095923Y-84543300D01*
X160297845Y-84543300D01*
X160230806Y-84523615D01*
X160187360Y-84475594D01*
X160155050Y-84412182D01*
X160030109Y-84240213D01*
X159879786Y-84089890D01*
X159707820Y-83964951D01*
X159707115Y-83964591D01*
X159699054Y-83960485D01*
X159648259Y-83912512D01*
X159631463Y-83844692D01*
X159653999Y-83778556D01*
X159699054Y-83739515D01*
X159707816Y-83735051D01*
X159794413Y-83672135D01*
X159879786Y-83610109D01*
X159879788Y-83610106D01*
X159879792Y-83610104D01*
X160030104Y-83459792D01*
X160030106Y-83459788D01*
X160030109Y-83459786D01*
X160155048Y-83287820D01*
X160155047Y-83287820D01*
X160155051Y-83287816D01*
X160251557Y-83098412D01*
X160317246Y-82896243D01*
X160350500Y-82686287D01*
X160350500Y-82473713D01*
X160317246Y-82263757D01*
X160251557Y-82061588D01*
X160155051Y-81872184D01*
X160155049Y-81872181D01*
X160155048Y-81872179D01*
X160030109Y-81700213D01*
X159879786Y-81549890D01*
X159707820Y-81424951D01*
X159707115Y-81424591D01*
X159699054Y-81420485D01*
X159648259Y-81372512D01*
X159631463Y-81304692D01*
X159653999Y-81238556D01*
X159699054Y-81199515D01*
X159707816Y-81195051D01*
X159794413Y-81132135D01*
X159879786Y-81070109D01*
X159879788Y-81070106D01*
X159879792Y-81070104D01*
X160030104Y-80919792D01*
X160030106Y-80919788D01*
X160030109Y-80919786D01*
X160155048Y-80747820D01*
X160155047Y-80747820D01*
X160155051Y-80747816D01*
X160251557Y-80558412D01*
X160317246Y-80356243D01*
X160350500Y-80146287D01*
X160350500Y-79933713D01*
X160317246Y-79723757D01*
X160251557Y-79521588D01*
X160155051Y-79332184D01*
X160155049Y-79332181D01*
X160155048Y-79332179D01*
X160030109Y-79160213D01*
X159916181Y-79046285D01*
X159882696Y-78984962D01*
X159887680Y-78915270D01*
X159929552Y-78859337D01*
X159960529Y-78842422D01*
X160092086Y-78793354D01*
X160092093Y-78793350D01*
X160207187Y-78707190D01*
X160207190Y-78707187D01*
X160293350Y-78592093D01*
X160293354Y-78592086D01*
X160343596Y-78457379D01*
X160343598Y-78457372D01*
X160349999Y-78397844D01*
X160350000Y-78397827D01*
X160350000Y-78094986D01*
X161850001Y-78094986D01*
X161860494Y-78197697D01*
X161915641Y-78364119D01*
X161915643Y-78364124D01*
X162007684Y-78513345D01*
X162131654Y-78637315D01*
X162280875Y-78729356D01*
X162280880Y-78729358D01*
X162447302Y-78784505D01*
X162447309Y-78784506D01*
X162550019Y-78794999D01*
X162749999Y-78794999D01*
X163250000Y-78794999D01*
X163449972Y-78794999D01*
X163449986Y-78794998D01*
X163552697Y-78784505D01*
X163719119Y-78729358D01*
X163719124Y-78729356D01*
X163868345Y-78637315D01*
X163992315Y-78513345D01*
X164084356Y-78364124D01*
X164084358Y-78364119D01*
X164139505Y-78197697D01*
X164139506Y-78197690D01*
X164149999Y-78094986D01*
X164150000Y-78094973D01*
X164150000Y-77770000D01*
X163250000Y-77770000D01*
X163250000Y-78794999D01*
X162749999Y-78794999D01*
X162750000Y-78794998D01*
X162750000Y-77770000D01*
X161850001Y-77770000D01*
X161850001Y-78094986D01*
X160350000Y-78094986D01*
X160350000Y-77750000D01*
X159433012Y-77750000D01*
X159465925Y-77692993D01*
X159500000Y-77565826D01*
X159500000Y-77434174D01*
X159465925Y-77307007D01*
X159433012Y-77250000D01*
X160350000Y-77250000D01*
X160350000Y-76945013D01*
X161850000Y-76945013D01*
X161850000Y-77270000D01*
X162750000Y-77270000D01*
X163250000Y-77270000D01*
X164149999Y-77270000D01*
X164149999Y-76945028D01*
X164149998Y-76945013D01*
X164139505Y-76842302D01*
X164084358Y-76675880D01*
X164084356Y-76675875D01*
X163992315Y-76526654D01*
X163868345Y-76402684D01*
X163719124Y-76310643D01*
X163719119Y-76310641D01*
X163552697Y-76255494D01*
X163552690Y-76255493D01*
X163449986Y-76245000D01*
X163250000Y-76245000D01*
X163250000Y-77270000D01*
X162750000Y-77270000D01*
X162750000Y-76245000D01*
X162550029Y-76245000D01*
X162550012Y-76245001D01*
X162447302Y-76255494D01*
X162280880Y-76310641D01*
X162280875Y-76310643D01*
X162131654Y-76402684D01*
X162007684Y-76526654D01*
X161915643Y-76675875D01*
X161915641Y-76675880D01*
X161860494Y-76842302D01*
X161860493Y-76842309D01*
X161850000Y-76945013D01*
X160350000Y-76945013D01*
X160350000Y-76602172D01*
X160349999Y-76602155D01*
X160343598Y-76542627D01*
X160343596Y-76542620D01*
X160293354Y-76407913D01*
X160293350Y-76407906D01*
X160207190Y-76292812D01*
X160207187Y-76292809D01*
X160092093Y-76206649D01*
X160092086Y-76206645D01*
X159957379Y-76156403D01*
X159957372Y-76156401D01*
X159897844Y-76150000D01*
X159250000Y-76150000D01*
X159250000Y-77066988D01*
X159192993Y-77034075D01*
X159065826Y-77000000D01*
X158934174Y-77000000D01*
X158807007Y-77034075D01*
X158750000Y-77066988D01*
X158750000Y-76150000D01*
X158102155Y-76150000D01*
X158042627Y-76156401D01*
X158042620Y-76156403D01*
X157907913Y-76206645D01*
X157907906Y-76206649D01*
X157792812Y-76292809D01*
X157792809Y-76292812D01*
X157706649Y-76407906D01*
X157706645Y-76407913D01*
X157656403Y-76542620D01*
X157656401Y-76542627D01*
X157650000Y-76602155D01*
X157650000Y-77250000D01*
X158566988Y-77250000D01*
X158534075Y-77307007D01*
X158500000Y-77434174D01*
X158500000Y-77565826D01*
X158534075Y-77692993D01*
X158566988Y-77750000D01*
X157650000Y-77750000D01*
X157650000Y-78397844D01*
X157656401Y-78457372D01*
X157656403Y-78457379D01*
X157706645Y-78592086D01*
X157706649Y-78592093D01*
X157792809Y-78707187D01*
X157792812Y-78707190D01*
X157907906Y-78793350D01*
X157907913Y-78793354D01*
X158039470Y-78842422D01*
X158095404Y-78884293D01*
X158119821Y-78949758D01*
X158104969Y-79018031D01*
X158083819Y-79046285D01*
X157969889Y-79160215D01*
X157844949Y-79332182D01*
X157812640Y-79395594D01*
X157764666Y-79446391D01*
X157702155Y-79463300D01*
X157684076Y-79463300D01*
X157537402Y-79502601D01*
X157537401Y-79502601D01*
X157537399Y-79502602D01*
X157537398Y-79502602D01*
X157405901Y-79578522D01*
X157405895Y-79578527D01*
X157237442Y-79746981D01*
X157176119Y-79780466D01*
X157149761Y-79783300D01*
X154695035Y-79783300D01*
X154627996Y-79763615D01*
X154582241Y-79710811D01*
X154571745Y-79646047D01*
X154578000Y-79587873D01*
X154577999Y-78592128D01*
X154571591Y-78532517D01*
X154558840Y-78498332D01*
X154553857Y-78428642D01*
X154558840Y-78411669D01*
X154571591Y-78377483D01*
X154578000Y-78317873D01*
X154577999Y-77322128D01*
X154571591Y-77262517D01*
X154558573Y-77227616D01*
X154553590Y-77157926D01*
X154558575Y-77140949D01*
X154571097Y-77107375D01*
X154571098Y-77107372D01*
X154577499Y-77047844D01*
X154577500Y-77047827D01*
X154577500Y-76800000D01*
X152077500Y-76800000D01*
X152077500Y-77047844D01*
X152083901Y-77107372D01*
X152083903Y-77107379D01*
X152096425Y-77140952D01*
X152101409Y-77210643D01*
X152096425Y-77227617D01*
X152083409Y-77262514D01*
X152083408Y-77262516D01*
X152077001Y-77322116D01*
X152077001Y-77322123D01*
X152077000Y-77322135D01*
X152077000Y-78317870D01*
X152077001Y-78317876D01*
X152083408Y-78377481D01*
X152096159Y-78411669D01*
X152101142Y-78481361D01*
X152096159Y-78498331D01*
X152083408Y-78532518D01*
X152077001Y-78592116D01*
X152077001Y-78592123D01*
X152077000Y-78592135D01*
X152077000Y-79587870D01*
X152077001Y-79587876D01*
X152083408Y-79647481D01*
X152096159Y-79681669D01*
X152101142Y-79751361D01*
X152096159Y-79768331D01*
X152083408Y-79802518D01*
X152077001Y-79862116D01*
X152077001Y-79862125D01*
X152077000Y-79862135D01*
X152077000Y-80857870D01*
X152077001Y-80857876D01*
X152083408Y-80917481D01*
X152096159Y-80951669D01*
X152101142Y-81021361D01*
X152096159Y-81038331D01*
X152083408Y-81072518D01*
X152077001Y-81132116D01*
X152077001Y-81132123D01*
X152077000Y-81132135D01*
X152077000Y-82127870D01*
X152077001Y-82127876D01*
X152083408Y-82187481D01*
X152096159Y-82221669D01*
X152101142Y-82291361D01*
X152096159Y-82308331D01*
X152083408Y-82342518D01*
X152077001Y-82402116D01*
X152077001Y-82402125D01*
X152077000Y-82402135D01*
X152077000Y-83397870D01*
X152077001Y-83397876D01*
X152083408Y-83457481D01*
X152096159Y-83491669D01*
X152101142Y-83561361D01*
X152096159Y-83578331D01*
X152083408Y-83612518D01*
X152080897Y-83635880D01*
X152077001Y-83672123D01*
X152077000Y-83672135D01*
X152077000Y-84667870D01*
X152077001Y-84667876D01*
X152083408Y-84727481D01*
X152096159Y-84761669D01*
X152101142Y-84831361D01*
X152096159Y-84848331D01*
X152083408Y-84882518D01*
X152078450Y-84928641D01*
X152077001Y-84942123D01*
X152077000Y-84942135D01*
X152077000Y-85937870D01*
X152077001Y-85937876D01*
X152083408Y-85997481D01*
X152096159Y-86031669D01*
X152101142Y-86101361D01*
X152096159Y-86118331D01*
X152083408Y-86152518D01*
X152077001Y-86212116D01*
X152077001Y-86212123D01*
X152077000Y-86212135D01*
X152077000Y-87207870D01*
X152077001Y-87207876D01*
X152083408Y-87267481D01*
X152096159Y-87301669D01*
X152101142Y-87371361D01*
X152096159Y-87388331D01*
X152083408Y-87422518D01*
X152080895Y-87445898D01*
X152077001Y-87482123D01*
X152077000Y-87482135D01*
X152077000Y-88477870D01*
X152077001Y-88477876D01*
X152083408Y-88537481D01*
X152096159Y-88571669D01*
X152101142Y-88641361D01*
X152096159Y-88658331D01*
X152083408Y-88692518D01*
X152077915Y-88743615D01*
X152077001Y-88752123D01*
X152077000Y-88752135D01*
X152077000Y-89747870D01*
X152077001Y-89747876D01*
X152083408Y-89807481D01*
X152096159Y-89841669D01*
X152101142Y-89911361D01*
X152096159Y-89928331D01*
X152083408Y-89962518D01*
X152077001Y-90022116D01*
X152077001Y-90022123D01*
X152077000Y-90022135D01*
X152077000Y-91017870D01*
X152077001Y-91017876D01*
X152083408Y-91077481D01*
X152096159Y-91111669D01*
X152101142Y-91181361D01*
X152096159Y-91198331D01*
X152083408Y-91232518D01*
X152078159Y-91281344D01*
X152077001Y-91292123D01*
X152077000Y-91292135D01*
X152077001Y-92099300D01*
X152057317Y-92166339D01*
X152004513Y-92212094D01*
X151953001Y-92223300D01*
X138090239Y-92223300D01*
X138060798Y-92214655D01*
X138030812Y-92208132D01*
X138025796Y-92204377D01*
X138023200Y-92203615D01*
X138002558Y-92186981D01*
X137831719Y-92016142D01*
X137798234Y-91954819D01*
X137795400Y-91928461D01*
X137795400Y-89163095D01*
X137795400Y-89163093D01*
X137756099Y-89016419D01*
X137694826Y-88910292D01*
X137680177Y-88884918D01*
X137680172Y-88884912D01*
X137565733Y-88770473D01*
X137467718Y-88672456D01*
X137434234Y-88611133D01*
X137431400Y-88584776D01*
X137431400Y-88446878D01*
X137431400Y-88446876D01*
X137392099Y-88300202D01*
X137381211Y-88281344D01*
X137316177Y-88168701D01*
X137316172Y-88168695D01*
X137208803Y-88061326D01*
X137208798Y-88061322D01*
X137139999Y-88021601D01*
X137091783Y-87971034D01*
X137077999Y-87914214D01*
X137077999Y-87482129D01*
X137077998Y-87482123D01*
X137077997Y-87482116D01*
X137071591Y-87422517D01*
X137058840Y-87388332D01*
X137053857Y-87318642D01*
X137058840Y-87301669D01*
X137071591Y-87267483D01*
X137078000Y-87207873D01*
X137077999Y-86212128D01*
X137071591Y-86152517D01*
X137058840Y-86118332D01*
X137053857Y-86048642D01*
X137058840Y-86031669D01*
X137071591Y-85997483D01*
X137078000Y-85937873D01*
X137077999Y-84942128D01*
X137071591Y-84882517D01*
X137058840Y-84848332D01*
X137053857Y-84778642D01*
X137058840Y-84761669D01*
X137071591Y-84727483D01*
X137078000Y-84667873D01*
X137077999Y-83672128D01*
X137071591Y-83612517D01*
X137058840Y-83578332D01*
X137053857Y-83508642D01*
X137058840Y-83491669D01*
X137071591Y-83457483D01*
X137078000Y-83397873D01*
X137077999Y-82402128D01*
X137071591Y-82342517D01*
X137058840Y-82308332D01*
X137053857Y-82238642D01*
X137058840Y-82221669D01*
X137071591Y-82187483D01*
X137078000Y-82127873D01*
X137077999Y-81132128D01*
X137071591Y-81072517D01*
X137058840Y-81038332D01*
X137053857Y-80968642D01*
X137058840Y-80951669D01*
X137071591Y-80917483D01*
X137078000Y-80857873D01*
X137077999Y-79862128D01*
X137071745Y-79803952D01*
X137084151Y-79735195D01*
X137131762Y-79684058D01*
X137195035Y-79666700D01*
X137485922Y-79666700D01*
X137485924Y-79666700D01*
X137632598Y-79627399D01*
X137764102Y-79551475D01*
X138361475Y-78954102D01*
X138437399Y-78822598D01*
X138476700Y-78675924D01*
X138476700Y-78524076D01*
X138476700Y-75924076D01*
X138437399Y-75777402D01*
X138437397Y-75777398D01*
X138384917Y-75686500D01*
X138368444Y-75618600D01*
X138391296Y-75552573D01*
X138446218Y-75509382D01*
X138492304Y-75500500D01*
X152171440Y-75500500D01*
X152238479Y-75520185D01*
G37*
%TD.AperFunction*%
%TA.AperFunction,Conductor*%
G36*
X139497600Y-112174185D02*
G01*
X139543355Y-112226989D01*
X139553299Y-112296147D01*
X139524274Y-112359703D01*
X139518242Y-112366181D01*
X138838527Y-113045895D01*
X138838522Y-113045901D01*
X138762602Y-113177398D01*
X138762602Y-113177399D01*
X138762601Y-113177401D01*
X138762601Y-113177402D01*
X138750877Y-113221158D01*
X138723300Y-113324076D01*
X138723300Y-114169485D01*
X138715275Y-114196811D01*
X138710256Y-114224844D01*
X138705559Y-114229901D01*
X138703615Y-114236524D01*
X138682094Y-114255171D01*
X138662713Y-114276044D01*
X138656026Y-114277760D01*
X138650811Y-114282279D01*
X138622625Y-114286331D01*
X138595036Y-114293412D01*
X138585392Y-114291685D01*
X138581653Y-114292223D01*
X138560297Y-114287191D01*
X138511695Y-114271086D01*
X138454250Y-114231312D01*
X138427428Y-114166796D01*
X138426700Y-114153380D01*
X138426700Y-113474078D01*
X138426700Y-113474076D01*
X138404725Y-113392063D01*
X138400500Y-113359970D01*
X138400500Y-113221155D01*
X138400499Y-113221153D01*
X138391796Y-113177399D01*
X138369737Y-113066503D01*
X138364638Y-113054193D01*
X138309397Y-112920827D01*
X138309390Y-112920814D01*
X138221789Y-112789711D01*
X138221786Y-112789707D01*
X138110292Y-112678213D01*
X138110288Y-112678210D01*
X137979185Y-112590609D01*
X137979172Y-112590602D01*
X137833501Y-112530264D01*
X137833489Y-112530261D01*
X137678845Y-112499500D01*
X137678842Y-112499500D01*
X137521158Y-112499500D01*
X137521155Y-112499500D01*
X137366510Y-112530261D01*
X137366498Y-112530264D01*
X137220827Y-112590602D01*
X137220814Y-112590609D01*
X137089711Y-112678210D01*
X137089707Y-112678213D01*
X136978213Y-112789707D01*
X136978210Y-112789711D01*
X136890609Y-112920814D01*
X136890602Y-112920827D01*
X136830264Y-113066498D01*
X136830261Y-113066507D01*
X136822290Y-113106581D01*
X136789904Y-113168492D01*
X136729187Y-113203065D01*
X136659418Y-113199324D01*
X136602747Y-113158457D01*
X136597571Y-113151279D01*
X136562913Y-113099409D01*
X136430593Y-112967089D01*
X136430589Y-112967086D01*
X136275000Y-112863124D01*
X136274991Y-112863119D01*
X136102103Y-112791507D01*
X136102100Y-112791506D01*
X136075000Y-112786115D01*
X136075000Y-113538011D01*
X136065060Y-113520795D01*
X136009205Y-113464940D01*
X135940796Y-113425444D01*
X135864496Y-113405000D01*
X135785504Y-113405000D01*
X135709204Y-113425444D01*
X135640795Y-113464940D01*
X135584940Y-113520795D01*
X135575000Y-113538011D01*
X135575000Y-112786116D01*
X135574999Y-112786115D01*
X135547899Y-112791506D01*
X135547896Y-112791507D01*
X135375008Y-112863119D01*
X135374999Y-112863124D01*
X135278307Y-112927732D01*
X135272559Y-112986098D01*
X135270311Y-112985876D01*
X135267884Y-113019824D01*
X135239383Y-113064171D01*
X134828554Y-113475000D01*
X135239383Y-113885829D01*
X135272868Y-113947152D01*
X135267884Y-114016844D01*
X135239383Y-114061191D01*
X135150574Y-114150000D01*
X135239383Y-114238809D01*
X135272868Y-114300132D01*
X135267884Y-114369824D01*
X135239383Y-114414171D01*
X134739458Y-114914096D01*
X134731512Y-114918434D01*
X134726087Y-114925682D01*
X134701327Y-114934916D01*
X134678135Y-114947581D01*
X134669105Y-114946935D01*
X134660623Y-114950099D01*
X134637725Y-114945117D01*
X134644552Y-114938291D01*
X134675000Y-114864782D01*
X134675000Y-114785218D01*
X134644552Y-114711709D01*
X134588291Y-114655448D01*
X134514782Y-114625000D01*
X134435218Y-114625000D01*
X134427523Y-114628186D01*
X134422326Y-114602056D01*
X134428553Y-114532464D01*
X134456262Y-114490183D01*
X134796445Y-114149999D01*
X134456262Y-113809816D01*
X134422777Y-113748493D01*
X134422326Y-113697943D01*
X134427523Y-113671812D01*
X134435218Y-113675000D01*
X134514782Y-113675000D01*
X134588291Y-113644552D01*
X134644552Y-113588291D01*
X134675000Y-113514782D01*
X134675000Y-113435218D01*
X134644552Y-113361709D01*
X134588291Y-113305448D01*
X134514782Y-113275000D01*
X134435218Y-113275000D01*
X134427523Y-113278186D01*
X134422326Y-113252056D01*
X134428553Y-113182464D01*
X134456262Y-113140183D01*
X134856427Y-112740018D01*
X134856427Y-112740017D01*
X134794943Y-112714550D01*
X134740540Y-112670709D01*
X134718475Y-112604414D01*
X134735754Y-112536715D01*
X134754709Y-112512314D01*
X135076205Y-112190818D01*
X135137528Y-112157334D01*
X135163886Y-112154500D01*
X139430561Y-112154500D01*
X139497600Y-112174185D01*
G37*
%TD.AperFunction*%
%TA.AperFunction,Conductor*%
G36*
X134250152Y-110670184D02*
G01*
X134295907Y-110722988D01*
X134305851Y-110792146D01*
X134276826Y-110855702D01*
X134270795Y-110862179D01*
X134232277Y-110900698D01*
X134213941Y-110919034D01*
X134213939Y-110919036D01*
X134129379Y-111003596D01*
X133987680Y-111145294D01*
X133926357Y-111178778D01*
X133856665Y-111173794D01*
X133812318Y-111145293D01*
X133529206Y-110862180D01*
X133495721Y-110800857D01*
X133500705Y-110731165D01*
X133542577Y-110675232D01*
X133608041Y-110650815D01*
X133616867Y-110650499D01*
X134183113Y-110650499D01*
X134250152Y-110670184D01*
G37*
%TD.AperFunction*%
%TA.AperFunction,Conductor*%
G36*
X135119749Y-106694874D02*
G01*
X135129875Y-106693610D01*
X135152708Y-106704552D01*
X135176998Y-106711685D01*
X135185355Y-106720198D01*
X135192883Y-106723806D01*
X135215496Y-106750901D01*
X135257288Y-106818656D01*
X135381344Y-106942712D01*
X135530666Y-107034814D01*
X135697203Y-107089999D01*
X135799991Y-107100500D01*
X137200008Y-107100499D01*
X137201849Y-107100311D01*
X137221574Y-107098296D01*
X137302797Y-107089999D01*
X137469334Y-107034814D01*
X137618656Y-106942712D01*
X137655071Y-106906296D01*
X137716391Y-106872812D01*
X137786083Y-106877796D01*
X137842017Y-106919666D01*
X137860456Y-106954973D01*
X137870182Y-106984325D01*
X137870185Y-106984331D01*
X137870186Y-106984334D01*
X137962288Y-107133656D01*
X138086344Y-107257712D01*
X138235666Y-107349814D01*
X138402203Y-107404999D01*
X138504991Y-107415500D01*
X139495008Y-107415499D01*
X139495016Y-107415498D01*
X139495019Y-107415498D01*
X139551302Y-107409748D01*
X139597797Y-107404999D01*
X139764334Y-107349814D01*
X139913656Y-107257712D01*
X140037712Y-107133656D01*
X140129814Y-106984334D01*
X140138044Y-106959494D01*
X140177816Y-106902051D01*
X140242332Y-106875228D01*
X140255750Y-106874500D01*
X140556113Y-106874500D01*
X140585553Y-106883144D01*
X140615540Y-106889668D01*
X140620555Y-106893422D01*
X140623152Y-106894185D01*
X140643789Y-106910814D01*
X140809182Y-107076206D01*
X140842666Y-107137528D01*
X140845500Y-107163886D01*
X140845500Y-109836113D01*
X140825815Y-109903152D01*
X140809181Y-109923794D01*
X140123794Y-110609181D01*
X140062471Y-110642666D01*
X140036113Y-110645500D01*
X134841656Y-110645500D01*
X134774617Y-110625815D01*
X134728862Y-110573011D01*
X134718918Y-110503853D01*
X134747943Y-110440297D01*
X134763960Y-110424860D01*
X134797722Y-110397722D01*
X134917030Y-110249296D01*
X135001641Y-110078693D01*
X135028065Y-109972440D01*
X135063346Y-109912135D01*
X135125632Y-109880476D01*
X135195146Y-109887517D01*
X135249818Y-109931022D01*
X135253939Y-109937273D01*
X135257684Y-109943345D01*
X135381654Y-110067315D01*
X135530875Y-110159356D01*
X135530880Y-110159358D01*
X135697302Y-110214505D01*
X135697309Y-110214506D01*
X135800019Y-110224999D01*
X136249999Y-110224999D01*
X136250000Y-110224998D01*
X136250000Y-109312500D01*
X136750000Y-109312500D01*
X136750000Y-110224999D01*
X137199972Y-110224999D01*
X137199986Y-110224998D01*
X137302697Y-110214505D01*
X137469119Y-110159358D01*
X137469124Y-110159356D01*
X137618342Y-110067317D01*
X137741017Y-109944642D01*
X137802340Y-109911157D01*
X137872032Y-109916141D01*
X137927966Y-109958012D01*
X137934238Y-109967227D01*
X137962682Y-110013343D01*
X138086654Y-110137315D01*
X138235875Y-110229356D01*
X138235880Y-110229358D01*
X138402302Y-110284505D01*
X138402309Y-110284506D01*
X138505019Y-110294999D01*
X138749999Y-110294999D01*
X139250000Y-110294999D01*
X139494972Y-110294999D01*
X139494986Y-110294998D01*
X139597697Y-110284505D01*
X139764119Y-110229358D01*
X139764124Y-110229356D01*
X139913345Y-110137315D01*
X140037315Y-110013345D01*
X140129356Y-109864124D01*
X140129358Y-109864119D01*
X140184505Y-109697697D01*
X140184506Y-109697690D01*
X140194999Y-109594986D01*
X140195000Y-109594973D01*
X140195000Y-109250000D01*
X139250000Y-109250000D01*
X139250000Y-110294999D01*
X138749999Y-110294999D01*
X138750000Y-110294998D01*
X138750000Y-109250000D01*
X138030000Y-109250000D01*
X138003819Y-109276181D01*
X137942496Y-109309666D01*
X137916138Y-109312500D01*
X136750000Y-109312500D01*
X136250000Y-109312500D01*
X136250000Y-107900000D01*
X136750000Y-107900000D01*
X136750000Y-108812500D01*
X137675000Y-108812500D01*
X137701181Y-108786319D01*
X137762504Y-108752834D01*
X137788862Y-108750000D01*
X138750000Y-108750000D01*
X139250000Y-108750000D01*
X140194999Y-108750000D01*
X140194999Y-108405028D01*
X140194998Y-108405013D01*
X140184505Y-108302302D01*
X140129358Y-108135880D01*
X140129356Y-108135875D01*
X140037315Y-107986654D01*
X139913345Y-107862684D01*
X139764124Y-107770643D01*
X139764119Y-107770641D01*
X139597697Y-107715494D01*
X139597690Y-107715493D01*
X139494986Y-107705000D01*
X139250000Y-107705000D01*
X139250000Y-108750000D01*
X138750000Y-108750000D01*
X138750000Y-107705000D01*
X138505029Y-107705000D01*
X138505012Y-107705001D01*
X138402302Y-107715494D01*
X138235880Y-107770641D01*
X138235875Y-107770643D01*
X138086654Y-107862684D01*
X137962684Y-107986654D01*
X137886551Y-108110086D01*
X137834603Y-108156810D01*
X137765640Y-108168033D01*
X137701558Y-108140189D01*
X137693331Y-108132670D01*
X137618345Y-108057684D01*
X137469124Y-107965643D01*
X137469119Y-107965641D01*
X137302697Y-107910494D01*
X137302690Y-107910493D01*
X137199986Y-107900000D01*
X136750000Y-107900000D01*
X136250000Y-107900000D01*
X135800028Y-107900000D01*
X135800012Y-107900001D01*
X135697302Y-107910494D01*
X135530880Y-107965641D01*
X135530875Y-107965643D01*
X135381654Y-108057684D01*
X135257682Y-108181656D01*
X135222033Y-108239453D01*
X135170085Y-108286177D01*
X135101122Y-108297398D01*
X135037040Y-108269555D01*
X135006603Y-108226349D01*
X135004628Y-108227329D01*
X134917032Y-108050707D01*
X134917030Y-108050704D01*
X134797722Y-107902278D01*
X134797721Y-107902277D01*
X134649296Y-107782970D01*
X134623402Y-107770127D01*
X134572091Y-107722704D01*
X134554500Y-107659040D01*
X134554500Y-106816000D01*
X134574185Y-106748961D01*
X134626989Y-106703206D01*
X134678500Y-106692000D01*
X135109959Y-106692000D01*
X135119749Y-106694874D01*
G37*
%TD.AperFunction*%
%TA.AperFunction,Conductor*%
G36*
X129724502Y-104282931D02*
G01*
X129726949Y-104283908D01*
X129726951Y-104283909D01*
X129922582Y-104339886D01*
X130041963Y-104350500D01*
X130621500Y-104350499D01*
X130688539Y-104370183D01*
X130734294Y-104422987D01*
X130745500Y-104474499D01*
X130745500Y-107659040D01*
X130725815Y-107726079D01*
X130676598Y-107770127D01*
X130650703Y-107782970D01*
X130502280Y-107902276D01*
X130502278Y-107902278D01*
X130482447Y-107926949D01*
X130446326Y-107971885D01*
X130388982Y-108011803D01*
X130319160Y-108014383D01*
X130259027Y-107978804D01*
X130253031Y-107971884D01*
X130197364Y-107902630D01*
X130049025Y-107783392D01*
X130049022Y-107783390D01*
X129878523Y-107698831D01*
X129693824Y-107652897D01*
X129651097Y-107650000D01*
X129450000Y-107650000D01*
X129450000Y-109026000D01*
X129430315Y-109093039D01*
X129377511Y-109138794D01*
X129326000Y-109150000D01*
X129074000Y-109150000D01*
X129006961Y-109130315D01*
X128961206Y-109077511D01*
X128950000Y-109026000D01*
X128950000Y-107632381D01*
X128937707Y-107609869D01*
X128942691Y-107540177D01*
X128971188Y-107495834D01*
X129280963Y-107186060D01*
X129280966Y-107186059D01*
X129386059Y-107080966D01*
X129439392Y-107001147D01*
X129452462Y-106981587D01*
X129460323Y-106969821D01*
X129468630Y-106957389D01*
X129508051Y-106862218D01*
X129525505Y-106820080D01*
X129534288Y-106775924D01*
X129550286Y-106695500D01*
X129554501Y-106674313D01*
X129554501Y-106520578D01*
X129554500Y-106520552D01*
X129554500Y-104398082D01*
X129574185Y-104331043D01*
X129626989Y-104285288D01*
X129696147Y-104275344D01*
X129724502Y-104282931D01*
G37*
%TD.AperFunction*%
%TA.AperFunction,Conductor*%
G36*
X131422914Y-90372242D02*
G01*
X131478848Y-90414113D01*
X131503265Y-90479577D01*
X131501199Y-90512610D01*
X131499500Y-90521151D01*
X131499500Y-90678846D01*
X131530261Y-90833489D01*
X131530264Y-90833501D01*
X131590602Y-90979172D01*
X131590609Y-90979185D01*
X131678210Y-91110288D01*
X131678213Y-91110292D01*
X131789710Y-91221789D01*
X131857426Y-91267035D01*
X131920821Y-91309394D01*
X131934815Y-91315190D01*
X131941750Y-91319823D01*
X131946794Y-91320921D01*
X131975048Y-91342072D01*
X132149181Y-91516205D01*
X132182666Y-91577528D01*
X132185500Y-91603886D01*
X132185500Y-96244249D01*
X132165815Y-96311288D01*
X132113011Y-96357043D01*
X132100506Y-96361954D01*
X132075668Y-96370184D01*
X131926342Y-96462289D01*
X131802289Y-96586342D01*
X131710187Y-96735663D01*
X131710185Y-96735668D01*
X131710115Y-96735880D01*
X131655001Y-96902203D01*
X131655001Y-96902204D01*
X131655000Y-96902204D01*
X131644500Y-97004983D01*
X131644500Y-97995001D01*
X131644501Y-97995019D01*
X131655000Y-98097796D01*
X131655001Y-98097799D01*
X131710115Y-98264119D01*
X131710186Y-98264334D01*
X131802288Y-98413656D01*
X131926344Y-98537712D01*
X132075666Y-98629814D01*
X132075667Y-98629814D01*
X132081813Y-98633605D01*
X132080917Y-98635057D01*
X132126610Y-98675286D01*
X132145765Y-98742479D01*
X132125552Y-98809361D01*
X132109451Y-98829180D01*
X132057289Y-98881342D01*
X131965187Y-99030663D01*
X131965185Y-99030668D01*
X131914469Y-99183719D01*
X131907381Y-99193956D01*
X131904518Y-99206073D01*
X131887867Y-99222139D01*
X131874696Y-99241164D01*
X131861981Y-99247118D01*
X131854240Y-99254589D01*
X131820955Y-99266332D01*
X131804105Y-99269684D01*
X131779920Y-99274495D01*
X131752391Y-99285898D01*
X131642614Y-99331368D01*
X131642606Y-99331373D01*
X131631540Y-99338767D01*
X131601605Y-99358769D01*
X131573556Y-99377511D01*
X131519033Y-99413941D01*
X131478873Y-99454102D01*
X131413941Y-99519034D01*
X131413939Y-99519036D01*
X131355689Y-99577286D01*
X131311680Y-99621295D01*
X131250357Y-99654779D01*
X131180665Y-99649795D01*
X131124732Y-99607923D01*
X131100315Y-99542458D01*
X131099999Y-99533613D01*
X131099999Y-99300028D01*
X131099998Y-99300013D01*
X131089505Y-99197302D01*
X131034358Y-99030880D01*
X131034356Y-99030875D01*
X130942315Y-98881654D01*
X130889688Y-98829027D01*
X130856203Y-98767704D01*
X130861187Y-98698012D01*
X130903059Y-98642079D01*
X130917975Y-98633150D01*
X130917975Y-98633149D01*
X131073345Y-98537315D01*
X131197315Y-98413345D01*
X131289356Y-98264124D01*
X131289358Y-98264119D01*
X131344505Y-98097697D01*
X131344506Y-98097690D01*
X131354999Y-97994986D01*
X131355000Y-97994973D01*
X131355000Y-97750000D01*
X130310000Y-97750000D01*
X130310000Y-98701000D01*
X130290315Y-98768039D01*
X130237511Y-98813794D01*
X130187917Y-98824582D01*
X130187500Y-98825000D01*
X130187500Y-99876000D01*
X130167815Y-99943039D01*
X130115011Y-99988794D01*
X130063500Y-100000000D01*
X129937500Y-100000000D01*
X129937500Y-100126000D01*
X129917815Y-100193039D01*
X129865011Y-100238794D01*
X129813500Y-100250000D01*
X128775001Y-100250000D01*
X128775001Y-100699986D01*
X128785494Y-100802697D01*
X128840641Y-100969119D01*
X128840643Y-100969124D01*
X128932684Y-101118345D01*
X129056654Y-101242315D01*
X129205875Y-101334356D01*
X129205880Y-101334358D01*
X129372306Y-101389506D01*
X129375051Y-101390094D01*
X129376580Y-101390922D01*
X129378730Y-101391635D01*
X129378602Y-101392018D01*
X129436483Y-101423377D01*
X129470170Y-101484590D01*
X129465415Y-101554297D01*
X129427452Y-101607447D01*
X129388893Y-101638887D01*
X129269352Y-101785494D01*
X129260302Y-101796593D01*
X129237292Y-101840643D01*
X129166089Y-101976954D01*
X129110114Y-102172583D01*
X129110113Y-102172586D01*
X129104202Y-102239074D01*
X129099621Y-102290609D01*
X129099500Y-102291966D01*
X129099500Y-102382112D01*
X129079815Y-102449151D01*
X129063181Y-102469793D01*
X128213943Y-103319030D01*
X128213942Y-103319031D01*
X128127986Y-103447676D01*
X128126019Y-103446362D01*
X128084396Y-103488735D01*
X128016259Y-103504196D01*
X127950579Y-103480365D01*
X127908210Y-103424807D01*
X127900000Y-103380438D01*
X127900000Y-103187500D01*
X126750000Y-103187500D01*
X126750000Y-104099999D01*
X127199972Y-104099999D01*
X127199986Y-104099998D01*
X127302697Y-104089505D01*
X127469119Y-104034358D01*
X127469124Y-104034356D01*
X127618345Y-103942315D01*
X127742315Y-103818345D01*
X127815960Y-103698949D01*
X127816847Y-103698151D01*
X127817183Y-103697007D01*
X127842750Y-103674852D01*
X127867908Y-103652225D01*
X127869085Y-103652033D01*
X127869987Y-103651252D01*
X127903473Y-103646437D01*
X127936871Y-103641002D01*
X127937965Y-103641477D01*
X127939145Y-103641308D01*
X127969920Y-103655362D01*
X128000953Y-103668846D01*
X128001615Y-103669836D01*
X128002701Y-103670332D01*
X128021004Y-103698812D01*
X128039809Y-103726915D01*
X128040041Y-103728434D01*
X128040476Y-103729110D01*
X128045496Y-103764029D01*
X128045499Y-103764045D01*
X128045499Y-103874312D01*
X128045499Y-103874316D01*
X128045500Y-103880436D01*
X128045500Y-105235004D01*
X128025815Y-105302043D01*
X127973011Y-105347798D01*
X127903853Y-105357742D01*
X127840297Y-105328717D01*
X127815961Y-105300101D01*
X127742712Y-105181344D01*
X127618656Y-105057288D01*
X127489780Y-104977797D01*
X127469336Y-104965187D01*
X127469331Y-104965185D01*
X127441419Y-104955936D01*
X127302797Y-104910001D01*
X127302795Y-104910000D01*
X127200010Y-104899500D01*
X125799998Y-104899500D01*
X125799981Y-104899501D01*
X125697203Y-104910000D01*
X125697200Y-104910001D01*
X125530668Y-104965185D01*
X125530663Y-104965187D01*
X125381342Y-105057289D01*
X125329180Y-105109451D01*
X125267857Y-105142935D01*
X125198165Y-105137950D01*
X125142232Y-105096079D01*
X125133668Y-105081773D01*
X125133605Y-105081813D01*
X125117896Y-105056344D01*
X125037712Y-104926344D01*
X124913656Y-104802288D01*
X124800508Y-104732498D01*
X124764336Y-104710187D01*
X124764331Y-104710185D01*
X124719613Y-104695367D01*
X124597797Y-104655001D01*
X124597795Y-104655000D01*
X124495010Y-104644500D01*
X123504998Y-104644500D01*
X123504980Y-104644501D01*
X123402203Y-104655000D01*
X123402200Y-104655001D01*
X123235668Y-104710185D01*
X123235663Y-104710187D01*
X123086342Y-104802289D01*
X122966181Y-104922451D01*
X122904858Y-104955936D01*
X122835166Y-104950952D01*
X122779233Y-104909080D01*
X122754816Y-104843616D01*
X122754500Y-104834770D01*
X122754500Y-104164523D01*
X122774185Y-104097484D01*
X122826989Y-104051729D01*
X122896147Y-104041785D01*
X122959703Y-104070810D01*
X122966181Y-104076842D01*
X123086654Y-104197315D01*
X123235875Y-104289356D01*
X123235880Y-104289358D01*
X123402302Y-104344505D01*
X123402309Y-104344506D01*
X123505019Y-104354999D01*
X123749999Y-104354999D01*
X123750000Y-104354998D01*
X123750000Y-103310000D01*
X124250000Y-103310000D01*
X124250000Y-104354999D01*
X124494972Y-104354999D01*
X124494986Y-104354998D01*
X124597697Y-104344505D01*
X124764119Y-104289358D01*
X124764124Y-104289356D01*
X124913345Y-104197315D01*
X125037315Y-104073345D01*
X125133149Y-103917975D01*
X125134429Y-103918764D01*
X125175116Y-103872538D01*
X125242306Y-103853373D01*
X125309191Y-103873575D01*
X125329027Y-103889688D01*
X125381654Y-103942315D01*
X125530875Y-104034356D01*
X125530880Y-104034358D01*
X125697302Y-104089505D01*
X125697309Y-104089506D01*
X125800019Y-104099999D01*
X126249999Y-104099999D01*
X126250000Y-104099998D01*
X126250000Y-103187500D01*
X125325000Y-103187500D01*
X125324376Y-103188123D01*
X125305315Y-103253039D01*
X125252511Y-103298794D01*
X125201000Y-103310000D01*
X124250000Y-103310000D01*
X123750000Y-103310000D01*
X123750000Y-102810000D01*
X124250000Y-102810000D01*
X124970000Y-102810000D01*
X124970623Y-102809376D01*
X124989685Y-102744461D01*
X125042489Y-102698706D01*
X125094000Y-102687500D01*
X126250000Y-102687500D01*
X126750000Y-102687500D01*
X127899999Y-102687500D01*
X127899999Y-102475028D01*
X127899998Y-102475013D01*
X127889505Y-102372302D01*
X127834358Y-102205880D01*
X127834356Y-102205875D01*
X127742315Y-102056654D01*
X127618345Y-101932684D01*
X127469124Y-101840643D01*
X127469119Y-101840641D01*
X127302697Y-101785494D01*
X127302690Y-101785493D01*
X127199986Y-101775000D01*
X126750000Y-101775000D01*
X126750000Y-102687500D01*
X126250000Y-102687500D01*
X126250000Y-101775000D01*
X125800028Y-101775000D01*
X125800012Y-101775001D01*
X125697302Y-101785494D01*
X125530880Y-101840641D01*
X125530875Y-101840643D01*
X125381654Y-101932684D01*
X125257683Y-102056655D01*
X125257678Y-102056661D01*
X125256119Y-102059190D01*
X125254596Y-102060558D01*
X125253202Y-102062323D01*
X125252900Y-102062084D01*
X125204169Y-102105912D01*
X125135206Y-102117131D01*
X125071125Y-102089284D01*
X125045047Y-102059187D01*
X125037319Y-102046659D01*
X125037316Y-102046655D01*
X124913345Y-101922684D01*
X124764124Y-101830643D01*
X124764119Y-101830641D01*
X124597697Y-101775494D01*
X124597690Y-101775493D01*
X124494986Y-101765000D01*
X124250000Y-101765000D01*
X124250000Y-102810000D01*
X123750000Y-102810000D01*
X123750000Y-101765000D01*
X123505029Y-101765000D01*
X123505012Y-101765001D01*
X123402302Y-101775494D01*
X123235880Y-101830641D01*
X123235875Y-101830643D01*
X123086654Y-101922684D01*
X122966181Y-102043158D01*
X122904858Y-102076643D01*
X122835166Y-102071659D01*
X122779233Y-102029787D01*
X122754816Y-101964323D01*
X122754500Y-101955477D01*
X122754500Y-100323886D01*
X122774185Y-100256847D01*
X122790819Y-100236205D01*
X123438319Y-99588705D01*
X123499642Y-99555220D01*
X123569334Y-99560204D01*
X123625267Y-99602076D01*
X123649684Y-99667540D01*
X123650000Y-99676386D01*
X123650000Y-100397844D01*
X123656401Y-100457372D01*
X123656403Y-100457379D01*
X123706645Y-100592086D01*
X123706649Y-100592093D01*
X123792809Y-100707187D01*
X123792812Y-100707190D01*
X123907906Y-100793350D01*
X123907913Y-100793354D01*
X124042620Y-100843596D01*
X124042627Y-100843598D01*
X124102155Y-100849999D01*
X124102172Y-100850000D01*
X124750000Y-100850000D01*
X124750000Y-99933012D01*
X124807007Y-99965925D01*
X124934174Y-100000000D01*
X125065826Y-100000000D01*
X125192993Y-99965925D01*
X125250000Y-99933012D01*
X125250000Y-100850000D01*
X125897828Y-100850000D01*
X125897844Y-100849999D01*
X125957372Y-100843598D01*
X125957379Y-100843596D01*
X126092086Y-100793354D01*
X126092093Y-100793350D01*
X126207187Y-100707190D01*
X126207190Y-100707187D01*
X126293350Y-100592093D01*
X126293354Y-100592086D01*
X126343596Y-100457379D01*
X126343598Y-100457372D01*
X126349999Y-100397844D01*
X126350000Y-100397827D01*
X126350000Y-99750000D01*
X125433012Y-99750000D01*
X125465925Y-99692993D01*
X125500000Y-99565826D01*
X125500000Y-99434174D01*
X125465925Y-99307007D01*
X125433012Y-99250000D01*
X126350000Y-99250000D01*
X126350000Y-98602172D01*
X126349999Y-98602155D01*
X126343598Y-98542627D01*
X126343596Y-98542620D01*
X126293354Y-98407913D01*
X126293350Y-98407906D01*
X126207190Y-98292812D01*
X126207187Y-98292809D01*
X126092093Y-98206649D01*
X126092088Y-98206646D01*
X125960528Y-98157577D01*
X125904595Y-98115705D01*
X125880178Y-98050241D01*
X125892198Y-97994986D01*
X128765001Y-97994986D01*
X128775494Y-98097697D01*
X128830641Y-98264119D01*
X128830643Y-98264124D01*
X128922684Y-98413345D01*
X129046655Y-98537316D01*
X129046659Y-98537319D01*
X129059187Y-98545047D01*
X129105911Y-98596996D01*
X129117131Y-98665958D01*
X129089287Y-98730040D01*
X129059190Y-98756119D01*
X129056661Y-98757678D01*
X129056655Y-98757683D01*
X128932684Y-98881654D01*
X128840643Y-99030875D01*
X128840641Y-99030880D01*
X128785494Y-99197302D01*
X128785493Y-99197309D01*
X128775000Y-99300013D01*
X128775000Y-99750000D01*
X129687500Y-99750000D01*
X129687500Y-98594000D01*
X129707185Y-98526961D01*
X129759989Y-98481206D01*
X129809582Y-98470417D01*
X129810000Y-98470000D01*
X129810000Y-97750000D01*
X128765001Y-97750000D01*
X128765001Y-97994986D01*
X125892198Y-97994986D01*
X125895030Y-97981968D01*
X125916175Y-97953720D01*
X126030104Y-97839792D01*
X126155051Y-97667816D01*
X126251557Y-97478412D01*
X126317246Y-97276243D01*
X126350500Y-97066287D01*
X126350500Y-97005013D01*
X128765000Y-97005013D01*
X128765000Y-97250000D01*
X129810000Y-97250000D01*
X130310000Y-97250000D01*
X131354999Y-97250000D01*
X131354999Y-97005028D01*
X131354998Y-97005013D01*
X131344505Y-96902302D01*
X131289358Y-96735880D01*
X131289356Y-96735875D01*
X131197315Y-96586654D01*
X131073345Y-96462684D01*
X130924124Y-96370643D01*
X130924119Y-96370641D01*
X130757697Y-96315494D01*
X130757690Y-96315493D01*
X130654986Y-96305000D01*
X130310000Y-96305000D01*
X130310000Y-97250000D01*
X129810000Y-97250000D01*
X129810000Y-96305000D01*
X129465028Y-96305000D01*
X129465012Y-96305001D01*
X129362302Y-96315494D01*
X129195880Y-96370641D01*
X129195875Y-96370643D01*
X129046654Y-96462684D01*
X128922684Y-96586654D01*
X128830643Y-96735875D01*
X128830641Y-96735880D01*
X128775494Y-96902302D01*
X128775493Y-96902309D01*
X128765000Y-97005013D01*
X126350500Y-97005013D01*
X126350500Y-96853713D01*
X126317246Y-96643757D01*
X126251557Y-96441588D01*
X126155051Y-96252184D01*
X126155049Y-96252181D01*
X126155048Y-96252179D01*
X126030109Y-96080213D01*
X125879786Y-95929890D01*
X125707820Y-95804951D01*
X125706644Y-95804352D01*
X125699054Y-95800485D01*
X125648259Y-95752512D01*
X125631463Y-95684692D01*
X125653999Y-95618556D01*
X125699054Y-95579515D01*
X125707816Y-95575051D01*
X125761074Y-95536357D01*
X125879786Y-95450109D01*
X125879788Y-95450106D01*
X125879792Y-95450104D01*
X126030104Y-95299792D01*
X126030106Y-95299788D01*
X126030109Y-95299786D01*
X126155048Y-95127820D01*
X126155047Y-95127820D01*
X126155051Y-95127816D01*
X126251557Y-94938412D01*
X126317246Y-94736243D01*
X126350500Y-94526287D01*
X126350500Y-94313713D01*
X126317246Y-94103757D01*
X126251557Y-93901588D01*
X126155051Y-93712184D01*
X126155049Y-93712181D01*
X126155048Y-93712179D01*
X126030109Y-93540213D01*
X125977468Y-93487572D01*
X125943983Y-93426249D01*
X125948967Y-93356557D01*
X125977468Y-93312210D01*
X126229621Y-93060057D01*
X126588675Y-92701004D01*
X126664599Y-92569500D01*
X126703900Y-92422826D01*
X126703900Y-92270978D01*
X126703900Y-91863039D01*
X126723585Y-91796000D01*
X126740219Y-91775358D01*
X127849158Y-90666419D01*
X127910481Y-90632934D01*
X127936839Y-90630100D01*
X130899589Y-90630100D01*
X130899591Y-90630100D01*
X131046265Y-90590799D01*
X131177769Y-90514875D01*
X131291903Y-90400740D01*
X131353222Y-90367258D01*
X131422914Y-90372242D01*
G37*
%TD.AperFunction*%
%TA.AperFunction,Conductor*%
G36*
X138030045Y-99676844D02*
G01*
X138030538Y-99676704D01*
X138063542Y-99686680D01*
X138096593Y-99696385D01*
X138096927Y-99696771D01*
X138097419Y-99696920D01*
X138119839Y-99723213D01*
X138142348Y-99749189D01*
X138142420Y-99749694D01*
X138142754Y-99750085D01*
X138147394Y-99784286D01*
X138152292Y-99818347D01*
X138152102Y-99818983D01*
X138152148Y-99819320D01*
X138141937Y-99853103D01*
X138141936Y-99853105D01*
X138140642Y-99855878D01*
X138085494Y-100022303D01*
X138085493Y-100022310D01*
X138075000Y-100125014D01*
X138075000Y-100550000D01*
X139163500Y-100550000D01*
X139230539Y-100569685D01*
X139276294Y-100622489D01*
X139287500Y-100674000D01*
X139287500Y-100926000D01*
X139267815Y-100993039D01*
X139215011Y-101038794D01*
X139163500Y-101050000D01*
X138075000Y-101050000D01*
X138075000Y-101474985D01*
X138085493Y-101577689D01*
X138085494Y-101577696D01*
X138140641Y-101744118D01*
X138140643Y-101744123D01*
X138232684Y-101893344D01*
X138356657Y-102017317D01*
X138402335Y-102045491D01*
X138449060Y-102097438D01*
X138460283Y-102166401D01*
X138432440Y-102230483D01*
X138424921Y-102238711D01*
X138357287Y-102306345D01*
X138265187Y-102455663D01*
X138265185Y-102455668D01*
X138253847Y-102489884D01*
X138210001Y-102622203D01*
X138210001Y-102622204D01*
X138210000Y-102622204D01*
X138199500Y-102724983D01*
X138199500Y-104075001D01*
X138199501Y-104075018D01*
X138210000Y-104177796D01*
X138210001Y-104177799D01*
X138265185Y-104344331D01*
X138265189Y-104344340D01*
X138350817Y-104483165D01*
X138353615Y-104493392D01*
X138360205Y-104501701D01*
X138362677Y-104526509D01*
X138369257Y-104550557D01*
X138366264Y-104562514D01*
X138367133Y-104571226D01*
X138359259Y-104590508D01*
X138355727Y-104604626D01*
X138352417Y-104611111D01*
X138331370Y-104642611D01*
X138311825Y-104689798D01*
X138309950Y-104694322D01*
X138309945Y-104694334D01*
X138274494Y-104779921D01*
X138274492Y-104779926D01*
X138270600Y-104799496D01*
X138270600Y-104799500D01*
X138268454Y-104810288D01*
X138265463Y-104825323D01*
X138233076Y-104887234D01*
X138208943Y-104906667D01*
X138086347Y-104982285D01*
X138086343Y-104982288D01*
X137957181Y-105111451D01*
X137955073Y-105109343D01*
X137909023Y-105141920D01*
X137839222Y-105145027D01*
X137778823Y-105109903D01*
X137763294Y-105089712D01*
X137742712Y-105056344D01*
X137618657Y-104932289D01*
X137618656Y-104932288D01*
X137491265Y-104853713D01*
X137469336Y-104840187D01*
X137469331Y-104840185D01*
X137467862Y-104839698D01*
X137302797Y-104785001D01*
X137302795Y-104785000D01*
X137243537Y-104778946D01*
X137178845Y-104752549D01*
X137138695Y-104695367D01*
X137135833Y-104625556D01*
X137168457Y-104567910D01*
X137242712Y-104493656D01*
X137334814Y-104344334D01*
X137389999Y-104177797D01*
X137400500Y-104075009D01*
X137400499Y-102724992D01*
X137389999Y-102622203D01*
X137334814Y-102455666D01*
X137242712Y-102306344D01*
X137175442Y-102239074D01*
X137141957Y-102177751D01*
X137146941Y-102108059D01*
X137188813Y-102052126D01*
X137198012Y-102045863D01*
X137243655Y-102017711D01*
X137367711Y-101893655D01*
X137459814Y-101744334D01*
X137514999Y-101577797D01*
X137525500Y-101475008D01*
X137525500Y-100124992D01*
X137514999Y-100022203D01*
X137459814Y-99855666D01*
X137459812Y-99855662D01*
X137458619Y-99853103D01*
X137458326Y-99851177D01*
X137457542Y-99848810D01*
X137457946Y-99848675D01*
X137448128Y-99784025D01*
X137476649Y-99720242D01*
X137535127Y-99682003D01*
X137571002Y-99676700D01*
X138029554Y-99676700D01*
X138030045Y-99676844D01*
G37*
%TD.AperFunction*%
%TA.AperFunction,Conductor*%
G36*
X121619820Y-75520185D02*
G01*
X121665575Y-75572989D01*
X121675519Y-75642147D01*
X121667548Y-75668901D01*
X121667914Y-75669023D01*
X121610494Y-75842302D01*
X121610493Y-75842309D01*
X121600000Y-75945013D01*
X121600000Y-76270000D01*
X123899999Y-76270000D01*
X123899999Y-75945028D01*
X123899998Y-75945013D01*
X123889505Y-75842302D01*
X123832086Y-75669023D01*
X123833563Y-75668533D01*
X123824346Y-75607817D01*
X123852871Y-75544036D01*
X123911351Y-75505801D01*
X123947219Y-75500500D01*
X126052227Y-75500500D01*
X126119266Y-75520185D01*
X126165021Y-75572989D01*
X126174965Y-75642147D01*
X126167059Y-75668678D01*
X126167458Y-75668811D01*
X126165187Y-75675664D01*
X126165186Y-75675666D01*
X126110001Y-75842203D01*
X126110001Y-75842204D01*
X126110000Y-75842204D01*
X126099500Y-75944983D01*
X126099500Y-77095001D01*
X126099501Y-77095018D01*
X126110000Y-77197796D01*
X126110001Y-77197799D01*
X126165115Y-77364119D01*
X126165186Y-77364334D01*
X126257288Y-77513656D01*
X126381344Y-77637712D01*
X126530666Y-77729814D01*
X126588303Y-77748913D01*
X126645748Y-77788683D01*
X126672572Y-77853199D01*
X126673300Y-77866618D01*
X126673300Y-83133380D01*
X126653615Y-83200419D01*
X126600811Y-83246174D01*
X126588305Y-83251086D01*
X126530666Y-83270186D01*
X126381342Y-83362289D01*
X126257289Y-83486342D01*
X126165187Y-83635663D01*
X126165185Y-83635668D01*
X126153103Y-83672129D01*
X126110001Y-83802203D01*
X126110001Y-83802204D01*
X126110000Y-83802204D01*
X126099500Y-83904983D01*
X126099500Y-85055001D01*
X126099501Y-85055018D01*
X126110000Y-85157796D01*
X126110001Y-85157799D01*
X126140554Y-85250000D01*
X126165186Y-85324334D01*
X126257288Y-85473656D01*
X126381344Y-85597712D01*
X126530666Y-85689814D01*
X126697203Y-85744999D01*
X126799991Y-85755500D01*
X127700008Y-85755499D01*
X127700016Y-85755498D01*
X127700019Y-85755498D01*
X127756302Y-85749748D01*
X127802797Y-85744999D01*
X127938637Y-85699986D01*
X128775001Y-85699986D01*
X128785494Y-85802697D01*
X128840641Y-85969119D01*
X128840643Y-85969124D01*
X128932684Y-86118345D01*
X129056654Y-86242315D01*
X129205875Y-86334356D01*
X129205880Y-86334358D01*
X129372302Y-86389505D01*
X129372309Y-86389506D01*
X129475019Y-86399999D01*
X129687499Y-86399999D01*
X129687500Y-86399998D01*
X129687500Y-85250000D01*
X128775001Y-85250000D01*
X128775001Y-85699986D01*
X127938637Y-85699986D01*
X127969334Y-85689814D01*
X128118656Y-85597712D01*
X128242712Y-85473656D01*
X128334814Y-85324334D01*
X128389999Y-85157797D01*
X128400500Y-85055009D01*
X128400499Y-83904992D01*
X128396765Y-83868443D01*
X128389999Y-83802203D01*
X128389998Y-83802200D01*
X128375247Y-83757684D01*
X128334814Y-83635666D01*
X128242712Y-83486344D01*
X128118656Y-83362288D01*
X127969334Y-83270186D01*
X127911695Y-83251086D01*
X127854250Y-83211312D01*
X127827428Y-83146796D01*
X127826700Y-83133380D01*
X127826700Y-78211639D01*
X127846385Y-78144600D01*
X127899189Y-78098845D01*
X127968347Y-78088901D01*
X128031903Y-78117926D01*
X128038381Y-78123958D01*
X128229298Y-78314875D01*
X128229299Y-78314876D01*
X128229301Y-78314877D01*
X128234508Y-78317883D01*
X128360802Y-78390799D01*
X128507476Y-78430100D01*
X128659324Y-78430100D01*
X129046702Y-78430100D01*
X129113741Y-78449785D01*
X129159496Y-78502589D01*
X129169440Y-78571747D01*
X129164408Y-78593099D01*
X129115001Y-78742203D01*
X129115001Y-78742204D01*
X129115000Y-78742204D01*
X129104500Y-78844983D01*
X129104500Y-80035001D01*
X129104501Y-80035018D01*
X129115000Y-80137796D01*
X129115001Y-80137799D01*
X129117814Y-80146287D01*
X129170186Y-80304334D01*
X129219212Y-80383819D01*
X129262289Y-80453657D01*
X129304702Y-80496070D01*
X129338187Y-80557393D01*
X129333203Y-80627085D01*
X129291331Y-80683018D01*
X129282118Y-80689290D01*
X129131342Y-80782289D01*
X129007289Y-80906342D01*
X128915187Y-81055663D01*
X128915185Y-81055668D01*
X128910400Y-81070109D01*
X128860001Y-81222203D01*
X128860001Y-81222204D01*
X128860000Y-81222204D01*
X128849500Y-81324983D01*
X128849500Y-82675001D01*
X128849501Y-82675018D01*
X128860000Y-82777796D01*
X128860001Y-82777799D01*
X128899249Y-82896239D01*
X128915186Y-82944334D01*
X129007288Y-83093656D01*
X129131344Y-83217712D01*
X129280666Y-83309814D01*
X129445998Y-83364599D01*
X129503441Y-83404370D01*
X129530264Y-83468886D01*
X129517949Y-83537662D01*
X129470406Y-83588862D01*
X129419596Y-83605662D01*
X129372302Y-83610494D01*
X129205880Y-83665641D01*
X129205875Y-83665643D01*
X129056654Y-83757684D01*
X128932684Y-83881654D01*
X128840643Y-84030875D01*
X128840641Y-84030880D01*
X128785494Y-84197302D01*
X128785493Y-84197309D01*
X128775000Y-84300013D01*
X128775000Y-84750000D01*
X129813500Y-84750000D01*
X129880539Y-84769685D01*
X129926294Y-84822489D01*
X129937500Y-84874000D01*
X129937500Y-85000000D01*
X130063500Y-85000000D01*
X130130539Y-85019685D01*
X130176294Y-85072489D01*
X130187500Y-85124000D01*
X130187500Y-86399999D01*
X130399972Y-86399999D01*
X130399986Y-86399998D01*
X130508898Y-86388872D01*
X130577591Y-86401641D01*
X130628475Y-86449522D01*
X130645500Y-86512230D01*
X130645500Y-86905053D01*
X130636062Y-86952501D01*
X130630263Y-86966503D01*
X130630262Y-86966506D01*
X130630260Y-86966511D01*
X130599500Y-87121153D01*
X130599500Y-87278846D01*
X130630261Y-87433489D01*
X130630264Y-87433501D01*
X130690602Y-87579172D01*
X130690609Y-87579185D01*
X130778210Y-87710288D01*
X130778213Y-87710292D01*
X130889707Y-87821786D01*
X130889711Y-87821789D01*
X130974143Y-87878205D01*
X131018948Y-87931817D01*
X131027655Y-88001142D01*
X130997501Y-88064169D01*
X130992933Y-88068988D01*
X130334942Y-88726981D01*
X130273619Y-88760466D01*
X130247261Y-88763300D01*
X126297845Y-88763300D01*
X126230806Y-88743615D01*
X126187360Y-88695594D01*
X126155050Y-88632182D01*
X126030109Y-88460213D01*
X125879786Y-88309890D01*
X125707820Y-88184951D01*
X125518414Y-88088444D01*
X125518413Y-88088443D01*
X125518412Y-88088443D01*
X125316243Y-88022754D01*
X125316241Y-88022753D01*
X125316240Y-88022753D01*
X125139674Y-87994788D01*
X125106287Y-87989500D01*
X124893713Y-87989500D01*
X124860326Y-87994788D01*
X124683760Y-88022753D01*
X124683757Y-88022754D01*
X124482281Y-88088218D01*
X124481585Y-88088444D01*
X124292179Y-88184951D01*
X124120213Y-88309890D01*
X123969890Y-88460213D01*
X123844951Y-88632179D01*
X123748444Y-88821585D01*
X123682753Y-89023760D01*
X123649500Y-89233713D01*
X123649500Y-89446286D01*
X123668541Y-89566510D01*
X123682754Y-89656243D01*
X123747710Y-89856157D01*
X123748444Y-89858414D01*
X123844951Y-90047820D01*
X123969890Y-90219786D01*
X124120213Y-90370109D01*
X124292182Y-90495050D01*
X124300946Y-90499516D01*
X124351742Y-90547491D01*
X124368536Y-90615312D01*
X124345998Y-90681447D01*
X124300946Y-90720484D01*
X124292182Y-90724949D01*
X124120213Y-90849890D01*
X123969890Y-91000213D01*
X123844951Y-91172179D01*
X123748444Y-91361585D01*
X123682753Y-91563760D01*
X123649500Y-91773713D01*
X123649500Y-91986286D01*
X123678017Y-92166339D01*
X123682754Y-92196243D01*
X123691545Y-92223300D01*
X123748444Y-92398414D01*
X123844951Y-92587820D01*
X123969890Y-92759786D01*
X123969896Y-92759792D01*
X124120208Y-92910104D01*
X124292184Y-93035051D01*
X124300945Y-93039514D01*
X124351740Y-93087487D01*
X124368536Y-93155307D01*
X124346000Y-93221443D01*
X124300953Y-93260480D01*
X124292181Y-93264950D01*
X124120213Y-93389890D01*
X123969890Y-93540213D01*
X123844951Y-93712179D01*
X123748444Y-93901585D01*
X123682753Y-94103760D01*
X123649500Y-94313713D01*
X123649500Y-94526286D01*
X123677124Y-94700700D01*
X123682754Y-94736243D01*
X123728572Y-94877257D01*
X123748444Y-94938414D01*
X123844951Y-95127820D01*
X123969890Y-95299786D01*
X124120213Y-95450109D01*
X124292182Y-95575050D01*
X124300946Y-95579516D01*
X124351742Y-95627491D01*
X124368536Y-95695312D01*
X124345998Y-95761447D01*
X124300946Y-95800484D01*
X124292182Y-95804949D01*
X124120215Y-95929889D01*
X124049118Y-96000986D01*
X123987794Y-96034470D01*
X123918103Y-96029485D01*
X123862169Y-95987614D01*
X123846878Y-95960760D01*
X123822743Y-95902493D01*
X123799062Y-95861477D01*
X123675238Y-95647006D01*
X123495647Y-95412959D01*
X123495641Y-95412952D01*
X123287047Y-95204358D01*
X123287040Y-95204352D01*
X123052993Y-95024761D01*
X122797510Y-94877258D01*
X122797500Y-94877254D01*
X122524961Y-94764364D01*
X122524954Y-94764362D01*
X122524952Y-94764361D01*
X122239993Y-94688007D01*
X122191113Y-94681571D01*
X121947513Y-94649500D01*
X121947506Y-94649500D01*
X121652494Y-94649500D01*
X121652486Y-94649500D01*
X121374085Y-94686153D01*
X121360007Y-94688007D01*
X121179987Y-94736243D01*
X121075048Y-94764361D01*
X121075038Y-94764364D01*
X120802499Y-94877254D01*
X120802489Y-94877258D01*
X120547006Y-95024761D01*
X120312959Y-95204352D01*
X120312952Y-95204358D01*
X120212181Y-95305130D01*
X120150858Y-95338615D01*
X120081166Y-95333631D01*
X120025233Y-95291759D01*
X120000816Y-95226295D01*
X120000500Y-95217449D01*
X120000500Y-85054986D01*
X121600001Y-85054986D01*
X121610494Y-85157697D01*
X121665641Y-85324119D01*
X121665643Y-85324124D01*
X121757684Y-85473345D01*
X121881654Y-85597315D01*
X122030875Y-85689356D01*
X122030880Y-85689358D01*
X122197302Y-85744505D01*
X122197309Y-85744506D01*
X122300019Y-85754999D01*
X122499999Y-85754999D01*
X123000000Y-85754999D01*
X123199972Y-85754999D01*
X123199986Y-85754998D01*
X123302697Y-85744505D01*
X123469119Y-85689358D01*
X123469124Y-85689356D01*
X123618345Y-85597315D01*
X123742315Y-85473345D01*
X123834356Y-85324124D01*
X123834358Y-85324119D01*
X123889505Y-85157697D01*
X123889506Y-85157690D01*
X123899999Y-85054986D01*
X123900000Y-85054973D01*
X123900000Y-84730000D01*
X123000000Y-84730000D01*
X123000000Y-85754999D01*
X122499999Y-85754999D01*
X122500000Y-85754998D01*
X122500000Y-84730000D01*
X121600001Y-84730000D01*
X121600001Y-85054986D01*
X120000500Y-85054986D01*
X120000500Y-83905013D01*
X121600000Y-83905013D01*
X121600000Y-84230000D01*
X122500000Y-84230000D01*
X123000000Y-84230000D01*
X123899999Y-84230000D01*
X123899999Y-83905028D01*
X123899998Y-83905013D01*
X123889505Y-83802302D01*
X123834358Y-83635880D01*
X123834356Y-83635875D01*
X123742315Y-83486654D01*
X123618345Y-83362684D01*
X123469124Y-83270643D01*
X123469119Y-83270641D01*
X123302697Y-83215494D01*
X123302690Y-83215493D01*
X123199986Y-83205000D01*
X123000000Y-83205000D01*
X123000000Y-84230000D01*
X122500000Y-84230000D01*
X122500000Y-83205000D01*
X122300029Y-83205000D01*
X122300012Y-83205001D01*
X122197302Y-83215494D01*
X122030880Y-83270641D01*
X122030875Y-83270643D01*
X121881654Y-83362684D01*
X121757684Y-83486654D01*
X121665643Y-83635875D01*
X121665641Y-83635880D01*
X121610494Y-83802302D01*
X121610493Y-83802309D01*
X121600000Y-83905013D01*
X120000500Y-83905013D01*
X120000500Y-77094986D01*
X121600001Y-77094986D01*
X121610494Y-77197697D01*
X121665641Y-77364119D01*
X121665643Y-77364124D01*
X121757684Y-77513345D01*
X121881654Y-77637315D01*
X122030875Y-77729356D01*
X122030880Y-77729358D01*
X122197302Y-77784505D01*
X122197309Y-77784506D01*
X122300019Y-77794999D01*
X122499999Y-77794999D01*
X123000000Y-77794999D01*
X123199972Y-77794999D01*
X123199986Y-77794998D01*
X123302697Y-77784505D01*
X123469119Y-77729358D01*
X123469124Y-77729356D01*
X123618345Y-77637315D01*
X123742315Y-77513345D01*
X123834356Y-77364124D01*
X123834358Y-77364119D01*
X123889505Y-77197697D01*
X123889506Y-77197690D01*
X123899999Y-77094986D01*
X123900000Y-77094973D01*
X123900000Y-76770000D01*
X123000000Y-76770000D01*
X123000000Y-77794999D01*
X122499999Y-77794999D01*
X122500000Y-77794998D01*
X122500000Y-76770000D01*
X121600001Y-76770000D01*
X121600001Y-77094986D01*
X120000500Y-77094986D01*
X120000500Y-75624500D01*
X120020185Y-75557461D01*
X120072989Y-75511706D01*
X120124500Y-75500500D01*
X121552781Y-75500500D01*
X121619820Y-75520185D01*
G37*
%TD.AperFunction*%
%TA.AperFunction,Conductor*%
G36*
X157613645Y-82226385D02*
G01*
X157659400Y-82279189D01*
X157669344Y-82348347D01*
X157669082Y-82350074D01*
X157649500Y-82473713D01*
X157649500Y-82686287D01*
X157682754Y-82896243D01*
X157698380Y-82944336D01*
X157748444Y-83098414D01*
X157844951Y-83287820D01*
X157969890Y-83459786D01*
X158120213Y-83610109D01*
X158292182Y-83735050D01*
X158300946Y-83739516D01*
X158351742Y-83787491D01*
X158368536Y-83855312D01*
X158345998Y-83921447D01*
X158300946Y-83960484D01*
X158292182Y-83964949D01*
X158120213Y-84089890D01*
X157969890Y-84240213D01*
X157844951Y-84412179D01*
X157748444Y-84601585D01*
X157682753Y-84803760D01*
X157649500Y-85013713D01*
X157649500Y-85226286D01*
X157682754Y-85436244D01*
X157682754Y-85436247D01*
X157704745Y-85503927D01*
X157706740Y-85573768D01*
X157674495Y-85629926D01*
X156445898Y-86858525D01*
X156338527Y-86965895D01*
X156338522Y-86965901D01*
X156262602Y-87097398D01*
X156262602Y-87097399D01*
X156223300Y-87244076D01*
X156223300Y-87714980D01*
X156203615Y-87782019D01*
X156150811Y-87827774D01*
X156111901Y-87838338D01*
X156022203Y-87847500D01*
X156022200Y-87847501D01*
X155855668Y-87902685D01*
X155855663Y-87902687D01*
X155706342Y-87994789D01*
X155582289Y-88118842D01*
X155490187Y-88268163D01*
X155490185Y-88268168D01*
X155479571Y-88300199D01*
X155435001Y-88434703D01*
X155435001Y-88434704D01*
X155435000Y-88434704D01*
X155424500Y-88537483D01*
X155424500Y-89437501D01*
X155424501Y-89437519D01*
X155435000Y-89540296D01*
X155435001Y-89540299D01*
X155473420Y-89656239D01*
X155490186Y-89706834D01*
X155582288Y-89856156D01*
X155706344Y-89980212D01*
X155855666Y-90072314D01*
X156022203Y-90127499D01*
X156124991Y-90138000D01*
X157475008Y-90137999D01*
X157577797Y-90127499D01*
X157744334Y-90072314D01*
X157893656Y-89980212D01*
X158017712Y-89856156D01*
X158109814Y-89706834D01*
X158164999Y-89540297D01*
X158169117Y-89499986D01*
X158900001Y-89499986D01*
X158910494Y-89602697D01*
X158965641Y-89769119D01*
X158965643Y-89769124D01*
X159057684Y-89918345D01*
X159181654Y-90042315D01*
X159330875Y-90134356D01*
X159330880Y-90134358D01*
X159497302Y-90189505D01*
X159497309Y-90189506D01*
X159600019Y-90199999D01*
X160049999Y-90199999D01*
X160050000Y-90199998D01*
X160050000Y-89287500D01*
X158900001Y-89287500D01*
X158900001Y-89499986D01*
X158169117Y-89499986D01*
X158175500Y-89437509D01*
X158175499Y-88910292D01*
X158175499Y-88575013D01*
X158900000Y-88575013D01*
X158900000Y-88787500D01*
X160050000Y-88787500D01*
X160550000Y-88787500D01*
X161699999Y-88787500D01*
X161699999Y-88575028D01*
X161699998Y-88575013D01*
X161689505Y-88472302D01*
X161634358Y-88305880D01*
X161634356Y-88305875D01*
X161542315Y-88156654D01*
X161418345Y-88032684D01*
X161269124Y-87940643D01*
X161269119Y-87940641D01*
X161102697Y-87885494D01*
X161102690Y-87885493D01*
X160999986Y-87875000D01*
X160550000Y-87875000D01*
X160550000Y-88787500D01*
X160050000Y-88787500D01*
X160050000Y-87875000D01*
X159600028Y-87875000D01*
X159600012Y-87875001D01*
X159497302Y-87885494D01*
X159330880Y-87940641D01*
X159330875Y-87940643D01*
X159181654Y-88032684D01*
X159057684Y-88156654D01*
X158965643Y-88305875D01*
X158965641Y-88305880D01*
X158910494Y-88472302D01*
X158910493Y-88472309D01*
X158900000Y-88575013D01*
X158175499Y-88575013D01*
X158175499Y-88571864D01*
X158175499Y-88537498D01*
X158175498Y-88537480D01*
X158164999Y-88434703D01*
X158164998Y-88434700D01*
X158129456Y-88327442D01*
X158109814Y-88268166D01*
X158017712Y-88118844D01*
X157893656Y-87994788D01*
X157763024Y-87914214D01*
X157744336Y-87902687D01*
X157744331Y-87902685D01*
X157704004Y-87889322D01*
X157577797Y-87847501D01*
X157577795Y-87847500D01*
X157488097Y-87838337D01*
X157485659Y-87837342D01*
X157483053Y-87837717D01*
X157453493Y-87824217D01*
X157423406Y-87811941D01*
X157421892Y-87809786D01*
X157419497Y-87808692D01*
X157401928Y-87781354D01*
X157383254Y-87754760D01*
X157382708Y-87751446D01*
X157381723Y-87749914D01*
X157376700Y-87714979D01*
X157376700Y-87610238D01*
X157396385Y-87543199D01*
X157413014Y-87522561D01*
X158490074Y-86445501D01*
X158551395Y-86412018D01*
X158616070Y-86415252D01*
X158683757Y-86437246D01*
X158893713Y-86470500D01*
X158893714Y-86470500D01*
X159106286Y-86470500D01*
X159106287Y-86470500D01*
X159316243Y-86437246D01*
X159518412Y-86371557D01*
X159707816Y-86275051D01*
X159794413Y-86212135D01*
X159879786Y-86150109D01*
X159879788Y-86150106D01*
X159879792Y-86150104D01*
X160030104Y-85999792D01*
X160030106Y-85999788D01*
X160030109Y-85999786D01*
X160155050Y-85827817D01*
X160167850Y-85802697D01*
X160187360Y-85764405D01*
X160235334Y-85713609D01*
X160297845Y-85696700D01*
X160729761Y-85696700D01*
X160796800Y-85716385D01*
X160817442Y-85733019D01*
X161086981Y-86002558D01*
X161120466Y-86063881D01*
X161123300Y-86090239D01*
X161123300Y-86824076D01*
X161123300Y-86975924D01*
X161162215Y-87121158D01*
X161162602Y-87122600D01*
X161162602Y-87122601D01*
X161238522Y-87254098D01*
X161238524Y-87254100D01*
X161238525Y-87254102D01*
X161745898Y-87761475D01*
X161745899Y-87761476D01*
X161745901Y-87761477D01*
X161780329Y-87781354D01*
X161877402Y-87837399D01*
X162024076Y-87876700D01*
X162175924Y-87876700D01*
X162724012Y-87876700D01*
X162791051Y-87896385D01*
X162836806Y-87949189D01*
X162846750Y-88018347D01*
X162817725Y-88081903D01*
X162789108Y-88106239D01*
X162706344Y-88157287D01*
X162582289Y-88281342D01*
X162490187Y-88430663D01*
X162490185Y-88430668D01*
X162435001Y-88597201D01*
X162435000Y-88597207D01*
X162433542Y-88611481D01*
X162407144Y-88676172D01*
X162397865Y-88686556D01*
X162021242Y-89063181D01*
X161959919Y-89096666D01*
X161933561Y-89099500D01*
X161921155Y-89099500D01*
X161766510Y-89130261D01*
X161766498Y-89130264D01*
X161620827Y-89190602D01*
X161620814Y-89190609D01*
X161507085Y-89266602D01*
X161440408Y-89287480D01*
X161438194Y-89287500D01*
X160550000Y-89287500D01*
X160550000Y-90183060D01*
X160530315Y-90250099D01*
X160513681Y-90270741D01*
X159946392Y-90838030D01*
X159946346Y-90838076D01*
X159945898Y-90838525D01*
X159838525Y-90945898D01*
X159835183Y-90951685D01*
X159824874Y-90962222D01*
X159800631Y-90975803D01*
X159778190Y-90992190D01*
X159768310Y-90993911D01*
X159763919Y-90996372D01*
X159756702Y-90995934D01*
X159736245Y-90999500D01*
X159599999Y-90999500D01*
X159599980Y-90999501D01*
X159497203Y-91010000D01*
X159497200Y-91010001D01*
X159330668Y-91065185D01*
X159330663Y-91065187D01*
X159181342Y-91157289D01*
X159057289Y-91281342D01*
X158965187Y-91430663D01*
X158962136Y-91437209D01*
X158959686Y-91436067D01*
X158927044Y-91483234D01*
X158862533Y-91510069D01*
X158849092Y-91510800D01*
X158246619Y-91510800D01*
X158179580Y-91491115D01*
X158133825Y-91438311D01*
X158128913Y-91425804D01*
X158118097Y-91393164D01*
X158109814Y-91368166D01*
X158017712Y-91218844D01*
X157893656Y-91094788D01*
X157789044Y-91030263D01*
X157744336Y-91002687D01*
X157744331Y-91002685D01*
X157734719Y-90999500D01*
X157577797Y-90947501D01*
X157577795Y-90947500D01*
X157475010Y-90937000D01*
X156124998Y-90937000D01*
X156124981Y-90937001D01*
X156022203Y-90947500D01*
X156022200Y-90947501D01*
X155855668Y-91002685D01*
X155855663Y-91002687D01*
X155706342Y-91094789D01*
X155582289Y-91218842D01*
X155490187Y-91368163D01*
X155490185Y-91368168D01*
X155467686Y-91436067D01*
X155435001Y-91534703D01*
X155435001Y-91534704D01*
X155435000Y-91534704D01*
X155424500Y-91637483D01*
X155424500Y-91637491D01*
X155424500Y-92016142D01*
X155424501Y-92359300D01*
X155404817Y-92426339D01*
X155352013Y-92472094D01*
X155300501Y-92483300D01*
X154695035Y-92483300D01*
X154627996Y-92463615D01*
X154582241Y-92410811D01*
X154571745Y-92346047D01*
X154578000Y-92287873D01*
X154577999Y-91292128D01*
X154571591Y-91232517D01*
X154558840Y-91198332D01*
X154553857Y-91128642D01*
X154558840Y-91111669D01*
X154571591Y-91077483D01*
X154578000Y-91017873D01*
X154577999Y-90022128D01*
X154571591Y-89962517D01*
X154558840Y-89928332D01*
X154553857Y-89858642D01*
X154558840Y-89841669D01*
X154571591Y-89807483D01*
X154578000Y-89747873D01*
X154577999Y-88752128D01*
X154571591Y-88692517D01*
X154558840Y-88658332D01*
X154553857Y-88588642D01*
X154558840Y-88571669D01*
X154571591Y-88537483D01*
X154578000Y-88477873D01*
X154577999Y-87482128D01*
X154571591Y-87422517D01*
X154558840Y-87388332D01*
X154553857Y-87318642D01*
X154558840Y-87301669D01*
X154571591Y-87267483D01*
X154578000Y-87207873D01*
X154577999Y-86212128D01*
X154571591Y-86152517D01*
X154558840Y-86118332D01*
X154553857Y-86048642D01*
X154558840Y-86031669D01*
X154571591Y-85997483D01*
X154578000Y-85937873D01*
X154577999Y-84942128D01*
X154571591Y-84882517D01*
X154558840Y-84848332D01*
X154553857Y-84778642D01*
X154558840Y-84761669D01*
X154571591Y-84727483D01*
X154578000Y-84667873D01*
X154577999Y-83672128D01*
X154571591Y-83612517D01*
X154558840Y-83578332D01*
X154553857Y-83508642D01*
X154558840Y-83491669D01*
X154571591Y-83457483D01*
X154578000Y-83397873D01*
X154577999Y-82402128D01*
X154571745Y-82343952D01*
X154584151Y-82275195D01*
X154631762Y-82224058D01*
X154695035Y-82206700D01*
X157546606Y-82206700D01*
X157613645Y-82226385D01*
G37*
%TD.AperFunction*%
%TA.AperFunction,Conductor*%
G36*
X129136017Y-75520185D02*
G01*
X129181772Y-75572989D01*
X129191716Y-75642147D01*
X129174515Y-75689599D01*
X129170645Y-75695871D01*
X129170641Y-75695880D01*
X129115494Y-75862302D01*
X129115493Y-75862309D01*
X129105000Y-75965013D01*
X129105000Y-76310000D01*
X131270000Y-76310000D01*
X131270623Y-76309376D01*
X131289685Y-76244461D01*
X131342489Y-76198706D01*
X131394000Y-76187500D01*
X132676000Y-76187500D01*
X132743039Y-76207185D01*
X132788794Y-76259989D01*
X132800000Y-76311500D01*
X132800000Y-76563500D01*
X132780315Y-76630539D01*
X132727511Y-76676294D01*
X132676000Y-76687500D01*
X131625000Y-76687500D01*
X131624376Y-76688123D01*
X131605315Y-76753039D01*
X131552511Y-76798794D01*
X131501000Y-76810000D01*
X129105001Y-76810000D01*
X129105001Y-77152700D01*
X129102450Y-77161385D01*
X129103739Y-77170347D01*
X129092760Y-77194387D01*
X129085316Y-77219739D01*
X129078475Y-77225666D01*
X129074714Y-77233903D01*
X129052479Y-77248192D01*
X129032512Y-77265494D01*
X129021997Y-77267781D01*
X129015936Y-77271677D01*
X128981001Y-77276700D01*
X128873639Y-77276700D01*
X128806600Y-77257015D01*
X128785958Y-77240381D01*
X128436818Y-76891241D01*
X128403333Y-76829918D01*
X128400499Y-76803560D01*
X128400499Y-75944998D01*
X128400498Y-75944981D01*
X128389999Y-75842203D01*
X128389998Y-75842200D01*
X128357064Y-75742812D01*
X128334814Y-75675666D01*
X128334813Y-75675664D01*
X128332542Y-75668811D01*
X128334084Y-75668299D01*
X128324898Y-75607833D01*
X128353415Y-75544048D01*
X128411890Y-75505805D01*
X128447773Y-75500500D01*
X129068978Y-75500500D01*
X129136017Y-75520185D01*
G37*
%TD.AperFunction*%
%TD*%
D47*
X119500000Y-75000000D02*
X170000000Y-75000000D01*
X170000000Y-121000000D01*
X119500000Y-121000000D01*
X119500000Y-75000000D01*
M02*
