%TF.GenerationSoftware,KiCad,Pcbnew,9.0.7*%
%TF.CreationDate,2026-04-16T22:55:16+03:00*%
%TF.ProjectId,Project_Acoustic_Detector,50726f6a-6563-4745-9f41-636f75737469,rev?*%
%TF.SameCoordinates,Original*%
%TF.FileFunction,Soldermask,Top*%
%TF.FilePolarity,Negative*%
%FSLAX46Y46*%
G04 Gerber Fmt 4.6, Leading zero omitted, Abs format (unit mm)*
G04 Created by KiCad (PCBNEW 9.0.7) date 2026-04-16 22:55:16*
%MOMM*%
%LPD*%
G01*
G04 APERTURE LIST*
G04 Aperture macros list*
%AMRoundRect*
0 Rectangle with rounded corners*
0 $1 Rounding radius*
0 $2 $3 $4 $5 $6 $7 $8 $9 X,Y pos of 4 corners*
0 Add a 4 corners polygon primitive as box body*
4,1,4,$2,$3,$4,$5,$6,$7,$8,$9,$2,$3,0*
0 Add four circle primitives for the rounded corners*
1,1,$1+$1,$2,$3*
1,1,$1+$1,$4,$5*
1,1,$1+$1,$6,$7*
1,1,$1+$1,$8,$9*
0 Add four rect primitives between the rounded corners*
20,1,$1+$1,$2,$3,$4,$5,0*
20,1,$1+$1,$4,$5,$6,$7,0*
20,1,$1+$1,$6,$7,$8,$9,0*
20,1,$1+$1,$8,$9,$2,$3,0*%
G04 Aperture macros list end*
%ADD10C,0.600000*%
%ADD11R,1.500000X0.900000*%
%ADD12R,0.900000X1.500000*%
%ADD13R,3.900000X3.900000*%
%ADD14R,1.700000X1.700000*%
%ADD15C,1.700000*%
%ADD16RoundRect,0.250000X-0.545000X-0.445000X0.545000X-0.445000X0.545000X0.445000X-0.545000X0.445000X0*%
%ADD17RoundRect,0.250000X0.400000X-0.525000X0.400000X0.525000X-0.400000X0.525000X-0.400000X-0.525000X0*%
%ADD18RoundRect,0.250000X0.400000X0.625000X-0.400000X0.625000X-0.400000X-0.625000X0.400000X-0.625000X0*%
%ADD19RoundRect,0.250000X0.362500X0.700000X-0.362500X0.700000X-0.362500X-0.700000X0.362500X-0.700000X0*%
%ADD20RoundRect,0.250001X0.462499X0.624999X-0.462499X0.624999X-0.462499X-0.624999X0.462499X-0.624999X0*%
%ADD21RoundRect,0.250001X0.624999X-0.462499X0.624999X0.462499X-0.624999X0.462499X-0.624999X-0.462499X0*%
%ADD22RoundRect,0.250000X-0.400000X-0.625000X0.400000X-0.625000X0.400000X0.625000X-0.400000X0.625000X0*%
%ADD23RoundRect,0.250000X-0.625000X0.400000X-0.625000X-0.400000X0.625000X-0.400000X0.625000X0.400000X0*%
%ADD24RoundRect,0.375000X0.375000X-0.625000X0.375000X0.625000X-0.375000X0.625000X-0.375000X-0.625000X0*%
%ADD25RoundRect,0.500000X1.400000X-0.500000X1.400000X0.500000X-1.400000X0.500000X-1.400000X-0.500000X0*%
%ADD26RoundRect,0.250000X0.445000X-0.545000X0.445000X0.545000X-0.445000X0.545000X-0.445000X-0.545000X0*%
%ADD27RoundRect,0.250000X-0.445000X0.545000X-0.445000X-0.545000X0.445000X-0.545000X0.445000X0.545000X0*%
%ADD28RoundRect,0.250000X0.545000X0.445000X-0.545000X0.445000X-0.545000X-0.445000X0.545000X-0.445000X0*%
%ADD29RoundRect,0.250000X0.650000X-0.412500X0.650000X0.412500X-0.650000X0.412500X-0.650000X-0.412500X0*%
%ADD30RoundRect,0.250000X0.412500X0.650000X-0.412500X0.650000X-0.412500X-0.650000X0.412500X-0.650000X0*%
%ADD31RoundRect,0.250000X-0.650000X0.412500X-0.650000X-0.412500X0.650000X-0.412500X0.650000X0.412500X0*%
%ADD32R,0.800000X1.400000*%
%ADD33R,1.500000X1.500000*%
%ADD34R,1.300000X1.500000*%
%ADD35R,0.800000X1.500000*%
%ADD36R,1.000000X1.550000*%
%ADD37R,1.450000X1.000000*%
%ADD38R,0.700000X1.750000*%
%ADD39C,0.650000*%
%ADD40O,0.900000X2.400000*%
%ADD41O,0.900000X1.700000*%
%TA.AperFunction,Profile*%
%ADD42C,0.050000*%
%TD*%
G04 APERTURE END LIST*
D10*
%TO.C,U1*%
X143777500Y-85670000D03*
X143777500Y-84270000D03*
X144477500Y-84970000D03*
X144477500Y-83570000D03*
X143777500Y-82870000D03*
X143077500Y-84970000D03*
X142377500Y-85670000D03*
X141677500Y-83570000D03*
X142377500Y-84270000D03*
X143077500Y-83570000D03*
X141677500Y-84970000D03*
X142377500Y-82870000D03*
D11*
X135827500Y-76550000D03*
X135827500Y-77820000D03*
X135827500Y-79090000D03*
X135827500Y-80360000D03*
X135827500Y-81630000D03*
X135827500Y-82900000D03*
X135827500Y-84170000D03*
X135827500Y-85440000D03*
X135827500Y-86710000D03*
X135827500Y-87980000D03*
X135827500Y-89250000D03*
X135827500Y-90520000D03*
X135827500Y-91790000D03*
X135827500Y-93060000D03*
D12*
X137592500Y-94310000D03*
X138862500Y-94310000D03*
X140132500Y-94310000D03*
X141402500Y-94310000D03*
X142672500Y-94310000D03*
X143942500Y-94310000D03*
X145212500Y-94310000D03*
X146482500Y-94310000D03*
X147752500Y-94310000D03*
X149022500Y-94310000D03*
X150292500Y-94310000D03*
X151562500Y-94310000D03*
D11*
X153327500Y-93060000D03*
X153327500Y-91790000D03*
X153327500Y-90520000D03*
X153327500Y-89250000D03*
X153327500Y-87980000D03*
X153327500Y-86710000D03*
X153327500Y-85440000D03*
X153327500Y-84170000D03*
X153327500Y-82900000D03*
X153327500Y-81630000D03*
X153327500Y-80360000D03*
X153327500Y-79090000D03*
X153327500Y-77820000D03*
X153327500Y-76550000D03*
D13*
X143077500Y-84270000D03*
%TD*%
D14*
%TO.C,J8*%
X125000000Y-99500000D03*
D15*
X125000000Y-96960000D03*
X125000000Y-94420000D03*
X125000000Y-91880000D03*
X125000000Y-89340000D03*
%TD*%
D16*
%TO.C,C14*%
X160440000Y-105500000D03*
X157560000Y-105500000D03*
%TD*%
D17*
%TO.C,SW1*%
X127250000Y-76520000D03*
X127250000Y-84480000D03*
X122750000Y-76520000D03*
X122750000Y-84480000D03*
%TD*%
D15*
%TO.C,J5*%
X168000000Y-104960000D03*
X168000000Y-107500000D03*
X168000000Y-110040000D03*
X168000000Y-112580000D03*
D14*
X168000000Y-115120000D03*
%TD*%
D18*
%TO.C,R2*%
X139350000Y-103400000D03*
X136250000Y-103400000D03*
%TD*%
D19*
%TO.C,FB1*%
X126662500Y-109000000D03*
X123337500Y-109000000D03*
%TD*%
D20*
%TO.C,D1*%
X139287500Y-100800000D03*
X136312500Y-100800000D03*
%TD*%
D14*
%TO.C,J1*%
X159000000Y-77500000D03*
D15*
X159000000Y-80040000D03*
X159000000Y-82580000D03*
X159000000Y-85120000D03*
%TD*%
D21*
%TO.C,D2*%
X166300000Y-89200000D03*
X166300000Y-92175000D03*
%TD*%
D18*
%TO.C,R10*%
X125150000Y-115200000D03*
X122050000Y-115200000D03*
%TD*%
D22*
%TO.C,R1*%
X130000000Y-82000000D03*
X133100000Y-82000000D03*
%TD*%
D23*
%TO.C,R3*%
X163800000Y-92250000D03*
X163800000Y-89150000D03*
%TD*%
D22*
%TO.C,R7*%
X137850000Y-118000000D03*
X140950000Y-118000000D03*
%TD*%
%TO.C,R8*%
X137850000Y-115600000D03*
X140950000Y-115600000D03*
%TD*%
D23*
%TO.C,R9*%
X156800000Y-88987500D03*
X156800000Y-92087500D03*
%TD*%
%TO.C,R12*%
X151300000Y-102675000D03*
X151300000Y-105775000D03*
%TD*%
D17*
%TO.C,SW2*%
X167500000Y-77520000D03*
X167500000Y-85480000D03*
X163000000Y-77520000D03*
X163000000Y-85480000D03*
%TD*%
D18*
%TO.C,R11*%
X125150000Y-117700000D03*
X122050000Y-117700000D03*
%TD*%
D24*
%TO.C,U2*%
X129200000Y-109150000D03*
X131500000Y-109150000D03*
D25*
X131500000Y-102850000D03*
D24*
X133800000Y-109150000D03*
%TD*%
D26*
%TO.C,C1*%
X130300000Y-79440000D03*
X130300000Y-76560000D03*
%TD*%
D27*
%TO.C,C8*%
X139000000Y-106120000D03*
X139000000Y-109000000D03*
%TD*%
D28*
%TO.C,C10*%
X132940000Y-97500000D03*
X130060000Y-97500000D03*
%TD*%
D26*
%TO.C,C12*%
X124000000Y-105940000D03*
X124000000Y-103060000D03*
%TD*%
D29*
%TO.C,C4*%
X160300000Y-92162500D03*
X160300000Y-89037500D03*
%TD*%
D30*
%TO.C,C3*%
X133062500Y-85000000D03*
X129937500Y-85000000D03*
%TD*%
D31*
%TO.C,C9*%
X136500000Y-105937500D03*
X136500000Y-109062500D03*
%TD*%
D30*
%TO.C,C11*%
X133062500Y-100000000D03*
X129937500Y-100000000D03*
%TD*%
D31*
%TO.C,C13*%
X126500000Y-102937500D03*
X126500000Y-106062500D03*
%TD*%
D15*
%TO.C,J9*%
X147000000Y-99500000D03*
X147000000Y-102040000D03*
X147000000Y-104580000D03*
X147000000Y-107120000D03*
D14*
X147000000Y-109660000D03*
%TD*%
D32*
%TO.C,J7*%
X152000000Y-116650000D03*
D33*
X152350000Y-108400000D03*
D34*
X163700000Y-108400000D03*
D35*
X163950000Y-116000000D03*
D36*
X152400000Y-119075000D03*
D37*
X163625000Y-117500000D03*
D38*
X162500000Y-108275000D03*
X161400000Y-108275000D03*
X160300000Y-108275000D03*
X159200000Y-108275000D03*
X158100000Y-108275000D03*
X157000000Y-108275000D03*
X155900000Y-108275000D03*
X154800000Y-108275000D03*
%TD*%
D29*
%TO.C,C2*%
X132800000Y-76437500D03*
X132800000Y-79562500D03*
%TD*%
D39*
%TO.C,J6*%
X128525000Y-113475000D03*
X129375000Y-113475000D03*
X130225000Y-113475000D03*
X131075000Y-113475000D03*
X131925000Y-113475000D03*
X132775000Y-113475000D03*
X133625000Y-113475000D03*
X134475000Y-113475000D03*
X134475000Y-114825000D03*
X133625000Y-114825000D03*
X132775000Y-114825000D03*
X131925000Y-114825000D03*
X131075000Y-114825000D03*
X130225000Y-114825000D03*
X129375000Y-114825000D03*
X128525000Y-114825000D03*
D40*
X127175000Y-114455000D03*
D41*
X127175000Y-117835000D03*
D40*
X135825000Y-114455000D03*
D41*
X135825000Y-117835000D03*
%TD*%
D42*
X119500000Y-75000000D02*
X170000000Y-75000000D01*
X170000000Y-121000000D01*
X119500000Y-121000000D01*
X119500000Y-75000000D01*
M02*
