%TF.GenerationSoftware,KiCad,Pcbnew,9.0.7*%
%TF.CreationDate,2026-04-16T22:55:16+03:00*%
%TF.ProjectId,Project_Acoustic_Detector,50726f6a-6563-4745-9f41-636f75737469,rev?*%
%TF.SameCoordinates,Original*%
%TF.FileFunction,Copper,L2,Bot*%
%TF.FilePolarity,Positive*%
%FSLAX46Y46*%
G04 Gerber Fmt 4.6, Leading zero omitted, Abs format (unit mm)*
G04 Created by KiCad (PCBNEW 9.0.7) date 2026-04-16 22:55:16*
%MOMM*%
%LPD*%
G01*
G04 APERTURE LIST*
%TA.AperFunction,HeatsinkPad*%
%ADD10C,0.600000*%
%TD*%
%TA.AperFunction,ComponentPad*%
%ADD11R,1.700000X1.700000*%
%TD*%
%TA.AperFunction,ComponentPad*%
%ADD12C,1.700000*%
%TD*%
%TA.AperFunction,ComponentPad*%
%ADD13C,0.650000*%
%TD*%
%TA.AperFunction,ComponentPad*%
%ADD14O,0.900000X2.400000*%
%TD*%
%TA.AperFunction,ComponentPad*%
%ADD15O,0.900000X1.700000*%
%TD*%
%TA.AperFunction,ViaPad*%
%ADD16C,0.600000*%
%TD*%
%TA.AperFunction,ViaPad*%
%ADD17C,3.500000*%
%TD*%
%TA.AperFunction,Conductor*%
%ADD18C,0.508000*%
%TD*%
%TA.AperFunction,Conductor*%
%ADD19C,0.152400*%
%TD*%
%TA.AperFunction,Conductor*%
%ADD20C,0.254000*%
%TD*%
%TA.AperFunction,Profile*%
%ADD21C,0.050000*%
%TD*%
G04 APERTURE END LIST*
D10*
%TO.P,U1,41,GND*%
%TO.N,GND*%
X143777500Y-85670000D03*
X143777500Y-84270000D03*
X144477500Y-84970000D03*
X144477500Y-83570000D03*
X143777500Y-82870000D03*
X143077500Y-84970000D03*
X142377500Y-85670000D03*
X141677500Y-83570000D03*
X142377500Y-84270000D03*
X143077500Y-83570000D03*
X141677500Y-84970000D03*
X142377500Y-82870000D03*
%TD*%
D11*
%TO.P,J8,1,Pin_1*%
%TO.N,GND*%
X125000000Y-99500000D03*
D12*
%TO.P,J8,2,Pin_2*%
%TO.N,+3.3V_Audio*%
X125000000Y-96960000D03*
%TO.P,J8,3,Pin_3*%
%TO.N,/I2S_SD1*%
X125000000Y-94420000D03*
%TO.P,J8,4,Pin_4*%
%TO.N,/I2S_WS*%
X125000000Y-91880000D03*
%TO.P,J8,5,Pin_5*%
%TO.N,/I2S_SCK*%
X125000000Y-89340000D03*
%TD*%
%TO.P,J5,5,Pin_5*%
%TO.N,/I2S_SCK*%
X168000000Y-104960000D03*
%TO.P,J5,4,Pin_4*%
%TO.N,/I2S_WS*%
X168000000Y-107500000D03*
%TO.P,J5,3,Pin_3*%
%TO.N,/I2S_SD2*%
X168000000Y-110040000D03*
%TO.P,J5,2,Pin_2*%
%TO.N,+3.3V_Audio*%
X168000000Y-112580000D03*
D11*
%TO.P,J5,1,Pin_1*%
%TO.N,GND*%
X168000000Y-115120000D03*
%TD*%
%TO.P,J1,1,Pin_1*%
%TO.N,GND*%
X159000000Y-77500000D03*
D12*
%TO.P,J1,2,Pin_2*%
%TO.N,/UART_TXD*%
X159000000Y-80040000D03*
%TO.P,J1,3,Pin_3*%
%TO.N,/UART_RXD*%
X159000000Y-82580000D03*
%TO.P,J1,4,Pin_4*%
%TO.N,+3.3V*%
X159000000Y-85120000D03*
%TD*%
%TO.P,J9,5,Pin_5*%
%TO.N,/I2S_SCK*%
X147000000Y-99500000D03*
%TO.P,J9,4,Pin_4*%
%TO.N,/I2S_WS*%
X147000000Y-102040000D03*
%TO.P,J9,3,Pin_3*%
%TO.N,/I2S_SD1*%
X147000000Y-104580000D03*
%TO.P,J9,2,Pin_2*%
%TO.N,+3.3V_Audio*%
X147000000Y-107120000D03*
D11*
%TO.P,J9,1,Pin_1*%
%TO.N,GND*%
X147000000Y-109660000D03*
%TD*%
D13*
%TO.P,J6,A1,GND*%
%TO.N,GND*%
X128525000Y-113475000D03*
%TO.P,J6,A4,VBUS*%
%TO.N,+5V*%
X129375000Y-113475000D03*
%TO.P,J6,A5,CC1*%
%TO.N,/CC1_Line*%
X130225000Y-113475000D03*
%TO.P,J6,A6,D+*%
%TO.N,Net-(J6-D+-PadA6)*%
X131075000Y-113475000D03*
%TO.P,J6,A7,D-*%
%TO.N,Net-(J6-D--PadA7)*%
X131925000Y-113475000D03*
%TO.P,J6,A8,SBU1*%
%TO.N,unconnected-(J6-SBU1-PadA8)*%
X132775000Y-113475000D03*
%TO.P,J6,A9,VBUS*%
%TO.N,+5V*%
X133625000Y-113475000D03*
%TO.P,J6,A12,GND*%
%TO.N,GND*%
X134475000Y-113475000D03*
%TO.P,J6,B1,GND*%
X134475000Y-114825000D03*
%TO.P,J6,B4,VBUS*%
%TO.N,+5V*%
X133625000Y-114825000D03*
%TO.P,J6,B5,CC2*%
%TO.N,/CC2_Line*%
X132775000Y-114825000D03*
%TO.P,J6,B6,D+*%
%TO.N,Net-(J6-D+-PadA6)*%
X131925000Y-114825000D03*
%TO.P,J6,B7,D-*%
%TO.N,Net-(J6-D--PadA7)*%
X131075000Y-114825000D03*
%TO.P,J6,B8,SBU2*%
%TO.N,unconnected-(J6-SBU2-PadB8)*%
X130225000Y-114825000D03*
%TO.P,J6,B9,VBUS*%
%TO.N,+5V*%
X129375000Y-114825000D03*
%TO.P,J6,B12,GND*%
%TO.N,GND*%
X128525000Y-114825000D03*
D14*
%TO.P,J6,S1,SHIELD*%
X127175000Y-114455000D03*
D15*
X127175000Y-117835000D03*
D14*
X135825000Y-114455000D03*
D15*
X135825000Y-117835000D03*
%TD*%
D16*
%TO.N,GND*%
X161400000Y-83500000D03*
X160400000Y-86500000D03*
X152200000Y-111200000D03*
X150100000Y-111200000D03*
X137200000Y-76500000D03*
X141800000Y-102200000D03*
X138000000Y-100800000D03*
X128800000Y-76600000D03*
X128500000Y-78900000D03*
%TO.N,*%
X166600000Y-90800000D03*
X165700000Y-90800000D03*
X164200000Y-90900000D03*
X163300000Y-90900000D03*
X157900000Y-93400000D03*
X145900000Y-98300000D03*
X133800000Y-88400000D03*
X133800000Y-89800000D03*
X133800000Y-91800000D03*
X133800000Y-94100000D03*
X133700000Y-95600000D03*
X132800000Y-106900000D03*
X133400000Y-105000000D03*
X132700000Y-105600000D03*
X133900000Y-104300000D03*
X134400000Y-103000000D03*
%TO.N,/Indicator*%
X162000000Y-89900000D03*
X162000000Y-91700000D03*
%TO.N,+3.3V*%
X137300000Y-77800000D03*
X153300000Y-103600000D03*
%TO.N,/I2S_SD2*%
X167100000Y-100900000D03*
%TO.N,+3.3V*%
X131400000Y-87200000D03*
X132300000Y-90600000D03*
%TO.N,Net-(J6-D+-PadA6)*%
X137600000Y-113300000D03*
%TO.N,Net-(J6-D--PadA7)*%
X136985837Y-116816809D03*
%TO.N,/CC2_Line*%
X126700000Y-116400000D03*
%TO.N,/CC1_Line*%
X125200000Y-113400000D03*
D17*
%TO.N,*%
X121800000Y-96900000D03*
X121800000Y-96900000D03*
X148500000Y-118000000D03*
X148500000Y-118000000D03*
X167500000Y-97500000D03*
X167500000Y-97500000D03*
%TD*%
D18*
%TO.N,GND*%
X161400000Y-85500000D02*
X161400000Y-83500000D01*
X160400000Y-86500000D02*
X161400000Y-85500000D01*
X150100000Y-111200000D02*
X152200000Y-111200000D01*
D19*
X128900000Y-76500000D02*
X128800000Y-76600000D01*
X137200000Y-76500000D02*
X128900000Y-76500000D01*
X141800000Y-102200000D02*
X141700000Y-102200000D01*
X138100000Y-102200000D02*
X141800000Y-102200000D01*
X137800000Y-101900000D02*
X138100000Y-102200000D01*
X137800000Y-101000000D02*
X137800000Y-101800000D01*
X138000000Y-100800000D02*
X137800000Y-101000000D01*
X137800000Y-101800000D02*
X137800000Y-101900000D01*
X128500000Y-76900000D02*
X128800000Y-76600000D01*
X128500000Y-78900000D02*
X128500000Y-76900000D01*
%TO.N,Net-(J6-D--PadA7)*%
X132025000Y-113438005D02*
X132025000Y-113475000D01*
X132172800Y-113290205D02*
X132025000Y-113438005D01*
X132172800Y-113225560D02*
X132172800Y-113290205D01*
X132525560Y-112872800D02*
X132172800Y-113225560D01*
X136700000Y-113451584D02*
X136096216Y-112847800D01*
X136096216Y-112847800D02*
X132615205Y-112847800D01*
X132615205Y-112847800D02*
X132590205Y-112872800D01*
X136700000Y-116530972D02*
X136700000Y-113451584D01*
X136985837Y-116816809D02*
X136700000Y-116530972D01*
X132590205Y-112872800D02*
X132525560Y-112872800D01*
%TO.N,/Indicator*%
X162000000Y-91700000D02*
X162000000Y-89900000D01*
%TO.N,+3.3V*%
X151680000Y-77800000D02*
X159000000Y-85120000D01*
X137300000Y-77800000D02*
X151680000Y-77800000D01*
D20*
X153300000Y-90820000D02*
X153300000Y-103600000D01*
X159000000Y-85120000D02*
X153300000Y-90820000D01*
D19*
X153300000Y-103600000D02*
X153100000Y-103600000D01*
%TO.N,/I2S_SD2*%
X169422800Y-102700000D02*
X169422800Y-109819281D01*
X167622800Y-100900000D02*
X169422800Y-102700000D01*
X169202081Y-110040000D02*
X168000000Y-110040000D01*
X167100000Y-100900000D02*
X167622800Y-100900000D01*
X169422800Y-109819281D02*
X169202081Y-110040000D01*
%TO.N,/I2S_SD1*%
X135160000Y-104580000D02*
X147000000Y-104580000D01*
X125000000Y-94420000D02*
X135160000Y-104580000D01*
%TO.N,/I2S_WS*%
X152460000Y-107500000D02*
X168000000Y-107500000D01*
X147000000Y-102040000D02*
X152460000Y-107500000D01*
X125000000Y-91880000D02*
X133020000Y-99900000D01*
X133020000Y-99900000D02*
X144860000Y-99900000D01*
X144860000Y-99900000D02*
X147000000Y-102040000D01*
%TO.N,/I2S_SCK*%
X152460000Y-104960000D02*
X168000000Y-104960000D01*
X147000000Y-99500000D02*
X152460000Y-104960000D01*
X135160000Y-99500000D02*
X147000000Y-99500000D01*
X125000000Y-89340000D02*
X135160000Y-99500000D01*
D18*
%TO.N,+3.3V*%
X132300000Y-88100000D02*
X131400000Y-87200000D01*
X132300000Y-90600000D02*
X132300000Y-88100000D01*
%TO.N,+3.3V_Audio*%
X149300000Y-107900000D02*
X149300000Y-112580000D01*
X148520000Y-107120000D02*
X149300000Y-107900000D01*
X147000000Y-107120000D02*
X148520000Y-107120000D01*
X149300000Y-112580000D02*
X168000000Y-112580000D01*
X148920000Y-112580000D02*
X149300000Y-112580000D01*
X142300000Y-119200000D02*
X148920000Y-112580000D01*
X123000000Y-118200000D02*
X124000000Y-119200000D01*
X124000000Y-119200000D02*
X142300000Y-119200000D01*
X123000000Y-98960000D02*
X123000000Y-118200000D01*
X125000000Y-96960000D02*
X123000000Y-98960000D01*
D19*
%TO.N,Net-(J6-D+-PadA6)*%
X137200000Y-113300000D02*
X137600000Y-113300000D01*
X131405600Y-112494400D02*
X136394400Y-112494400D01*
X131075000Y-112825000D02*
X131405600Y-112494400D01*
X131075000Y-113475000D02*
X131075000Y-112825000D01*
X136394400Y-112494400D02*
X137200000Y-113300000D01*
X131200000Y-114100000D02*
X131075000Y-113975000D01*
X131075000Y-113975000D02*
X131075000Y-113475000D01*
X131700000Y-114100000D02*
X131200000Y-114100000D01*
X131925000Y-114325000D02*
X131700000Y-114100000D01*
X131925000Y-114825000D02*
X131925000Y-114325000D01*
%TO.N,/CC2_Line*%
X131694974Y-116400000D02*
X126700000Y-116400000D01*
X132775000Y-115319974D02*
X131694974Y-116400000D01*
X132775000Y-114825000D02*
X132775000Y-115319974D01*
%TO.N,/CC1_Line*%
X125752200Y-112847800D02*
X125200000Y-113400000D01*
X129634795Y-112847800D02*
X125752200Y-112847800D01*
X130225000Y-113438005D02*
X129634795Y-112847800D01*
X130225000Y-113475000D02*
X130225000Y-113438005D01*
%TD*%
%TA.AperFunction,Conductor*%
%TO.N,GND*%
G36*
X120205703Y-98488838D02*
G01*
X120212181Y-98494870D01*
X120312952Y-98595641D01*
X120312959Y-98595647D01*
X120547006Y-98775238D01*
X120802489Y-98922741D01*
X120802490Y-98922741D01*
X120802493Y-98922743D01*
X121075048Y-99035639D01*
X121360007Y-99111993D01*
X121638415Y-99148646D01*
X121652478Y-99150498D01*
X121652494Y-99150500D01*
X121652501Y-99150500D01*
X121947499Y-99150500D01*
X121947506Y-99150500D01*
X122082039Y-99132788D01*
X122105315Y-99129724D01*
X122174350Y-99140489D01*
X122226606Y-99186869D01*
X122245500Y-99252663D01*
X122245500Y-118125682D01*
X122245499Y-118125688D01*
X122245499Y-118274312D01*
X122259011Y-118342238D01*
X122260607Y-118350265D01*
X122260608Y-118350269D01*
X122274493Y-118420073D01*
X122274496Y-118420083D01*
X122297035Y-118474496D01*
X122331366Y-118557381D01*
X122331372Y-118557392D01*
X122413942Y-118680968D01*
X122413943Y-118680969D01*
X123409600Y-119676624D01*
X123409621Y-119676647D01*
X123519029Y-119786055D01*
X123519032Y-119786057D01*
X123519034Y-119786059D01*
X123601605Y-119841230D01*
X123642611Y-119868630D01*
X123723045Y-119901946D01*
X123779920Y-119925505D01*
X123779929Y-119925506D01*
X123779930Y-119925507D01*
X123804103Y-119930315D01*
X123804110Y-119930316D01*
X123925686Y-119954501D01*
X123925688Y-119954501D01*
X124080426Y-119954501D01*
X124080446Y-119954500D01*
X142219554Y-119954500D01*
X142219574Y-119954501D01*
X142225688Y-119954501D01*
X142374314Y-119954501D01*
X142411009Y-119947200D01*
X142495894Y-119930315D01*
X142520080Y-119925505D01*
X142576955Y-119901946D01*
X142657389Y-119868630D01*
X142780966Y-119786059D01*
X144714539Y-117852486D01*
X146249500Y-117852486D01*
X146249500Y-118147513D01*
X146276264Y-118350796D01*
X146288007Y-118439993D01*
X146307986Y-118514556D01*
X146364361Y-118724951D01*
X146364364Y-118724961D01*
X146477254Y-118997500D01*
X146477258Y-118997510D01*
X146624761Y-119252993D01*
X146804352Y-119487040D01*
X146804358Y-119487047D01*
X147012952Y-119695641D01*
X147012959Y-119695647D01*
X147247006Y-119875238D01*
X147502489Y-120022741D01*
X147502490Y-120022741D01*
X147502493Y-120022743D01*
X147775048Y-120135639D01*
X148060007Y-120211993D01*
X148352494Y-120250500D01*
X148352501Y-120250500D01*
X148647499Y-120250500D01*
X148647506Y-120250500D01*
X148939993Y-120211993D01*
X149224952Y-120135639D01*
X149497507Y-120022743D01*
X149752994Y-119875238D01*
X149987042Y-119695646D01*
X150195646Y-119487042D01*
X150375238Y-119252994D01*
X150522743Y-118997507D01*
X150635639Y-118724952D01*
X150711993Y-118439993D01*
X150750500Y-118147506D01*
X150750500Y-117852494D01*
X150711993Y-117560007D01*
X150635639Y-117275048D01*
X150522743Y-117002493D01*
X150521946Y-117001113D01*
X150375238Y-116747006D01*
X150195647Y-116512959D01*
X150195641Y-116512952D01*
X149987047Y-116304358D01*
X149987040Y-116304352D01*
X149752993Y-116124761D01*
X149497510Y-115977258D01*
X149497500Y-115977254D01*
X149224961Y-115864364D01*
X149224954Y-115864362D01*
X149224952Y-115864361D01*
X148939993Y-115788007D01*
X148891113Y-115781571D01*
X148647513Y-115749500D01*
X148647506Y-115749500D01*
X148352494Y-115749500D01*
X148352486Y-115749500D01*
X148074085Y-115786153D01*
X148060007Y-115788007D01*
X147928291Y-115823300D01*
X147775048Y-115864361D01*
X147775038Y-115864364D01*
X147502499Y-115977254D01*
X147502489Y-115977258D01*
X147247006Y-116124761D01*
X147012959Y-116304352D01*
X147012952Y-116304358D01*
X146804358Y-116512952D01*
X146804352Y-116512959D01*
X146624761Y-116747006D01*
X146477258Y-117002489D01*
X146477254Y-117002499D01*
X146364364Y-117275038D01*
X146364361Y-117275048D01*
X146288008Y-117560004D01*
X146288006Y-117560015D01*
X146249500Y-117852486D01*
X144714539Y-117852486D01*
X146045518Y-116521507D01*
X147336067Y-115230957D01*
X149196205Y-113370819D01*
X149257528Y-113337334D01*
X149283886Y-113334500D01*
X166815685Y-113334500D01*
X166882724Y-113354185D01*
X166916004Y-113385615D01*
X166969896Y-113459792D01*
X167083818Y-113573714D01*
X167117303Y-113635037D01*
X167112319Y-113704729D01*
X167070447Y-113760662D01*
X167039471Y-113777577D01*
X166907912Y-113826646D01*
X166907906Y-113826649D01*
X166792812Y-113912809D01*
X166792809Y-113912812D01*
X166706649Y-114027906D01*
X166706645Y-114027913D01*
X166656403Y-114162620D01*
X166656401Y-114162627D01*
X166650000Y-114222155D01*
X166650000Y-114870000D01*
X167566988Y-114870000D01*
X167534075Y-114927007D01*
X167500000Y-115054174D01*
X167500000Y-115185826D01*
X167534075Y-115312993D01*
X167566988Y-115370000D01*
X166650000Y-115370000D01*
X166650000Y-116017844D01*
X166656401Y-116077372D01*
X166656403Y-116077379D01*
X166706645Y-116212086D01*
X166706649Y-116212093D01*
X166792809Y-116327187D01*
X166792812Y-116327190D01*
X166907906Y-116413350D01*
X166907913Y-116413354D01*
X167042620Y-116463596D01*
X167042627Y-116463598D01*
X167102155Y-116469999D01*
X167102172Y-116470000D01*
X167750000Y-116470000D01*
X167750000Y-115553012D01*
X167807007Y-115585925D01*
X167934174Y-115620000D01*
X168065826Y-115620000D01*
X168192993Y-115585925D01*
X168250000Y-115553012D01*
X168250000Y-116470000D01*
X168897828Y-116470000D01*
X168897844Y-116469999D01*
X168957372Y-116463598D01*
X168957379Y-116463596D01*
X169092086Y-116413354D01*
X169092093Y-116413350D01*
X169207187Y-116327190D01*
X169207190Y-116327187D01*
X169276234Y-116234958D01*
X169332168Y-116193087D01*
X169401859Y-116188103D01*
X169463182Y-116221589D01*
X169496666Y-116282912D01*
X169499500Y-116309269D01*
X169499500Y-120375500D01*
X169479815Y-120442539D01*
X169427011Y-120488294D01*
X169375500Y-120499500D01*
X120124500Y-120499500D01*
X120057461Y-120479815D01*
X120011706Y-120427011D01*
X120000500Y-120375500D01*
X120000500Y-98582551D01*
X120020185Y-98515512D01*
X120072989Y-98469757D01*
X120142147Y-98459813D01*
X120205703Y-98488838D01*
G37*
%TD.AperFunction*%
%TA.AperFunction,Conductor*%
G36*
X126555703Y-96791726D02*
G01*
X126562181Y-96797758D01*
X133328491Y-103564068D01*
X133361976Y-103625391D01*
X133356992Y-103695083D01*
X133328491Y-103739430D01*
X133278213Y-103789707D01*
X133278210Y-103789711D01*
X133190609Y-103920814D01*
X133190602Y-103920827D01*
X133130264Y-104066498D01*
X133130261Y-104066508D01*
X133104440Y-104196320D01*
X133072055Y-104258231D01*
X133030278Y-104286688D01*
X133020826Y-104290603D01*
X133020814Y-104290609D01*
X132889711Y-104378210D01*
X132889707Y-104378213D01*
X132778213Y-104489707D01*
X132778210Y-104489711D01*
X132690609Y-104620814D01*
X132690604Y-104620823D01*
X132641549Y-104739255D01*
X132597708Y-104793658D01*
X132551180Y-104813419D01*
X132466508Y-104830261D01*
X132466498Y-104830264D01*
X132320827Y-104890602D01*
X132320814Y-104890609D01*
X132189711Y-104978210D01*
X132189707Y-104978213D01*
X132078213Y-105089707D01*
X132078210Y-105089711D01*
X131990609Y-105220814D01*
X131990602Y-105220827D01*
X131930264Y-105366498D01*
X131930261Y-105366510D01*
X131899500Y-105521153D01*
X131899500Y-105678846D01*
X131930261Y-105833489D01*
X131930264Y-105833501D01*
X131990602Y-105979172D01*
X131990609Y-105979185D01*
X132078210Y-106110288D01*
X132078213Y-106110292D01*
X132180240Y-106212319D01*
X132213725Y-106273642D01*
X132208741Y-106343334D01*
X132181999Y-106384947D01*
X132182072Y-106385007D01*
X132181559Y-106385630D01*
X132180247Y-106387674D01*
X132178215Y-106389706D01*
X132178208Y-106389714D01*
X132090609Y-106520814D01*
X132090602Y-106520827D01*
X132030264Y-106666498D01*
X132030261Y-106666510D01*
X131999500Y-106821153D01*
X131999500Y-106978846D01*
X132030261Y-107133489D01*
X132030264Y-107133501D01*
X132090602Y-107279172D01*
X132090609Y-107279185D01*
X132178210Y-107410288D01*
X132178213Y-107410292D01*
X132289707Y-107521786D01*
X132289711Y-107521789D01*
X132420814Y-107609390D01*
X132420827Y-107609397D01*
X132566498Y-107669735D01*
X132566503Y-107669737D01*
X132721153Y-107700499D01*
X132721156Y-107700500D01*
X132721158Y-107700500D01*
X132878844Y-107700500D01*
X132878845Y-107700499D01*
X133033497Y-107669737D01*
X133179179Y-107609394D01*
X133310289Y-107521789D01*
X133421789Y-107410289D01*
X133509394Y-107279179D01*
X133569737Y-107133497D01*
X133600500Y-106978842D01*
X133600500Y-106821158D01*
X133600500Y-106821155D01*
X133600499Y-106821153D01*
X133569738Y-106666510D01*
X133569737Y-106666503D01*
X133542849Y-106601588D01*
X133509397Y-106520827D01*
X133509390Y-106520814D01*
X133421789Y-106389711D01*
X133421786Y-106389707D01*
X133319759Y-106287680D01*
X133286274Y-106226357D01*
X133291258Y-106156665D01*
X133318002Y-106115054D01*
X133317928Y-106114993D01*
X133318454Y-106114351D01*
X133319764Y-106112313D01*
X133321789Y-106110289D01*
X133409394Y-105979179D01*
X133458452Y-105860740D01*
X133502290Y-105806342D01*
X133548815Y-105786581D01*
X133633497Y-105769737D01*
X133779179Y-105709394D01*
X133910289Y-105621789D01*
X134021789Y-105510289D01*
X134109394Y-105379179D01*
X134169737Y-105233497D01*
X134185013Y-105156699D01*
X134195560Y-105103680D01*
X134227945Y-105041769D01*
X134269721Y-105013311D01*
X134279179Y-105009394D01*
X134410289Y-104921789D01*
X134410292Y-104921786D01*
X134460570Y-104871509D01*
X134521893Y-104838024D01*
X134591585Y-104843008D01*
X134635932Y-104871509D01*
X134805898Y-105041475D01*
X134805899Y-105041476D01*
X134805901Y-105041477D01*
X134870619Y-105078842D01*
X134937402Y-105117399D01*
X135084076Y-105156700D01*
X135235924Y-105156700D01*
X145702155Y-105156700D01*
X145769194Y-105176385D01*
X145812640Y-105224406D01*
X145844949Y-105287817D01*
X145969890Y-105459786D01*
X146120213Y-105610109D01*
X146292182Y-105735050D01*
X146300946Y-105739516D01*
X146351742Y-105787491D01*
X146368536Y-105855312D01*
X146345998Y-105921447D01*
X146300946Y-105960484D01*
X146292182Y-105964949D01*
X146120213Y-106089890D01*
X145969890Y-106240213D01*
X145844951Y-106412179D01*
X145748444Y-106601585D01*
X145682753Y-106803760D01*
X145649500Y-107013713D01*
X145649500Y-107226286D01*
X145678643Y-107410292D01*
X145682754Y-107436243D01*
X145739015Y-107609397D01*
X145748444Y-107638414D01*
X145844951Y-107827820D01*
X145969890Y-107999786D01*
X146083818Y-108113714D01*
X146117303Y-108175037D01*
X146112319Y-108244729D01*
X146070447Y-108300662D01*
X146039471Y-108317577D01*
X145907912Y-108366646D01*
X145907906Y-108366649D01*
X145792812Y-108452809D01*
X145792809Y-108452812D01*
X145706649Y-108567906D01*
X145706645Y-108567913D01*
X145656403Y-108702620D01*
X145656401Y-108702627D01*
X145650000Y-108762155D01*
X145650000Y-109410000D01*
X146566988Y-109410000D01*
X146534075Y-109467007D01*
X146500000Y-109594174D01*
X146500000Y-109725826D01*
X146534075Y-109852993D01*
X146566988Y-109910000D01*
X145650000Y-109910000D01*
X145650000Y-110557844D01*
X145656401Y-110617372D01*
X145656403Y-110617379D01*
X145706645Y-110752086D01*
X145706649Y-110752093D01*
X145792809Y-110867187D01*
X145792812Y-110867190D01*
X145907906Y-110953350D01*
X145907913Y-110953354D01*
X146042620Y-111003596D01*
X146042627Y-111003598D01*
X146102155Y-111009999D01*
X146102172Y-111010000D01*
X146750000Y-111010000D01*
X146750000Y-110093012D01*
X146807007Y-110125925D01*
X146934174Y-110160000D01*
X147065826Y-110160000D01*
X147192993Y-110125925D01*
X147250000Y-110093012D01*
X147250000Y-111010000D01*
X147897828Y-111010000D01*
X147897844Y-111009999D01*
X147957372Y-111003598D01*
X147957379Y-111003596D01*
X148092086Y-110953354D01*
X148092093Y-110953350D01*
X148207187Y-110867190D01*
X148207190Y-110867187D01*
X148293350Y-110752093D01*
X148293354Y-110752086D01*
X148305318Y-110720010D01*
X148347189Y-110664076D01*
X148412653Y-110639659D01*
X148480926Y-110654510D01*
X148530332Y-110703915D01*
X148545500Y-110763343D01*
X148545500Y-111856523D01*
X148535820Y-111889488D01*
X148526457Y-111922553D01*
X148525961Y-111923061D01*
X148525815Y-111923562D01*
X148503603Y-111949449D01*
X148497340Y-111954981D01*
X148439034Y-111993941D01*
X148333941Y-112099034D01*
X148333939Y-112099036D01*
X148331230Y-112101744D01*
X148331222Y-112101752D01*
X142023794Y-118409181D01*
X141962471Y-118442666D01*
X141936113Y-118445500D01*
X136899000Y-118445500D01*
X136831961Y-118425815D01*
X136786206Y-118373011D01*
X136775000Y-118321500D01*
X136775000Y-118085000D01*
X136125000Y-118085000D01*
X136125000Y-117585000D01*
X136732353Y-117585000D01*
X136756544Y-117587383D01*
X136906990Y-117617308D01*
X136906993Y-117617309D01*
X136906995Y-117617309D01*
X137064681Y-117617309D01*
X137064682Y-117617308D01*
X137219334Y-117586546D01*
X137365016Y-117526203D01*
X137496126Y-117438598D01*
X137607626Y-117327098D01*
X137695231Y-117195988D01*
X137755574Y-117050306D01*
X137786337Y-116895651D01*
X137786337Y-116737967D01*
X137786337Y-116737964D01*
X137786336Y-116737962D01*
X137760265Y-116606896D01*
X137755574Y-116583312D01*
X137729974Y-116521507D01*
X137695234Y-116437636D01*
X137695227Y-116437623D01*
X137607626Y-116306520D01*
X137607623Y-116306516D01*
X137496129Y-116195022D01*
X137496125Y-116195019D01*
X137365022Y-116107418D01*
X137365011Y-116107412D01*
X137353242Y-116102537D01*
X137298841Y-116058693D01*
X137276779Y-115992398D01*
X137276700Y-115987978D01*
X137276700Y-114202968D01*
X137296385Y-114135929D01*
X137349189Y-114090174D01*
X137418347Y-114080230D01*
X137424878Y-114081348D01*
X137469246Y-114090174D01*
X137521156Y-114100500D01*
X137521158Y-114100500D01*
X137678844Y-114100500D01*
X137678845Y-114100499D01*
X137833497Y-114069737D01*
X137979179Y-114009394D01*
X138110289Y-113921789D01*
X138221789Y-113810289D01*
X138309394Y-113679179D01*
X138369737Y-113533497D01*
X138400500Y-113378842D01*
X138400500Y-113221158D01*
X138400500Y-113221155D01*
X138400499Y-113221153D01*
X138380025Y-113118226D01*
X138369737Y-113066503D01*
X138364638Y-113054193D01*
X138309397Y-112920827D01*
X138309390Y-112920814D01*
X138221789Y-112789711D01*
X138221786Y-112789707D01*
X138110292Y-112678213D01*
X138110288Y-112678210D01*
X137979185Y-112590609D01*
X137979172Y-112590602D01*
X137833501Y-112530264D01*
X137833489Y-112530261D01*
X137678845Y-112499500D01*
X137678842Y-112499500D01*
X137521158Y-112499500D01*
X137521155Y-112499500D01*
X137366511Y-112530260D01*
X137366503Y-112530263D01*
X137357719Y-112533901D01*
X137288249Y-112541364D01*
X137225772Y-112510084D01*
X137222594Y-112507017D01*
X136748504Y-112032927D01*
X136748498Y-112032922D01*
X136617000Y-111957002D01*
X136616999Y-111957001D01*
X136616998Y-111957001D01*
X136470324Y-111917700D01*
X131481524Y-111917700D01*
X131329676Y-111917700D01*
X131183002Y-111957001D01*
X131183001Y-111957001D01*
X131182999Y-111957002D01*
X131182998Y-111957002D01*
X131051501Y-112032922D01*
X131051495Y-112032927D01*
X130613527Y-112470895D01*
X130613525Y-112470898D01*
X130533811Y-112608965D01*
X130517515Y-112624502D01*
X130504781Y-112643069D01*
X130492716Y-112648147D01*
X130483243Y-112657180D01*
X130461137Y-112661440D01*
X130440384Y-112670176D01*
X130420189Y-112669331D01*
X130414636Y-112670402D01*
X130405106Y-112669118D01*
X130403665Y-112668866D01*
X130306305Y-112649500D01*
X130292694Y-112649500D01*
X130282116Y-112647654D01*
X130260025Y-112636753D01*
X130236395Y-112629815D01*
X130221282Y-112617636D01*
X130219459Y-112616737D01*
X130218794Y-112615632D01*
X130215753Y-112613181D01*
X129988899Y-112386327D01*
X129988893Y-112386322D01*
X129857395Y-112310402D01*
X129857394Y-112310401D01*
X129857393Y-112310401D01*
X129710719Y-112271100D01*
X125828124Y-112271100D01*
X125676276Y-112271100D01*
X125529602Y-112310401D01*
X125529601Y-112310401D01*
X125529599Y-112310402D01*
X125529598Y-112310402D01*
X125398101Y-112386322D01*
X125398095Y-112386327D01*
X125221242Y-112563181D01*
X125159919Y-112596666D01*
X125133561Y-112599500D01*
X125121155Y-112599500D01*
X124966510Y-112630261D01*
X124966498Y-112630264D01*
X124820827Y-112690602D01*
X124820814Y-112690609D01*
X124689711Y-112778210D01*
X124689707Y-112778213D01*
X124578213Y-112889707D01*
X124578210Y-112889711D01*
X124490609Y-113020814D01*
X124490602Y-113020827D01*
X124430264Y-113166498D01*
X124430261Y-113166510D01*
X124399500Y-113321153D01*
X124399500Y-113478846D01*
X124430261Y-113633489D01*
X124430264Y-113633501D01*
X124490602Y-113779172D01*
X124490609Y-113779185D01*
X124578210Y-113910288D01*
X124578213Y-113910292D01*
X124689707Y-114021786D01*
X124689711Y-114021789D01*
X124820814Y-114109390D01*
X124820827Y-114109397D01*
X124918853Y-114150000D01*
X124966503Y-114169737D01*
X125121153Y-114200499D01*
X125121156Y-114200500D01*
X125121158Y-114200500D01*
X125278844Y-114200500D01*
X125278845Y-114200499D01*
X125433497Y-114169737D01*
X125546166Y-114123067D01*
X125579172Y-114109397D01*
X125579172Y-114109396D01*
X125579179Y-114109394D01*
X125710289Y-114021789D01*
X125821789Y-113910289D01*
X125909394Y-113779179D01*
X125969737Y-113633497D01*
X125976769Y-113598145D01*
X125979383Y-113585006D01*
X126011768Y-113523095D01*
X126072483Y-113488521D01*
X126142253Y-113492260D01*
X126198925Y-113533127D01*
X126224506Y-113598145D01*
X126225000Y-113609197D01*
X126225000Y-114205000D01*
X126875000Y-114205000D01*
X126875000Y-114705000D01*
X126225000Y-114705000D01*
X126225000Y-115298571D01*
X126261506Y-115482097D01*
X126261509Y-115482109D01*
X126303064Y-115582432D01*
X126310533Y-115651901D01*
X126279258Y-115714380D01*
X126257394Y-115732986D01*
X126189711Y-115778210D01*
X126189707Y-115778213D01*
X126078213Y-115889707D01*
X126078210Y-115889711D01*
X125990609Y-116020814D01*
X125990602Y-116020827D01*
X125930264Y-116166498D01*
X125930261Y-116166510D01*
X125899500Y-116321153D01*
X125899500Y-116478846D01*
X125930261Y-116633489D01*
X125930264Y-116633501D01*
X125990602Y-116779172D01*
X125990609Y-116779185D01*
X126078210Y-116910288D01*
X126078213Y-116910292D01*
X126189707Y-117021786D01*
X126189712Y-117021790D01*
X126208089Y-117034069D01*
X126252895Y-117087681D01*
X126261604Y-117157005D01*
X126260817Y-117161363D01*
X126225000Y-117341428D01*
X126225000Y-117585000D01*
X126875000Y-117585000D01*
X126875000Y-118085000D01*
X126225000Y-118085000D01*
X126225000Y-118321500D01*
X126205315Y-118388539D01*
X126152511Y-118434294D01*
X126101000Y-118445500D01*
X124363886Y-118445500D01*
X124296847Y-118425815D01*
X124276205Y-118409181D01*
X123790819Y-117923794D01*
X123757334Y-117862471D01*
X123754500Y-117836113D01*
X123754500Y-100914728D01*
X123774185Y-100847689D01*
X123826989Y-100801934D01*
X123896147Y-100791990D01*
X123921833Y-100798546D01*
X124042620Y-100843596D01*
X124042627Y-100843598D01*
X124102155Y-100849999D01*
X124102172Y-100850000D01*
X124750000Y-100850000D01*
X124750000Y-99933012D01*
X124807007Y-99965925D01*
X124934174Y-100000000D01*
X125065826Y-100000000D01*
X125192993Y-99965925D01*
X125250000Y-99933012D01*
X125250000Y-100850000D01*
X125897828Y-100850000D01*
X125897844Y-100849999D01*
X125957372Y-100843598D01*
X125957379Y-100843596D01*
X126092086Y-100793354D01*
X126092093Y-100793350D01*
X126207187Y-100707190D01*
X126207190Y-100707187D01*
X126293350Y-100592093D01*
X126293354Y-100592086D01*
X126343596Y-100457379D01*
X126343598Y-100457372D01*
X126349999Y-100397844D01*
X126350000Y-100397827D01*
X126350000Y-99750000D01*
X125433012Y-99750000D01*
X125465925Y-99692993D01*
X125500000Y-99565826D01*
X125500000Y-99434174D01*
X125465925Y-99307007D01*
X125433012Y-99250000D01*
X126350000Y-99250000D01*
X126350000Y-98602172D01*
X126349999Y-98602155D01*
X126343598Y-98542627D01*
X126343596Y-98542620D01*
X126293354Y-98407913D01*
X126293350Y-98407906D01*
X126207190Y-98292812D01*
X126207187Y-98292809D01*
X126092093Y-98206649D01*
X126092088Y-98206646D01*
X125960528Y-98157577D01*
X125904595Y-98115705D01*
X125880178Y-98050241D01*
X125895030Y-97981968D01*
X125916175Y-97953720D01*
X126030104Y-97839792D01*
X126155051Y-97667816D01*
X126251557Y-97478412D01*
X126317246Y-97276243D01*
X126350500Y-97066287D01*
X126350500Y-96885439D01*
X126370185Y-96818400D01*
X126422989Y-96772645D01*
X126492147Y-96762701D01*
X126555703Y-96791726D01*
G37*
%TD.AperFunction*%
%TA.AperFunction,Conductor*%
G36*
X136075000Y-116123882D02*
G01*
X136077965Y-116126316D01*
X136078934Y-116127739D01*
X136080503Y-116128456D01*
X136098536Y-116156516D01*
X136117299Y-116184062D01*
X136117643Y-116186247D01*
X136118277Y-116187234D01*
X136123300Y-116222169D01*
X136123300Y-116417829D01*
X136103615Y-116484868D01*
X136077965Y-116513682D01*
X136075000Y-116516115D01*
X136075000Y-117268011D01*
X136065060Y-117250795D01*
X136009205Y-117194940D01*
X135940796Y-117155444D01*
X135864496Y-117135000D01*
X135785504Y-117135000D01*
X135709204Y-117155444D01*
X135640795Y-117194940D01*
X135584940Y-117250795D01*
X135575000Y-117268011D01*
X135575000Y-116516116D01*
X135574999Y-116516115D01*
X135547899Y-116521506D01*
X135547896Y-116521507D01*
X135375008Y-116593119D01*
X135374999Y-116593124D01*
X135219410Y-116697086D01*
X135219406Y-116697089D01*
X135087089Y-116829406D01*
X135087086Y-116829410D01*
X134983124Y-116984999D01*
X134983119Y-116985008D01*
X134911508Y-117157894D01*
X134911506Y-117157902D01*
X134875000Y-117341428D01*
X134875000Y-117585000D01*
X135525000Y-117585000D01*
X135525000Y-118085000D01*
X134875000Y-118085000D01*
X134875000Y-118321500D01*
X134855315Y-118388539D01*
X134802511Y-118434294D01*
X134751000Y-118445500D01*
X128249000Y-118445500D01*
X128181961Y-118425815D01*
X128136206Y-118373011D01*
X128125000Y-118321500D01*
X128125000Y-118085000D01*
X127475000Y-118085000D01*
X127475000Y-117585000D01*
X128125000Y-117585000D01*
X128125000Y-117348401D01*
X128077739Y-117126534D01*
X128079557Y-117102572D01*
X128076989Y-117078680D01*
X128082152Y-117068365D01*
X128083025Y-117056865D01*
X128097507Y-117037691D01*
X128108265Y-117016202D01*
X128118185Y-117010316D01*
X128125137Y-117001113D01*
X128147687Y-116992813D01*
X128168355Y-116980551D01*
X128187552Y-116978139D01*
X128190707Y-116976979D01*
X128192906Y-116977467D01*
X128199018Y-116976700D01*
X131770896Y-116976700D01*
X131770898Y-116976700D01*
X131917572Y-116937399D01*
X132049076Y-116861475D01*
X133236475Y-115674076D01*
X133236478Y-115674069D01*
X133241425Y-115667625D01*
X133242441Y-115668405D01*
X133287006Y-115625902D01*
X133355611Y-115612669D01*
X133379847Y-115617451D01*
X133384201Y-115618772D01*
X133384211Y-115618776D01*
X133384220Y-115618777D01*
X133384221Y-115618778D01*
X133543692Y-115650500D01*
X133543695Y-115650500D01*
X133706307Y-115650500D01*
X133829965Y-115625902D01*
X133865789Y-115618776D01*
X134003199Y-115561858D01*
X134072669Y-115554390D01*
X134098105Y-115561859D01*
X134234355Y-115618295D01*
X134234363Y-115618297D01*
X134393740Y-115649999D01*
X134393744Y-115650000D01*
X134556256Y-115650000D01*
X134556259Y-115649999D01*
X134715636Y-115618297D01*
X134715640Y-115618296D01*
X134816412Y-115576555D01*
X134885882Y-115569086D01*
X134948361Y-115600360D01*
X134978426Y-115643661D01*
X134983118Y-115654988D01*
X134983124Y-115655000D01*
X135087086Y-115810589D01*
X135087089Y-115810593D01*
X135219406Y-115942910D01*
X135219410Y-115942913D01*
X135374999Y-116046875D01*
X135375012Y-116046882D01*
X135547889Y-116118489D01*
X135547896Y-116118491D01*
X135575000Y-116123882D01*
X135575000Y-115371988D01*
X135584940Y-115389205D01*
X135640795Y-115445060D01*
X135709204Y-115484556D01*
X135785504Y-115505000D01*
X135864496Y-115505000D01*
X135940796Y-115484556D01*
X136009205Y-115445060D01*
X136065060Y-115389205D01*
X136075000Y-115371988D01*
X136075000Y-116123882D01*
G37*
%TD.AperFunction*%
%TA.AperFunction,Conductor*%
G36*
X134793731Y-113444185D02*
G01*
X134814373Y-113460819D01*
X135239383Y-113885829D01*
X135272868Y-113947152D01*
X135267884Y-114016844D01*
X135239383Y-114061191D01*
X135150574Y-114150000D01*
X135239383Y-114238809D01*
X135272868Y-114300132D01*
X135267884Y-114369824D01*
X135239383Y-114414171D01*
X134739458Y-114914096D01*
X134731512Y-114918434D01*
X134726087Y-114925682D01*
X134701327Y-114934916D01*
X134678135Y-114947581D01*
X134669105Y-114946935D01*
X134660623Y-114950099D01*
X134637725Y-114945117D01*
X134644552Y-114938291D01*
X134675000Y-114864782D01*
X134675000Y-114785218D01*
X134644552Y-114711709D01*
X134588291Y-114655448D01*
X134514782Y-114625000D01*
X134435218Y-114625000D01*
X134427523Y-114628186D01*
X134422326Y-114602056D01*
X134428553Y-114532464D01*
X134456262Y-114490183D01*
X134796445Y-114149999D01*
X134456262Y-113809816D01*
X134453052Y-113803938D01*
X134447543Y-113800129D01*
X134436518Y-113773657D01*
X134422777Y-113748493D01*
X134422622Y-113740294D01*
X134420680Y-113735630D01*
X134421976Y-113705950D01*
X134421871Y-113700356D01*
X134422089Y-113699130D01*
X134427523Y-113671812D01*
X134435218Y-113675000D01*
X134514782Y-113675000D01*
X134588291Y-113644552D01*
X134644552Y-113588291D01*
X134675000Y-113514782D01*
X134675000Y-113435218D01*
X134670561Y-113424500D01*
X134726692Y-113424500D01*
X134793731Y-113444185D01*
G37*
%TD.AperFunction*%
%TA.AperFunction,Conductor*%
G36*
X128325000Y-113435218D02*
G01*
X128325000Y-113514782D01*
X128355448Y-113588291D01*
X128411709Y-113644552D01*
X128485218Y-113675000D01*
X128564782Y-113675000D01*
X128572475Y-113671813D01*
X128577673Y-113697944D01*
X128571446Y-113767535D01*
X128543737Y-113809816D01*
X128203554Y-114149999D01*
X128203554Y-114150000D01*
X128543737Y-114490183D01*
X128546946Y-114496060D01*
X128552455Y-114499869D01*
X128563480Y-114526339D01*
X128577222Y-114551506D01*
X128577376Y-114559704D01*
X128579319Y-114564368D01*
X128578023Y-114594033D01*
X128578129Y-114599642D01*
X128577907Y-114600886D01*
X128572476Y-114628187D01*
X128564782Y-114625000D01*
X128485218Y-114625000D01*
X128411709Y-114655448D01*
X128355448Y-114711709D01*
X128325000Y-114785218D01*
X128325000Y-114864782D01*
X128355448Y-114938291D01*
X128363979Y-114946822D01*
X128304889Y-114942597D01*
X128260542Y-114914096D01*
X127760617Y-114414171D01*
X127727132Y-114352848D01*
X127732116Y-114283156D01*
X127760617Y-114238809D01*
X127849426Y-114150000D01*
X127760617Y-114061191D01*
X127727132Y-113999868D01*
X127732116Y-113930176D01*
X127760617Y-113885829D01*
X128185627Y-113460819D01*
X128246950Y-113427334D01*
X128273308Y-113424500D01*
X128329439Y-113424500D01*
X128325000Y-113435218D01*
G37*
%TD.AperFunction*%
%TA.AperFunction,Conductor*%
G36*
X148555703Y-104411726D02*
G01*
X148562181Y-104417758D01*
X152105898Y-107961475D01*
X152105899Y-107961476D01*
X152105901Y-107961477D01*
X152171650Y-107999437D01*
X152237402Y-108037399D01*
X152384076Y-108076700D01*
X152535924Y-108076700D01*
X166702155Y-108076700D01*
X166769194Y-108096385D01*
X166812640Y-108144406D01*
X166844949Y-108207817D01*
X166969890Y-108379786D01*
X167120213Y-108530109D01*
X167292182Y-108655050D01*
X167300946Y-108659516D01*
X167351742Y-108707491D01*
X167368536Y-108775312D01*
X167345998Y-108841447D01*
X167300946Y-108880484D01*
X167292182Y-108884949D01*
X167120213Y-109009890D01*
X166969890Y-109160213D01*
X166844951Y-109332179D01*
X166748444Y-109521585D01*
X166682753Y-109723760D01*
X166673212Y-109784000D01*
X166649500Y-109933713D01*
X166649500Y-110146287D01*
X166682754Y-110356243D01*
X166748258Y-110557844D01*
X166748444Y-110558414D01*
X166844951Y-110747820D01*
X166969890Y-110919786D01*
X167120213Y-111070109D01*
X167292182Y-111195050D01*
X167300946Y-111199516D01*
X167351742Y-111247491D01*
X167368536Y-111315312D01*
X167345998Y-111381447D01*
X167300946Y-111420484D01*
X167292182Y-111424949D01*
X167120213Y-111549890D01*
X166969896Y-111700207D01*
X166916004Y-111774385D01*
X166860674Y-111817051D01*
X166815685Y-111825500D01*
X150178500Y-111825500D01*
X150111461Y-111805815D01*
X150065706Y-111753011D01*
X150054500Y-111701500D01*
X150054500Y-107980446D01*
X150054501Y-107980425D01*
X150054501Y-107825685D01*
X150025506Y-107679926D01*
X150025505Y-107679925D01*
X150025505Y-107679921D01*
X150021286Y-107669735D01*
X149968633Y-107542618D01*
X149968632Y-107542617D01*
X149968630Y-107542611D01*
X149924433Y-107476465D01*
X149886059Y-107419034D01*
X149780966Y-107313941D01*
X149780963Y-107313939D01*
X149600513Y-107133489D01*
X149000969Y-106533943D01*
X149000968Y-106533942D01*
X148877392Y-106451372D01*
X148877391Y-106451371D01*
X148877389Y-106451370D01*
X148877387Y-106451369D01*
X148877385Y-106451368D01*
X148760985Y-106403154D01*
X148760982Y-106403153D01*
X148754577Y-106400500D01*
X148740080Y-106394495D01*
X148715894Y-106389684D01*
X148710753Y-106388661D01*
X148710752Y-106388661D01*
X148594314Y-106365499D01*
X148594312Y-106365499D01*
X148445688Y-106365499D01*
X148439574Y-106365499D01*
X148439554Y-106365500D01*
X148184315Y-106365500D01*
X148117276Y-106345815D01*
X148083996Y-106314385D01*
X148064594Y-106287680D01*
X148030104Y-106240208D01*
X147879792Y-106089896D01*
X147879786Y-106089890D01*
X147707820Y-105964951D01*
X147707115Y-105964591D01*
X147699054Y-105960485D01*
X147648259Y-105912512D01*
X147631463Y-105844692D01*
X147653999Y-105778556D01*
X147699054Y-105739515D01*
X147707816Y-105735051D01*
X147785182Y-105678842D01*
X147879786Y-105610109D01*
X147879788Y-105610106D01*
X147879792Y-105610104D01*
X148030104Y-105459792D01*
X148030106Y-105459788D01*
X148030109Y-105459786D01*
X148155048Y-105287820D01*
X148155050Y-105287817D01*
X148155051Y-105287816D01*
X148251557Y-105098412D01*
X148317246Y-104896243D01*
X148350500Y-104686287D01*
X148350500Y-104505439D01*
X148370185Y-104438400D01*
X148422989Y-104392645D01*
X148492147Y-104382701D01*
X148555703Y-104411726D01*
G37*
%TD.AperFunction*%
%TA.AperFunction,Conductor*%
G36*
X169442539Y-75520185D02*
G01*
X169488294Y-75572989D01*
X169499500Y-75624500D01*
X169499500Y-96043655D01*
X169479815Y-96110694D01*
X169427011Y-96156449D01*
X169357853Y-96166393D01*
X169294297Y-96137368D01*
X169277124Y-96119142D01*
X169247249Y-96080208D01*
X169195646Y-96012958D01*
X169195644Y-96012956D01*
X169195641Y-96012952D01*
X168987047Y-95804358D01*
X168987040Y-95804352D01*
X168752993Y-95624761D01*
X168497510Y-95477258D01*
X168497500Y-95477254D01*
X168224961Y-95364364D01*
X168224954Y-95364362D01*
X168224952Y-95364361D01*
X167939993Y-95288007D01*
X167891113Y-95281571D01*
X167647513Y-95249500D01*
X167647506Y-95249500D01*
X167352494Y-95249500D01*
X167352486Y-95249500D01*
X167074085Y-95286153D01*
X167060007Y-95288007D01*
X166996103Y-95305130D01*
X166775048Y-95364361D01*
X166775038Y-95364364D01*
X166502499Y-95477254D01*
X166502489Y-95477258D01*
X166247006Y-95624761D01*
X166012959Y-95804352D01*
X166012952Y-95804358D01*
X165804358Y-96012952D01*
X165804352Y-96012959D01*
X165624761Y-96247006D01*
X165477258Y-96502489D01*
X165477254Y-96502499D01*
X165364364Y-96775038D01*
X165364361Y-96775048D01*
X165288008Y-97060004D01*
X165288006Y-97060015D01*
X165249500Y-97352486D01*
X165249500Y-97647513D01*
X165274814Y-97839784D01*
X165288007Y-97939993D01*
X165364361Y-98224951D01*
X165364364Y-98224961D01*
X165477254Y-98497500D01*
X165477258Y-98497510D01*
X165624761Y-98752993D01*
X165804352Y-98987040D01*
X165804358Y-98987047D01*
X166012952Y-99195641D01*
X166012959Y-99195647D01*
X166247006Y-99375238D01*
X166502489Y-99522741D01*
X166502490Y-99522741D01*
X166502493Y-99522743D01*
X166775048Y-99635639D01*
X167060007Y-99711993D01*
X167352494Y-99750500D01*
X167352501Y-99750500D01*
X167647499Y-99750500D01*
X167647506Y-99750500D01*
X167939993Y-99711993D01*
X168224952Y-99635639D01*
X168497507Y-99522743D01*
X168752994Y-99375238D01*
X168987042Y-99195646D01*
X169195646Y-98987042D01*
X169277124Y-98880857D01*
X169333552Y-98839655D01*
X169403298Y-98835500D01*
X169464218Y-98869712D01*
X169496971Y-98931429D01*
X169499500Y-98956344D01*
X169499500Y-101661761D01*
X169479815Y-101728800D01*
X169427011Y-101774555D01*
X169357853Y-101784499D01*
X169294297Y-101755474D01*
X169287819Y-101749442D01*
X167976904Y-100438527D01*
X167976898Y-100438522D01*
X167845400Y-100362602D01*
X167845399Y-100362601D01*
X167845398Y-100362601D01*
X167698724Y-100323300D01*
X167698723Y-100323300D01*
X167690664Y-100322239D01*
X167691127Y-100318715D01*
X167639702Y-100303615D01*
X167619060Y-100286981D01*
X167610292Y-100278213D01*
X167610288Y-100278210D01*
X167479185Y-100190609D01*
X167479172Y-100190602D01*
X167333501Y-100130264D01*
X167333489Y-100130261D01*
X167178845Y-100099500D01*
X167178842Y-100099500D01*
X167021158Y-100099500D01*
X167021155Y-100099500D01*
X166866510Y-100130261D01*
X166866498Y-100130264D01*
X166720827Y-100190602D01*
X166720814Y-100190609D01*
X166589711Y-100278210D01*
X166589707Y-100278213D01*
X166478213Y-100389707D01*
X166478210Y-100389711D01*
X166390609Y-100520814D01*
X166390602Y-100520827D01*
X166330264Y-100666498D01*
X166330261Y-100666510D01*
X166299500Y-100821153D01*
X166299500Y-100978846D01*
X166330261Y-101133489D01*
X166330264Y-101133501D01*
X166390602Y-101279172D01*
X166390609Y-101279185D01*
X166478210Y-101410288D01*
X166478213Y-101410292D01*
X166589707Y-101521786D01*
X166589711Y-101521789D01*
X166720814Y-101609390D01*
X166720827Y-101609397D01*
X166833505Y-101656069D01*
X166866503Y-101669737D01*
X167021153Y-101700499D01*
X167021156Y-101700500D01*
X167021158Y-101700500D01*
X167178844Y-101700500D01*
X167178845Y-101700499D01*
X167333497Y-101669737D01*
X167429105Y-101630134D01*
X167498574Y-101622666D01*
X167561053Y-101653941D01*
X167564238Y-101657015D01*
X168809781Y-102902558D01*
X168843266Y-102963881D01*
X168846100Y-102990239D01*
X168846100Y-103673058D01*
X168826415Y-103740097D01*
X168773611Y-103785852D01*
X168704453Y-103795796D01*
X168665805Y-103783543D01*
X168518414Y-103708444D01*
X168518413Y-103708443D01*
X168518412Y-103708443D01*
X168316243Y-103642754D01*
X168316241Y-103642753D01*
X168316240Y-103642753D01*
X168154957Y-103617208D01*
X168106287Y-103609500D01*
X167893713Y-103609500D01*
X167845042Y-103617208D01*
X167683760Y-103642753D01*
X167481585Y-103708444D01*
X167292179Y-103804951D01*
X167120213Y-103929890D01*
X166969890Y-104080213D01*
X166844949Y-104252182D01*
X166812640Y-104315594D01*
X166764666Y-104366391D01*
X166702155Y-104383300D01*
X153948141Y-104383300D01*
X153881102Y-104363615D01*
X153835347Y-104310811D01*
X153825403Y-104241653D01*
X153854428Y-104178097D01*
X153860460Y-104171619D01*
X153921786Y-104110292D01*
X153921789Y-104110289D01*
X154009394Y-103979179D01*
X154069737Y-103833497D01*
X154100500Y-103678842D01*
X154100500Y-103521158D01*
X154100500Y-103521155D01*
X154100499Y-103521153D01*
X154095330Y-103495166D01*
X154069737Y-103366503D01*
X154020441Y-103247491D01*
X154009397Y-103220827D01*
X154009390Y-103220814D01*
X153948398Y-103129533D01*
X153927520Y-103062855D01*
X153927500Y-103060642D01*
X153927500Y-93321153D01*
X157099500Y-93321153D01*
X157099500Y-93478846D01*
X157130261Y-93633489D01*
X157130264Y-93633501D01*
X157190602Y-93779172D01*
X157190609Y-93779185D01*
X157278210Y-93910288D01*
X157278213Y-93910292D01*
X157389707Y-94021786D01*
X157389711Y-94021789D01*
X157520814Y-94109390D01*
X157520827Y-94109397D01*
X157666498Y-94169735D01*
X157666503Y-94169737D01*
X157821153Y-94200499D01*
X157821156Y-94200500D01*
X157821158Y-94200500D01*
X157978844Y-94200500D01*
X157978845Y-94200499D01*
X158133497Y-94169737D01*
X158279179Y-94109394D01*
X158410289Y-94021789D01*
X158521789Y-93910289D01*
X158609394Y-93779179D01*
X158669737Y-93633497D01*
X158700500Y-93478842D01*
X158700500Y-93321158D01*
X158700500Y-93321155D01*
X158700499Y-93321153D01*
X158669738Y-93166510D01*
X158669737Y-93166503D01*
X158655262Y-93131557D01*
X158609397Y-93020827D01*
X158609390Y-93020814D01*
X158521789Y-92889711D01*
X158521786Y-92889707D01*
X158410292Y-92778213D01*
X158410288Y-92778210D01*
X158279185Y-92690609D01*
X158279172Y-92690602D01*
X158133501Y-92630264D01*
X158133489Y-92630261D01*
X157978845Y-92599500D01*
X157978842Y-92599500D01*
X157821158Y-92599500D01*
X157821155Y-92599500D01*
X157666510Y-92630261D01*
X157666498Y-92630264D01*
X157520827Y-92690602D01*
X157520814Y-92690609D01*
X157389711Y-92778210D01*
X157389707Y-92778213D01*
X157278213Y-92889707D01*
X157278210Y-92889711D01*
X157190609Y-93020814D01*
X157190602Y-93020827D01*
X157130264Y-93166498D01*
X157130261Y-93166510D01*
X157099500Y-93321153D01*
X153927500Y-93321153D01*
X153927500Y-91131280D01*
X153947185Y-91064241D01*
X153963814Y-91043604D01*
X155186265Y-89821153D01*
X161199500Y-89821153D01*
X161199500Y-89978846D01*
X161230261Y-90133489D01*
X161230264Y-90133501D01*
X161290602Y-90279172D01*
X161290609Y-90279185D01*
X161356664Y-90378042D01*
X161378211Y-90410289D01*
X161386979Y-90419057D01*
X161420465Y-90480377D01*
X161423300Y-90506740D01*
X161423300Y-91093259D01*
X161403615Y-91160298D01*
X161386981Y-91180940D01*
X161378213Y-91189707D01*
X161378210Y-91189711D01*
X161290609Y-91320814D01*
X161290602Y-91320827D01*
X161230264Y-91466498D01*
X161230261Y-91466510D01*
X161199500Y-91621153D01*
X161199500Y-91778846D01*
X161230261Y-91933489D01*
X161230264Y-91933501D01*
X161290602Y-92079172D01*
X161290609Y-92079185D01*
X161378210Y-92210288D01*
X161378213Y-92210292D01*
X161489707Y-92321786D01*
X161489711Y-92321789D01*
X161620814Y-92409390D01*
X161620827Y-92409397D01*
X161766498Y-92469735D01*
X161766503Y-92469737D01*
X161921153Y-92500499D01*
X161921156Y-92500500D01*
X161921158Y-92500500D01*
X162078844Y-92500500D01*
X162078845Y-92500499D01*
X162233497Y-92469737D01*
X162379179Y-92409394D01*
X162510289Y-92321789D01*
X162621789Y-92210289D01*
X162709394Y-92079179D01*
X162769737Y-91933497D01*
X162800500Y-91778842D01*
X162800500Y-91745134D01*
X162820185Y-91678095D01*
X162872989Y-91632340D01*
X162942147Y-91622396D01*
X162971950Y-91630572D01*
X163066503Y-91669737D01*
X163181669Y-91692645D01*
X163221153Y-91700499D01*
X163221156Y-91700500D01*
X163221158Y-91700500D01*
X163378844Y-91700500D01*
X163378845Y-91700499D01*
X163533497Y-91669737D01*
X163679179Y-91609394D01*
X163681110Y-91608103D01*
X163682276Y-91607737D01*
X163684546Y-91606525D01*
X163684776Y-91606955D01*
X163747786Y-91587226D01*
X163815166Y-91605710D01*
X163818850Y-91608077D01*
X163820821Y-91609394D01*
X163820824Y-91609395D01*
X163820827Y-91609397D01*
X163966498Y-91669735D01*
X163966503Y-91669737D01*
X164081669Y-91692645D01*
X164121153Y-91700499D01*
X164121156Y-91700500D01*
X164121158Y-91700500D01*
X164278844Y-91700500D01*
X164278845Y-91700499D01*
X164433497Y-91669737D01*
X164579179Y-91609394D01*
X164710289Y-91521789D01*
X164821789Y-91410289D01*
X164880811Y-91321956D01*
X164934421Y-91277152D01*
X165003746Y-91268445D01*
X165066774Y-91298599D01*
X165073867Y-91306017D01*
X165073903Y-91305982D01*
X165189707Y-91421786D01*
X165189711Y-91421789D01*
X165320814Y-91509390D01*
X165320827Y-91509397D01*
X165447998Y-91562072D01*
X165466503Y-91569737D01*
X165554426Y-91587226D01*
X165621153Y-91600499D01*
X165621156Y-91600500D01*
X165621158Y-91600500D01*
X165778844Y-91600500D01*
X165778845Y-91600499D01*
X165933497Y-91569737D01*
X166049262Y-91521786D01*
X166079172Y-91509397D01*
X166079172Y-91509396D01*
X166079179Y-91509394D01*
X166081110Y-91508103D01*
X166082276Y-91507737D01*
X166084546Y-91506525D01*
X166084776Y-91506955D01*
X166147786Y-91487226D01*
X166215166Y-91505710D01*
X166218850Y-91508077D01*
X166220821Y-91509394D01*
X166220824Y-91509395D01*
X166220827Y-91509397D01*
X166347998Y-91562072D01*
X166366503Y-91569737D01*
X166454426Y-91587226D01*
X166521153Y-91600499D01*
X166521156Y-91600500D01*
X166521158Y-91600500D01*
X166678844Y-91600500D01*
X166678845Y-91600499D01*
X166833497Y-91569737D01*
X166949262Y-91521786D01*
X166979172Y-91509397D01*
X166979172Y-91509396D01*
X166979179Y-91509394D01*
X167110289Y-91421789D01*
X167221789Y-91310289D01*
X167309394Y-91179179D01*
X167312294Y-91172179D01*
X167344983Y-91093259D01*
X167369737Y-91033497D01*
X167400500Y-90878842D01*
X167400500Y-90721158D01*
X167400500Y-90721155D01*
X167400499Y-90721153D01*
X167392601Y-90681447D01*
X167369737Y-90566503D01*
X167364721Y-90554393D01*
X167309397Y-90420827D01*
X167309390Y-90420814D01*
X167221789Y-90289711D01*
X167221786Y-90289707D01*
X167110292Y-90178213D01*
X167110288Y-90178210D01*
X166979185Y-90090609D01*
X166979172Y-90090602D01*
X166833501Y-90030264D01*
X166833489Y-90030261D01*
X166678845Y-89999500D01*
X166678842Y-89999500D01*
X166521158Y-89999500D01*
X166521155Y-89999500D01*
X166366510Y-90030261D01*
X166366498Y-90030264D01*
X166220822Y-90090604D01*
X166220820Y-90090605D01*
X166218885Y-90091899D01*
X166217717Y-90092264D01*
X166215451Y-90093476D01*
X166215221Y-90093045D01*
X166152206Y-90112773D01*
X166084827Y-90094285D01*
X166081115Y-90091899D01*
X166079179Y-90090605D01*
X166079177Y-90090604D01*
X165933501Y-90030264D01*
X165933489Y-90030261D01*
X165778845Y-89999500D01*
X165778842Y-89999500D01*
X165621158Y-89999500D01*
X165621155Y-89999500D01*
X165466510Y-90030261D01*
X165466498Y-90030264D01*
X165320827Y-90090602D01*
X165320814Y-90090609D01*
X165189711Y-90178210D01*
X165189707Y-90178213D01*
X165078213Y-90289707D01*
X165078210Y-90289711D01*
X165019189Y-90378042D01*
X164965576Y-90422847D01*
X164896251Y-90431554D01*
X164833224Y-90401399D01*
X164826132Y-90393982D01*
X164826097Y-90394018D01*
X164710292Y-90278213D01*
X164710288Y-90278210D01*
X164579185Y-90190609D01*
X164579172Y-90190602D01*
X164433501Y-90130264D01*
X164433489Y-90130261D01*
X164278845Y-90099500D01*
X164278842Y-90099500D01*
X164121158Y-90099500D01*
X164121155Y-90099500D01*
X163966510Y-90130261D01*
X163966498Y-90130264D01*
X163820822Y-90190604D01*
X163820820Y-90190605D01*
X163818885Y-90191899D01*
X163817717Y-90192264D01*
X163815451Y-90193476D01*
X163815221Y-90193045D01*
X163752206Y-90212773D01*
X163684827Y-90194285D01*
X163681115Y-90191899D01*
X163679179Y-90190605D01*
X163679177Y-90190604D01*
X163533501Y-90130264D01*
X163533489Y-90130261D01*
X163378845Y-90099500D01*
X163378842Y-90099500D01*
X163221158Y-90099500D01*
X163221155Y-90099500D01*
X163066510Y-90130261D01*
X163066503Y-90130263D01*
X162958118Y-90175156D01*
X162888649Y-90182623D01*
X162826170Y-90151348D01*
X162790518Y-90091258D01*
X162789050Y-90036404D01*
X162800500Y-89978842D01*
X162800500Y-89821158D01*
X162800500Y-89821155D01*
X162800499Y-89821153D01*
X162769737Y-89666503D01*
X162728314Y-89566498D01*
X162709397Y-89520827D01*
X162709390Y-89520814D01*
X162621789Y-89389711D01*
X162621786Y-89389707D01*
X162510292Y-89278213D01*
X162510288Y-89278210D01*
X162379185Y-89190609D01*
X162379172Y-89190602D01*
X162233501Y-89130264D01*
X162233489Y-89130261D01*
X162078845Y-89099500D01*
X162078842Y-89099500D01*
X161921158Y-89099500D01*
X161921155Y-89099500D01*
X161766510Y-89130261D01*
X161766498Y-89130264D01*
X161620827Y-89190602D01*
X161620814Y-89190609D01*
X161489711Y-89278210D01*
X161489707Y-89278213D01*
X161378213Y-89389707D01*
X161378210Y-89389711D01*
X161290609Y-89520814D01*
X161290602Y-89520827D01*
X161230264Y-89666498D01*
X161230261Y-89666510D01*
X161199500Y-89821153D01*
X155186265Y-89821153D01*
X158544298Y-86463119D01*
X158605619Y-86429636D01*
X158670298Y-86432872D01*
X158683757Y-86437246D01*
X158893713Y-86470500D01*
X158893714Y-86470500D01*
X159106286Y-86470500D01*
X159106287Y-86470500D01*
X159316243Y-86437246D01*
X159518412Y-86371557D01*
X159707816Y-86275051D01*
X159729789Y-86259086D01*
X159879786Y-86150109D01*
X159879788Y-86150106D01*
X159879792Y-86150104D01*
X160030104Y-85999792D01*
X160030106Y-85999788D01*
X160030109Y-85999786D01*
X160155048Y-85827820D01*
X160155047Y-85827820D01*
X160155051Y-85827816D01*
X160251557Y-85638412D01*
X160317246Y-85436243D01*
X160350500Y-85226287D01*
X160350500Y-85013713D01*
X160317246Y-84803757D01*
X160251557Y-84601588D01*
X160155051Y-84412184D01*
X160155049Y-84412181D01*
X160155048Y-84412179D01*
X160030109Y-84240213D01*
X159879786Y-84089890D01*
X159707820Y-83964951D01*
X159707115Y-83964591D01*
X159699054Y-83960485D01*
X159648259Y-83912512D01*
X159631463Y-83844692D01*
X159653999Y-83778556D01*
X159699054Y-83739515D01*
X159707816Y-83735051D01*
X159729789Y-83719086D01*
X159879786Y-83610109D01*
X159879788Y-83610106D01*
X159879792Y-83610104D01*
X160030104Y-83459792D01*
X160030106Y-83459788D01*
X160030109Y-83459786D01*
X160155048Y-83287820D01*
X160155047Y-83287820D01*
X160155051Y-83287816D01*
X160251557Y-83098412D01*
X160317246Y-82896243D01*
X160350500Y-82686287D01*
X160350500Y-82473713D01*
X160317246Y-82263757D01*
X160251557Y-82061588D01*
X160155051Y-81872184D01*
X160155049Y-81872181D01*
X160155048Y-81872179D01*
X160030109Y-81700213D01*
X159879786Y-81549890D01*
X159707820Y-81424951D01*
X159707115Y-81424591D01*
X159699054Y-81420485D01*
X159648259Y-81372512D01*
X159631463Y-81304692D01*
X159653999Y-81238556D01*
X159699054Y-81199515D01*
X159707816Y-81195051D01*
X159729789Y-81179086D01*
X159879786Y-81070109D01*
X159879788Y-81070106D01*
X159879792Y-81070104D01*
X160030104Y-80919792D01*
X160030106Y-80919788D01*
X160030109Y-80919786D01*
X160155048Y-80747820D01*
X160155047Y-80747820D01*
X160155051Y-80747816D01*
X160251557Y-80558412D01*
X160317246Y-80356243D01*
X160350500Y-80146287D01*
X160350500Y-79933713D01*
X160317246Y-79723757D01*
X160251557Y-79521588D01*
X160155051Y-79332184D01*
X160155049Y-79332181D01*
X160155048Y-79332179D01*
X160030109Y-79160213D01*
X159916181Y-79046285D01*
X159882696Y-78984962D01*
X159887680Y-78915270D01*
X159929552Y-78859337D01*
X159960529Y-78842422D01*
X160092086Y-78793354D01*
X160092093Y-78793350D01*
X160207187Y-78707190D01*
X160207190Y-78707187D01*
X160293350Y-78592093D01*
X160293354Y-78592086D01*
X160343596Y-78457379D01*
X160343598Y-78457372D01*
X160349999Y-78397844D01*
X160350000Y-78397827D01*
X160350000Y-77750000D01*
X159433012Y-77750000D01*
X159465925Y-77692993D01*
X159500000Y-77565826D01*
X159500000Y-77434174D01*
X159465925Y-77307007D01*
X159433012Y-77250000D01*
X160350000Y-77250000D01*
X160350000Y-76602172D01*
X160349999Y-76602155D01*
X160343598Y-76542627D01*
X160343596Y-76542620D01*
X160293354Y-76407913D01*
X160293350Y-76407906D01*
X160207190Y-76292812D01*
X160207187Y-76292809D01*
X160092093Y-76206649D01*
X160092086Y-76206645D01*
X159957379Y-76156403D01*
X159957372Y-76156401D01*
X159897844Y-76150000D01*
X159250000Y-76150000D01*
X159250000Y-77066988D01*
X159192993Y-77034075D01*
X159065826Y-77000000D01*
X158934174Y-77000000D01*
X158807007Y-77034075D01*
X158750000Y-77066988D01*
X158750000Y-76150000D01*
X158102155Y-76150000D01*
X158042627Y-76156401D01*
X158042620Y-76156403D01*
X157907913Y-76206645D01*
X157907906Y-76206649D01*
X157792812Y-76292809D01*
X157792809Y-76292812D01*
X157706649Y-76407906D01*
X157706645Y-76407913D01*
X157656403Y-76542620D01*
X157656401Y-76542627D01*
X157650000Y-76602155D01*
X157650000Y-77250000D01*
X158566988Y-77250000D01*
X158534075Y-77307007D01*
X158500000Y-77434174D01*
X158500000Y-77565826D01*
X158534075Y-77692993D01*
X158566988Y-77750000D01*
X157650000Y-77750000D01*
X157650000Y-78397844D01*
X157656401Y-78457372D01*
X157656403Y-78457379D01*
X157706645Y-78592086D01*
X157706649Y-78592093D01*
X157792809Y-78707187D01*
X157792812Y-78707190D01*
X157907906Y-78793350D01*
X157907913Y-78793354D01*
X158039470Y-78842422D01*
X158095404Y-78884293D01*
X158119821Y-78949758D01*
X158104969Y-79018031D01*
X158083819Y-79046285D01*
X157969889Y-79160215D01*
X157844951Y-79332179D01*
X157748444Y-79521585D01*
X157682753Y-79723760D01*
X157649500Y-79933713D01*
X157649500Y-80146286D01*
X157682753Y-80356239D01*
X157748444Y-80558414D01*
X157844951Y-80747820D01*
X157969890Y-80919786D01*
X158120213Y-81070109D01*
X158292182Y-81195050D01*
X158300946Y-81199516D01*
X158351742Y-81247491D01*
X158368536Y-81315312D01*
X158345998Y-81381447D01*
X158300946Y-81420484D01*
X158292182Y-81424949D01*
X158120213Y-81549890D01*
X157969890Y-81700213D01*
X157844951Y-81872179D01*
X157748444Y-82061585D01*
X157682753Y-82263760D01*
X157649500Y-82473713D01*
X157649500Y-82654561D01*
X157629815Y-82721600D01*
X157577011Y-82767355D01*
X157507853Y-82777299D01*
X157444297Y-82748274D01*
X157437819Y-82742242D01*
X152034104Y-77338527D01*
X152034098Y-77338522D01*
X151902600Y-77262602D01*
X151902599Y-77262601D01*
X151902598Y-77262601D01*
X151755924Y-77223300D01*
X151755923Y-77223300D01*
X137906741Y-77223300D01*
X137839702Y-77203615D01*
X137819060Y-77186981D01*
X137810292Y-77178213D01*
X137810288Y-77178210D01*
X137679185Y-77090609D01*
X137679172Y-77090602D01*
X137533501Y-77030264D01*
X137533489Y-77030261D01*
X137378845Y-76999500D01*
X137378842Y-76999500D01*
X137221158Y-76999500D01*
X137221155Y-76999500D01*
X137066510Y-77030261D01*
X137066498Y-77030264D01*
X136920827Y-77090602D01*
X136920814Y-77090609D01*
X136789711Y-77178210D01*
X136789707Y-77178213D01*
X136678213Y-77289707D01*
X136678210Y-77289711D01*
X136590609Y-77420814D01*
X136590602Y-77420827D01*
X136530264Y-77566498D01*
X136530261Y-77566510D01*
X136499500Y-77721153D01*
X136499500Y-77878846D01*
X136530261Y-78033489D01*
X136530264Y-78033501D01*
X136590602Y-78179172D01*
X136590609Y-78179185D01*
X136678210Y-78310288D01*
X136678213Y-78310292D01*
X136789707Y-78421786D01*
X136789711Y-78421789D01*
X136920814Y-78509390D01*
X136920827Y-78509397D01*
X137066498Y-78569735D01*
X137066503Y-78569737D01*
X137221153Y-78600499D01*
X137221156Y-78600500D01*
X137221158Y-78600500D01*
X137378844Y-78600500D01*
X137378845Y-78600499D01*
X137533497Y-78569737D01*
X137679179Y-78509394D01*
X137810289Y-78421789D01*
X137810292Y-78421786D01*
X137819060Y-78413019D01*
X137880383Y-78379534D01*
X137906741Y-78376700D01*
X151389761Y-78376700D01*
X151456800Y-78396385D01*
X151477442Y-78413019D01*
X157674495Y-84610072D01*
X157707980Y-84671395D01*
X157704746Y-84736069D01*
X157682753Y-84803757D01*
X157649500Y-85013713D01*
X157649500Y-85226286D01*
X157682753Y-85436240D01*
X157682754Y-85436245D01*
X157687128Y-85449707D01*
X157689121Y-85519549D01*
X157656877Y-85575702D01*
X154054370Y-89178211D01*
X152899992Y-90332589D01*
X152866078Y-90366503D01*
X152812586Y-90419994D01*
X152812585Y-90419996D01*
X152743923Y-90522756D01*
X152743915Y-90522771D01*
X152732430Y-90550499D01*
X152696614Y-90636964D01*
X152696612Y-90636972D01*
X152676928Y-90735929D01*
X152676929Y-90735930D01*
X152672500Y-90758197D01*
X152672500Y-103060642D01*
X152652815Y-103127681D01*
X152651602Y-103129533D01*
X152590609Y-103220814D01*
X152590602Y-103220827D01*
X152530264Y-103366498D01*
X152530261Y-103366510D01*
X152499500Y-103521153D01*
X152499500Y-103678846D01*
X152530261Y-103833489D01*
X152530264Y-103833501D01*
X152561243Y-103908291D01*
X152568712Y-103977760D01*
X152537437Y-104040239D01*
X152477347Y-104075891D01*
X152407522Y-104073397D01*
X152359001Y-104043424D01*
X148325503Y-100009926D01*
X148292018Y-99948603D01*
X148295252Y-99883929D01*
X148317246Y-99816243D01*
X148350500Y-99606287D01*
X148350500Y-99393713D01*
X148317246Y-99183757D01*
X148251557Y-98981588D01*
X148155051Y-98792184D01*
X148155049Y-98792181D01*
X148155048Y-98792179D01*
X148030109Y-98620213D01*
X147879786Y-98469890D01*
X147707820Y-98344951D01*
X147518414Y-98248444D01*
X147518413Y-98248443D01*
X147518412Y-98248443D01*
X147316243Y-98182754D01*
X147316241Y-98182753D01*
X147316240Y-98182753D01*
X147133120Y-98153750D01*
X147106287Y-98149500D01*
X146893713Y-98149500D01*
X146810337Y-98162705D01*
X146741044Y-98153750D01*
X146687592Y-98108754D01*
X146672466Y-98072044D01*
X146671506Y-98072336D01*
X146669738Y-98066510D01*
X146669737Y-98066503D01*
X146634722Y-97981968D01*
X146609397Y-97920827D01*
X146609390Y-97920814D01*
X146521789Y-97789711D01*
X146521786Y-97789707D01*
X146410292Y-97678213D01*
X146410288Y-97678210D01*
X146279185Y-97590609D01*
X146279172Y-97590602D01*
X146133501Y-97530264D01*
X146133489Y-97530261D01*
X145978845Y-97499500D01*
X145978842Y-97499500D01*
X145821158Y-97499500D01*
X145821155Y-97499500D01*
X145666510Y-97530261D01*
X145666498Y-97530264D01*
X145520827Y-97590602D01*
X145520814Y-97590609D01*
X145389711Y-97678210D01*
X145389707Y-97678213D01*
X145278213Y-97789707D01*
X145278210Y-97789711D01*
X145190609Y-97920814D01*
X145190602Y-97920827D01*
X145130264Y-98066498D01*
X145130261Y-98066510D01*
X145099500Y-98221153D01*
X145099500Y-98378846D01*
X145130261Y-98533489D01*
X145130264Y-98533501D01*
X145190602Y-98679172D01*
X145190609Y-98679185D01*
X145224836Y-98730409D01*
X145245714Y-98797087D01*
X145227229Y-98864467D01*
X145175250Y-98911157D01*
X145121734Y-98923300D01*
X135450239Y-98923300D01*
X135383200Y-98903615D01*
X135362558Y-98886981D01*
X131996730Y-95521153D01*
X132899500Y-95521153D01*
X132899500Y-95678846D01*
X132930261Y-95833489D01*
X132930264Y-95833501D01*
X132990602Y-95979172D01*
X132990609Y-95979185D01*
X133078210Y-96110288D01*
X133078213Y-96110292D01*
X133189707Y-96221786D01*
X133189711Y-96221789D01*
X133320814Y-96309390D01*
X133320827Y-96309397D01*
X133466498Y-96369735D01*
X133466503Y-96369737D01*
X133621153Y-96400499D01*
X133621156Y-96400500D01*
X133621158Y-96400500D01*
X133778844Y-96400500D01*
X133778845Y-96400499D01*
X133933497Y-96369737D01*
X134079179Y-96309394D01*
X134210289Y-96221789D01*
X134321789Y-96110289D01*
X134409394Y-95979179D01*
X134469737Y-95833497D01*
X134500500Y-95678842D01*
X134500500Y-95521158D01*
X134500500Y-95521155D01*
X134500499Y-95521153D01*
X134486366Y-95450104D01*
X134469737Y-95366503D01*
X134442102Y-95299786D01*
X134409397Y-95220827D01*
X134409390Y-95220814D01*
X134321789Y-95089711D01*
X134321786Y-95089707D01*
X134205982Y-94973903D01*
X134207296Y-94972588D01*
X134172850Y-94922025D01*
X134170977Y-94852180D01*
X134207161Y-94792410D01*
X134221949Y-94780815D01*
X134310289Y-94721789D01*
X134421789Y-94610289D01*
X134509394Y-94479179D01*
X134569737Y-94333497D01*
X134600500Y-94178842D01*
X134600500Y-94021158D01*
X134600500Y-94021155D01*
X134600499Y-94021153D01*
X134578447Y-93910292D01*
X134569737Y-93866503D01*
X134533569Y-93779185D01*
X134509397Y-93720827D01*
X134509390Y-93720814D01*
X134421789Y-93589711D01*
X134421786Y-93589707D01*
X134310292Y-93478213D01*
X134310288Y-93478210D01*
X134179185Y-93390609D01*
X134179172Y-93390602D01*
X134033501Y-93330264D01*
X134033489Y-93330261D01*
X133878845Y-93299500D01*
X133878842Y-93299500D01*
X133721158Y-93299500D01*
X133721155Y-93299500D01*
X133566510Y-93330261D01*
X133566498Y-93330264D01*
X133420827Y-93390602D01*
X133420814Y-93390609D01*
X133289711Y-93478210D01*
X133289707Y-93478213D01*
X133178213Y-93589707D01*
X133178210Y-93589711D01*
X133090609Y-93720814D01*
X133090602Y-93720827D01*
X133030264Y-93866498D01*
X133030261Y-93866510D01*
X132999500Y-94021153D01*
X132999500Y-94178846D01*
X133030261Y-94333489D01*
X133030264Y-94333501D01*
X133090602Y-94479172D01*
X133090609Y-94479185D01*
X133178210Y-94610288D01*
X133178213Y-94610292D01*
X133294018Y-94726097D01*
X133292702Y-94727412D01*
X133327147Y-94777970D01*
X133329023Y-94847814D01*
X133292841Y-94907585D01*
X133278042Y-94919189D01*
X133189711Y-94978210D01*
X133189707Y-94978213D01*
X133078213Y-95089707D01*
X133078210Y-95089711D01*
X132990609Y-95220814D01*
X132990602Y-95220827D01*
X132930264Y-95366498D01*
X132930261Y-95366510D01*
X132899500Y-95521153D01*
X131996730Y-95521153D01*
X128196730Y-91721153D01*
X132999500Y-91721153D01*
X132999500Y-91878846D01*
X133030261Y-92033489D01*
X133030264Y-92033501D01*
X133090602Y-92179172D01*
X133090609Y-92179185D01*
X133178210Y-92310288D01*
X133178213Y-92310292D01*
X133289707Y-92421786D01*
X133289711Y-92421789D01*
X133420814Y-92509390D01*
X133420827Y-92509397D01*
X133566498Y-92569735D01*
X133566503Y-92569737D01*
X133716131Y-92599500D01*
X133721153Y-92600499D01*
X133721156Y-92600500D01*
X133721158Y-92600500D01*
X133878844Y-92600500D01*
X133878845Y-92600499D01*
X134033497Y-92569737D01*
X134179179Y-92509394D01*
X134310289Y-92421789D01*
X134421789Y-92310289D01*
X134509394Y-92179179D01*
X134569737Y-92033497D01*
X134600500Y-91878842D01*
X134600500Y-91721158D01*
X134600500Y-91721155D01*
X134600499Y-91721153D01*
X134580855Y-91622396D01*
X134569737Y-91566503D01*
X134551215Y-91521786D01*
X134509397Y-91420827D01*
X134509390Y-91420814D01*
X134421789Y-91289711D01*
X134421786Y-91289707D01*
X134310292Y-91178213D01*
X134310288Y-91178210D01*
X134179185Y-91090609D01*
X134179172Y-91090602D01*
X134033501Y-91030264D01*
X134033489Y-91030261D01*
X133878845Y-90999500D01*
X133878842Y-90999500D01*
X133721158Y-90999500D01*
X133721155Y-90999500D01*
X133566510Y-91030261D01*
X133566498Y-91030264D01*
X133420827Y-91090602D01*
X133420814Y-91090609D01*
X133289711Y-91178210D01*
X133289707Y-91178213D01*
X133178213Y-91289707D01*
X133178210Y-91289711D01*
X133090609Y-91420814D01*
X133090602Y-91420827D01*
X133030264Y-91566498D01*
X133030261Y-91566510D01*
X132999500Y-91721153D01*
X128196730Y-91721153D01*
X126325503Y-89849926D01*
X126292018Y-89788603D01*
X126295252Y-89723929D01*
X126317246Y-89656243D01*
X126350500Y-89446287D01*
X126350500Y-89233713D01*
X126317246Y-89023757D01*
X126251557Y-88821588D01*
X126155051Y-88632184D01*
X126155049Y-88632181D01*
X126155048Y-88632179D01*
X126030109Y-88460213D01*
X125879786Y-88309890D01*
X125707820Y-88184951D01*
X125518414Y-88088444D01*
X125518413Y-88088443D01*
X125518412Y-88088443D01*
X125316243Y-88022754D01*
X125316241Y-88022753D01*
X125316240Y-88022753D01*
X125154957Y-87997208D01*
X125106287Y-87989500D01*
X124893713Y-87989500D01*
X124845042Y-87997208D01*
X124683760Y-88022753D01*
X124481585Y-88088444D01*
X124292179Y-88184951D01*
X124120213Y-88309890D01*
X123969890Y-88460213D01*
X123844951Y-88632179D01*
X123748444Y-88821585D01*
X123682753Y-89023760D01*
X123649500Y-89233713D01*
X123649500Y-89446286D01*
X123668541Y-89566510D01*
X123682754Y-89656243D01*
X123736338Y-89821158D01*
X123748444Y-89858414D01*
X123844951Y-90047820D01*
X123969890Y-90219786D01*
X124120213Y-90370109D01*
X124292182Y-90495050D01*
X124300946Y-90499516D01*
X124351742Y-90547491D01*
X124368536Y-90615312D01*
X124345998Y-90681447D01*
X124300946Y-90720484D01*
X124292182Y-90724949D01*
X124120213Y-90849890D01*
X123969890Y-91000213D01*
X123844951Y-91172179D01*
X123748444Y-91361585D01*
X123682753Y-91563760D01*
X123649500Y-91773713D01*
X123649500Y-91986287D01*
X123682754Y-92196243D01*
X123728227Y-92336195D01*
X123748444Y-92398414D01*
X123844951Y-92587820D01*
X123969890Y-92759786D01*
X124120213Y-92910109D01*
X124292182Y-93035050D01*
X124300946Y-93039516D01*
X124351742Y-93087491D01*
X124368536Y-93155312D01*
X124345998Y-93221447D01*
X124300946Y-93260484D01*
X124292182Y-93264949D01*
X124120213Y-93389890D01*
X123969890Y-93540213D01*
X123844951Y-93712179D01*
X123748444Y-93901585D01*
X123682753Y-94103760D01*
X123649500Y-94313713D01*
X123649500Y-94526286D01*
X123680464Y-94721789D01*
X123682754Y-94736243D01*
X123728572Y-94877257D01*
X123748444Y-94938414D01*
X123844951Y-95127820D01*
X123969890Y-95299786D01*
X124120213Y-95450109D01*
X124292182Y-95575050D01*
X124300946Y-95579516D01*
X124351742Y-95627491D01*
X124368536Y-95695312D01*
X124345998Y-95761447D01*
X124300946Y-95800484D01*
X124292182Y-95804949D01*
X124120215Y-95929889D01*
X124049118Y-96000986D01*
X123987794Y-96034470D01*
X123918103Y-96029485D01*
X123862169Y-95987614D01*
X123846878Y-95960760D01*
X123822743Y-95902493D01*
X123766081Y-95804352D01*
X123675238Y-95647006D01*
X123495647Y-95412959D01*
X123495641Y-95412952D01*
X123287047Y-95204358D01*
X123287040Y-95204352D01*
X123052993Y-95024761D01*
X122797510Y-94877258D01*
X122797500Y-94877254D01*
X122524961Y-94764364D01*
X122524954Y-94764362D01*
X122524952Y-94764361D01*
X122239993Y-94688007D01*
X122191113Y-94681571D01*
X121947513Y-94649500D01*
X121947506Y-94649500D01*
X121652494Y-94649500D01*
X121652486Y-94649500D01*
X121374085Y-94686153D01*
X121360007Y-94688007D01*
X121179987Y-94736243D01*
X121075048Y-94764361D01*
X121075038Y-94764364D01*
X120802499Y-94877254D01*
X120802489Y-94877258D01*
X120547006Y-95024761D01*
X120312959Y-95204352D01*
X120312952Y-95204358D01*
X120212181Y-95305130D01*
X120150858Y-95338615D01*
X120081166Y-95333631D01*
X120025233Y-95291759D01*
X120000816Y-95226295D01*
X120000500Y-95217449D01*
X120000500Y-87121153D01*
X130599500Y-87121153D01*
X130599500Y-87278846D01*
X130630261Y-87433489D01*
X130630264Y-87433501D01*
X130690602Y-87579172D01*
X130690609Y-87579185D01*
X130778210Y-87710288D01*
X130778213Y-87710292D01*
X130889710Y-87821789D01*
X130976710Y-87879920D01*
X131020821Y-87909394D01*
X131034759Y-87915167D01*
X131034819Y-87915192D01*
X131075047Y-87942072D01*
X131299485Y-88166510D01*
X131509181Y-88376205D01*
X131542666Y-88437528D01*
X131545500Y-88463886D01*
X131545500Y-90305053D01*
X131536062Y-90352501D01*
X131530263Y-90366503D01*
X131530262Y-90366506D01*
X131530260Y-90366511D01*
X131499500Y-90521153D01*
X131499500Y-90678846D01*
X131530261Y-90833489D01*
X131530264Y-90833501D01*
X131590602Y-90979172D01*
X131590609Y-90979185D01*
X131678210Y-91110288D01*
X131678213Y-91110292D01*
X131789707Y-91221786D01*
X131789711Y-91221789D01*
X131920814Y-91309390D01*
X131920827Y-91309397D01*
X132046822Y-91361585D01*
X132066503Y-91369737D01*
X132221153Y-91400499D01*
X132221156Y-91400500D01*
X132221158Y-91400500D01*
X132378844Y-91400500D01*
X132378845Y-91400499D01*
X132533497Y-91369737D01*
X132651592Y-91320821D01*
X132679172Y-91309397D01*
X132679172Y-91309396D01*
X132679179Y-91309394D01*
X132810289Y-91221789D01*
X132921789Y-91110289D01*
X133009394Y-90979179D01*
X133069737Y-90833497D01*
X133100500Y-90678842D01*
X133100500Y-90527350D01*
X133120185Y-90460311D01*
X133172989Y-90414556D01*
X133242147Y-90404612D01*
X133293391Y-90424248D01*
X133420814Y-90509390D01*
X133420827Y-90509397D01*
X133566498Y-90569735D01*
X133566503Y-90569737D01*
X133676199Y-90591557D01*
X133721153Y-90600499D01*
X133721156Y-90600500D01*
X133721158Y-90600500D01*
X133878844Y-90600500D01*
X133878845Y-90600499D01*
X134033497Y-90569737D01*
X134179179Y-90509394D01*
X134310289Y-90421789D01*
X134421789Y-90310289D01*
X134509394Y-90179179D01*
X134569737Y-90033497D01*
X134600500Y-89878842D01*
X134600500Y-89721158D01*
X134600500Y-89721155D01*
X134600499Y-89721153D01*
X134589627Y-89666498D01*
X134569737Y-89566503D01*
X134545500Y-89507989D01*
X134509397Y-89420827D01*
X134509390Y-89420814D01*
X134421789Y-89289711D01*
X134421786Y-89289707D01*
X134319760Y-89187681D01*
X134286275Y-89126358D01*
X134291259Y-89056666D01*
X134319760Y-89012319D01*
X134421786Y-88910292D01*
X134421789Y-88910289D01*
X134509394Y-88779179D01*
X134569737Y-88633497D01*
X134600500Y-88478842D01*
X134600500Y-88321158D01*
X134600500Y-88321155D01*
X134600499Y-88321153D01*
X134598259Y-88309890D01*
X134569737Y-88166503D01*
X134510195Y-88022754D01*
X134509397Y-88020827D01*
X134509390Y-88020814D01*
X134421789Y-87889711D01*
X134421786Y-87889707D01*
X134310292Y-87778213D01*
X134310288Y-87778210D01*
X134179185Y-87690609D01*
X134179172Y-87690602D01*
X134033501Y-87630264D01*
X134033489Y-87630261D01*
X133878845Y-87599500D01*
X133878842Y-87599500D01*
X133721158Y-87599500D01*
X133721155Y-87599500D01*
X133566510Y-87630261D01*
X133566498Y-87630264D01*
X133420827Y-87690602D01*
X133420814Y-87690609D01*
X133289711Y-87778210D01*
X133204323Y-87863598D01*
X133142999Y-87897082D01*
X133073308Y-87892098D01*
X133017374Y-87850226D01*
X133002081Y-87823369D01*
X132968628Y-87742608D01*
X132886060Y-87619035D01*
X132886054Y-87619028D01*
X132776647Y-87509621D01*
X132776624Y-87509600D01*
X132142072Y-86875047D01*
X132115192Y-86834819D01*
X132109396Y-86820827D01*
X132109394Y-86820821D01*
X132109389Y-86820814D01*
X132021789Y-86689710D01*
X131910292Y-86578213D01*
X131910288Y-86578210D01*
X131779185Y-86490609D01*
X131779172Y-86490602D01*
X131633501Y-86430264D01*
X131633489Y-86430261D01*
X131478845Y-86399500D01*
X131478842Y-86399500D01*
X131321158Y-86399500D01*
X131321155Y-86399500D01*
X131166510Y-86430261D01*
X131166498Y-86430264D01*
X131020827Y-86490602D01*
X131020814Y-86490609D01*
X130889711Y-86578210D01*
X130889707Y-86578213D01*
X130778213Y-86689707D01*
X130778210Y-86689711D01*
X130690609Y-86820814D01*
X130690602Y-86820827D01*
X130630264Y-86966498D01*
X130630261Y-86966510D01*
X130599500Y-87121153D01*
X120000500Y-87121153D01*
X120000500Y-75624500D01*
X120020185Y-75557461D01*
X120072989Y-75511706D01*
X120124500Y-75500500D01*
X169375500Y-75500500D01*
X169442539Y-75520185D01*
G37*
%TD.AperFunction*%
%TA.AperFunction,Conductor*%
G36*
X126555703Y-94251726D02*
G01*
X126562181Y-94257758D01*
X132558525Y-100254102D01*
X132665898Y-100361475D01*
X132797402Y-100437399D01*
X132944076Y-100476700D01*
X144569761Y-100476700D01*
X144636800Y-100496385D01*
X144657442Y-100513019D01*
X145674495Y-101530072D01*
X145707980Y-101591395D01*
X145704746Y-101656069D01*
X145682753Y-101723757D01*
X145649500Y-101933713D01*
X145649500Y-102146286D01*
X145672358Y-102290609D01*
X145682754Y-102356243D01*
X145728227Y-102496195D01*
X145748444Y-102558414D01*
X145844951Y-102747820D01*
X145969890Y-102919786D01*
X146120213Y-103070109D01*
X146292182Y-103195050D01*
X146300946Y-103199516D01*
X146351742Y-103247491D01*
X146368536Y-103315312D01*
X146345998Y-103381447D01*
X146300946Y-103420484D01*
X146292182Y-103424949D01*
X146120213Y-103549890D01*
X145969890Y-103700213D01*
X145844949Y-103872182D01*
X145812640Y-103935594D01*
X145764666Y-103986391D01*
X145702155Y-104003300D01*
X135450239Y-104003300D01*
X135383200Y-103983615D01*
X135362558Y-103966981D01*
X135047315Y-103651738D01*
X135013830Y-103590415D01*
X135018814Y-103520723D01*
X135031894Y-103495166D01*
X135109390Y-103379185D01*
X135109390Y-103379184D01*
X135109394Y-103379179D01*
X135169737Y-103233497D01*
X135200500Y-103078842D01*
X135200500Y-102921158D01*
X135200500Y-102921155D01*
X135200499Y-102921153D01*
X135169738Y-102766510D01*
X135169737Y-102766503D01*
X135161997Y-102747816D01*
X135109397Y-102620827D01*
X135109390Y-102620814D01*
X135021789Y-102489711D01*
X135021786Y-102489707D01*
X134910292Y-102378213D01*
X134910288Y-102378210D01*
X134779185Y-102290609D01*
X134779172Y-102290602D01*
X134633501Y-102230264D01*
X134633489Y-102230261D01*
X134478845Y-102199500D01*
X134478842Y-102199500D01*
X134321158Y-102199500D01*
X134321155Y-102199500D01*
X134166510Y-102230261D01*
X134166498Y-102230264D01*
X134020827Y-102290602D01*
X134020816Y-102290608D01*
X133904832Y-102368106D01*
X133838155Y-102388983D01*
X133770775Y-102370498D01*
X133748261Y-102352684D01*
X126325503Y-94929926D01*
X126292018Y-94868603D01*
X126295252Y-94803929D01*
X126317246Y-94736243D01*
X126350500Y-94526287D01*
X126350500Y-94345439D01*
X126370185Y-94278400D01*
X126422989Y-94232645D01*
X126492147Y-94222701D01*
X126555703Y-94251726D01*
G37*
%TD.AperFunction*%
%TD*%
D21*
X119500000Y-75000000D02*
X170000000Y-75000000D01*
X170000000Y-121000000D01*
X119500000Y-121000000D01*
X119500000Y-75000000D01*
M02*
