%TF.GenerationSoftware,KiCad,Pcbnew,9.0.7*%
%TF.CreationDate,2026-04-16T22:55:16+03:00*%
%TF.ProjectId,Project_Acoustic_Detector,50726f6a-6563-4745-9f41-636f75737469,rev?*%
%TF.SameCoordinates,Original*%
%TF.FileFunction,Soldermask,Bot*%
%TF.FilePolarity,Negative*%
%FSLAX46Y46*%
G04 Gerber Fmt 4.6, Leading zero omitted, Abs format (unit mm)*
G04 Created by KiCad (PCBNEW 9.0.7) date 2026-04-16 22:55:16*
%MOMM*%
%LPD*%
G01*
G04 APERTURE LIST*
%ADD10R,1.700000X1.700000*%
%ADD11C,1.700000*%
%ADD12C,0.650000*%
%ADD13O,0.900000X2.400000*%
%ADD14O,0.900000X1.700000*%
%TA.AperFunction,Profile*%
%ADD15C,0.050000*%
%TD*%
G04 APERTURE END LIST*
D10*
%TO.C,J8*%
X125000000Y-99500000D03*
D11*
X125000000Y-96960000D03*
X125000000Y-94420000D03*
X125000000Y-91880000D03*
X125000000Y-89340000D03*
%TD*%
%TO.C,J5*%
X168000000Y-104960000D03*
X168000000Y-107500000D03*
X168000000Y-110040000D03*
X168000000Y-112580000D03*
D10*
X168000000Y-115120000D03*
%TD*%
%TO.C,J1*%
X159000000Y-77500000D03*
D11*
X159000000Y-80040000D03*
X159000000Y-82580000D03*
X159000000Y-85120000D03*
%TD*%
%TO.C,J9*%
X147000000Y-99500000D03*
X147000000Y-102040000D03*
X147000000Y-104580000D03*
X147000000Y-107120000D03*
D10*
X147000000Y-109660000D03*
%TD*%
D12*
%TO.C,J6*%
X128525000Y-113475000D03*
X129375000Y-113475000D03*
X130225000Y-113475000D03*
X131075000Y-113475000D03*
X131925000Y-113475000D03*
X132775000Y-113475000D03*
X133625000Y-113475000D03*
X134475000Y-113475000D03*
X134475000Y-114825000D03*
X133625000Y-114825000D03*
X132775000Y-114825000D03*
X131925000Y-114825000D03*
X131075000Y-114825000D03*
X130225000Y-114825000D03*
X129375000Y-114825000D03*
X128525000Y-114825000D03*
D13*
X127175000Y-114455000D03*
D14*
X127175000Y-117835000D03*
D13*
X135825000Y-114455000D03*
D14*
X135825000Y-117835000D03*
%TD*%
D15*
X119500000Y-75000000D02*
X170000000Y-75000000D01*
X170000000Y-121000000D01*
X119500000Y-121000000D01*
X119500000Y-75000000D01*
M02*
