M48
; DRILL file {KiCad 9.0.7} date 2026-04-16T22:55:39+0300
; FORMAT={-:-/ absolute / metric / decimal}
; #@! TF.CreationDate,2026-04-16T22:55:39+03:00
; #@! TF.GenerationSoftware,Kicad,Pcbnew,9.0.7
; #@! TF.FileFunction,Plated,1,2,PTH
FMAT,2
METRIC
; #@! TA.AperFunction,Plated,PTH,ViaDrill
T1C0.300
; #@! TA.AperFunction,Plated,PTH,ComponentDrill
T2C0.300
; #@! TA.AperFunction,Plated,PTH,ComponentDrill
T3C0.400
; #@! TA.AperFunction,Plated,PTH,ComponentDrill
T4C0.600
; #@! TA.AperFunction,Plated,PTH,ComponentDrill
T5C1.000
; #@! TA.AperFunction,Plated,PTH,ViaDrill
T6C2.500
%
G90
G05
T1
X125.2Y-113.4
X126.7Y-116.4
X128.5Y-78.9
X128.8Y-76.6
X131.4Y-87.2
X132.3Y-90.6
X132.7Y-105.6
X132.8Y-106.9
X133.4Y-105.0
X133.7Y-95.6
X133.8Y-88.4
X133.8Y-89.8
X133.8Y-91.8
X133.8Y-94.1
X133.9Y-104.3
X134.4Y-103.0
X136.986Y-116.817
X137.2Y-76.5
X137.3Y-77.8
X137.6Y-113.3
X138.0Y-100.8
X141.8Y-102.2
X145.9Y-98.3
X150.1Y-111.2
X152.2Y-111.2
X153.3Y-103.6
X157.9Y-93.4
X160.4Y-86.5
X161.4Y-83.5
X162.0Y-89.9
X162.0Y-91.7
X163.3Y-90.9
X164.2Y-90.9
X165.7Y-90.8
X166.6Y-90.8
X167.1Y-100.9
T2
X141.677Y-83.57
X141.677Y-84.97
X142.377Y-82.87
X142.377Y-84.27
X142.377Y-85.67
X143.077Y-83.57
X143.077Y-84.97
X143.778Y-82.87
X143.778Y-84.27
X143.778Y-85.67
X144.477Y-83.57
X144.477Y-84.97
T3
X128.525Y-113.475
X128.525Y-114.825
X129.375Y-113.475
X129.375Y-114.825
X130.225Y-113.475
X130.225Y-114.825
X131.075Y-113.475
X131.075Y-114.825
X131.925Y-113.475
X131.925Y-114.825
X132.775Y-113.475
X132.775Y-114.825
X133.625Y-113.475
X133.625Y-114.825
X134.475Y-113.475
X134.475Y-114.825
T5
X125.0Y-89.34
X125.0Y-91.88
X125.0Y-94.42
X125.0Y-96.96
X125.0Y-99.5
X147.0Y-99.5
X147.0Y-102.04
X147.0Y-104.58
X147.0Y-107.12
X147.0Y-109.66
X159.0Y-77.5
X159.0Y-80.04
X159.0Y-82.58
X159.0Y-85.12
X168.0Y-104.96
X168.0Y-107.5
X168.0Y-110.04
X168.0Y-112.58
X168.0Y-115.12
T6
X121.8Y-96.9
X121.8Y-96.9
X148.5Y-118.0
X148.5Y-118.0
X167.5Y-97.5
X167.5Y-97.5
T4
G00X127.175Y-113.705
M15
G01X127.175Y-115.205
M16
G05
G00X127.175Y-117.435
M15
G01X127.175Y-118.235
M16
G05
G00X135.825Y-113.705
M15
G01X135.825Y-115.205
M16
G05
G00X135.825Y-117.435
M15
G01X135.825Y-118.235
M16
G05
M30
